M48
; DRILL file {KiCad 9.0.5} date 2025-11-16T03:13:04+0100
; FORMAT={-:-/ absolute / metric / decimal}
; #@! TF.CreationDate,2025-11-16T03:13:04+01:00
; #@! TF.GenerationSoftware,Kicad,Pcbnew,9.0.5
; #@! TF.FileFunction,Plated,1,2,PTH
FMAT,2
METRIC
; #@! TA.AperFunction,Plated,PTH,ViaDrill
T1C0.300
; #@! TA.AperFunction,Plated,PTH,ComponentDrill
T2C1.000
%
G90
G05
T1
X81.28Y-53.34
X81.28Y-57.912
X84.074Y-59.944
X84.328Y-55.118
X86.106Y-55.118
X86.106Y-58.674
X86.106Y-62.484
X89.408Y-61.214
X89.916Y-62.484
X90.932Y-56.642
X91.948Y-59.182
X93.218Y-52.07
X96.012Y-61.468
X98.044Y-62.23
X98.298Y-52.578
T2
X78.74Y-54.102
X78.74Y-56.642
X78.74Y-59.182
X78.74Y-61.722
X97.79Y-56.642
X97.79Y-59.182
M30
