%TF.GenerationSoftware,KiCad,Pcbnew,9.0.5*%
%TF.CreationDate,2025-11-16T03:13:01+01:00*%
%TF.ProjectId,LINBoard,4c494e42-6f61-4726-942e-6b696361645f,v1.0*%
%TF.SameCoordinates,Original*%
%TF.FileFunction,Copper,L1,Top*%
%TF.FilePolarity,Positive*%
%FSLAX46Y46*%
G04 Gerber Fmt 4.6, Leading zero omitted, Abs format (unit mm)*
G04 Created by KiCad (PCBNEW 9.0.5) date 2025-11-16 03:13:01*
%MOMM*%
%LPD*%
G01*
G04 APERTURE LIST*
G04 Aperture macros list*
%AMRoundRect*
0 Rectangle with rounded corners*
0 $1 Rounding radius*
0 $2 $3 $4 $5 $6 $7 $8 $9 X,Y pos of 4 corners*
0 Add a 4 corners polygon primitive as box body*
4,1,4,$2,$3,$4,$5,$6,$7,$8,$9,$2,$3,0*
0 Add four circle primitives for the rounded corners*
1,1,$1+$1,$2,$3*
1,1,$1+$1,$4,$5*
1,1,$1+$1,$6,$7*
1,1,$1+$1,$8,$9*
0 Add four rect primitives between the rounded corners*
20,1,$1+$1,$2,$3,$4,$5,0*
20,1,$1+$1,$4,$5,$6,$7,0*
20,1,$1+$1,$6,$7,$8,$9,0*
20,1,$1+$1,$8,$9,$2,$3,0*%
G04 Aperture macros list end*
%TA.AperFunction,SMDPad,CuDef*%
%ADD10RoundRect,0.250000X0.262500X0.450000X-0.262500X0.450000X-0.262500X-0.450000X0.262500X-0.450000X0*%
%TD*%
%TA.AperFunction,SMDPad,CuDef*%
%ADD11RoundRect,0.225000X0.225000X0.375000X-0.225000X0.375000X-0.225000X-0.375000X0.225000X-0.375000X0*%
%TD*%
%TA.AperFunction,SMDPad,CuDef*%
%ADD12RoundRect,0.150000X0.150000X0.500000X-0.150000X0.500000X-0.150000X-0.500000X0.150000X-0.500000X0*%
%TD*%
%TA.AperFunction,SMDPad,CuDef*%
%ADD13RoundRect,0.175000X0.350000X0.175000X-0.350000X0.175000X-0.350000X-0.175000X0.350000X-0.175000X0*%
%TD*%
%TA.AperFunction,SMDPad,CuDef*%
%ADD14RoundRect,0.250000X0.250000X0.475000X-0.250000X0.475000X-0.250000X-0.475000X0.250000X-0.475000X0*%
%TD*%
%TA.AperFunction,SMDPad,CuDef*%
%ADD15RoundRect,0.250000X-0.250000X-0.475000X0.250000X-0.475000X0.250000X0.475000X-0.250000X0.475000X0*%
%TD*%
%TA.AperFunction,SMDPad,CuDef*%
%ADD16RoundRect,0.250000X0.450000X-0.262500X0.450000X0.262500X-0.450000X0.262500X-0.450000X-0.262500X0*%
%TD*%
%TA.AperFunction,ComponentPad*%
%ADD17R,1.700000X1.700000*%
%TD*%
%TA.AperFunction,ComponentPad*%
%ADD18C,1.700000*%
%TD*%
%TA.AperFunction,SMDPad,CuDef*%
%ADD19RoundRect,0.250000X-0.262500X-0.450000X0.262500X-0.450000X0.262500X0.450000X-0.262500X0.450000X0*%
%TD*%
%TA.AperFunction,SMDPad,CuDef*%
%ADD20R,1.460500X0.558800*%
%TD*%
%TA.AperFunction,ViaPad*%
%ADD21C,0.600000*%
%TD*%
%TA.AperFunction,Conductor*%
%ADD22C,0.200000*%
%TD*%
G04 APERTURE END LIST*
D10*
%TO.P,R2,1*%
%TO.N,+5V*%
X84224500Y-53340000D03*
%TO.P,R2,2*%
%TO.N,Net-(U1-EN)*%
X82399500Y-53340000D03*
%TD*%
D11*
%TO.P,D1,1,K*%
%TO.N,Net-(D1-K)*%
X94614000Y-61976000D03*
%TO.P,D1,2,A*%
%TO.N,+5V*%
X91314000Y-61976000D03*
%TD*%
D12*
%TO.P,SW1,1,A*%
%TO.N,unconnected-(SW1-A-Pad1)*%
X95468000Y-55036000D03*
%TO.P,SW1,2,B*%
%TO.N,Net-(SW1-B)*%
X92468000Y-55036000D03*
%TO.P,SW1,3,C*%
%TO.N,Net-(J1-Pin_1)*%
X90968000Y-55036000D03*
D13*
%TO.P,SW1,SH*%
%TO.N,GNDREF*%
X96893000Y-54186000D03*
X96893000Y-51986000D03*
X89543000Y-54186000D03*
X89543000Y-51986000D03*
%TD*%
D14*
%TO.P,C1,1*%
%TO.N,Net-(J1-Pin_1)*%
X88072000Y-56642000D03*
%TO.P,C1,2*%
%TO.N,GNDREF*%
X86172000Y-56642000D03*
%TD*%
D15*
%TO.P,C2,1*%
%TO.N,+5V*%
X82362000Y-56642000D03*
%TO.P,C2,2*%
%TO.N,GNDREF*%
X84262000Y-56642000D03*
%TD*%
D16*
%TO.P,R3,1*%
%TO.N,Net-(D1-K)*%
X94488000Y-59078500D03*
%TO.P,R3,2*%
%TO.N,Net-(SW1-B)*%
X94488000Y-57253500D03*
%TD*%
D17*
%TO.P,J1,1,Pin_1*%
%TO.N,Net-(J1-Pin_1)*%
X97790000Y-56642000D03*
D18*
%TO.P,J1,2,Pin_2*%
X97790000Y-59182000D03*
%TD*%
D17*
%TO.P,J2,1,Pin_1*%
%TO.N,+5V*%
X78740000Y-54102000D03*
D18*
%TO.P,J2,2,Pin_2*%
%TO.N,Net-(J2-Pin_2)*%
X78740000Y-56642000D03*
%TO.P,J2,3,Pin_3*%
%TO.N,Net-(J2-Pin_3)*%
X78740000Y-59182000D03*
%TO.P,J2,4,Pin_4*%
%TO.N,GNDREF*%
X78740000Y-61722000D03*
%TD*%
D19*
%TO.P,R1,1*%
%TO.N,+5V*%
X85955500Y-53340000D03*
%TO.P,R1,2*%
%TO.N,Net-(J2-Pin_2)*%
X87780500Y-53340000D03*
%TD*%
D20*
%TO.P,U1,1,RXD*%
%TO.N,Net-(J2-Pin_3)*%
X82619850Y-58801000D03*
%TO.P,U1,2,EN*%
%TO.N,Net-(U1-EN)*%
X82619850Y-60071000D03*
%TO.P,U1,3,NC*%
%TO.N,unconnected-(U1-NC-Pad3)*%
X82619850Y-61341000D03*
%TO.P,U1,4,TXD*%
%TO.N,Net-(J2-Pin_2)*%
X82619850Y-62611000D03*
%TO.P,U1,5,GND*%
%TO.N,GNDREF*%
X88068150Y-62611000D03*
%TO.P,U1,6,LIN*%
%TO.N,Net-(J1-Pin_1)*%
X88068150Y-61341000D03*
%TO.P,U1,7,VSUP*%
%TO.N,+5V*%
X88068150Y-60071000D03*
%TO.P,U1,8,NC*%
%TO.N,unconnected-(U1-NC-Pad8)*%
X88068150Y-58801000D03*
%TD*%
D21*
%TO.N,GNDREF*%
X96012000Y-61468000D03*
X89916000Y-62484000D03*
X86106000Y-55118000D03*
X86106000Y-58674000D03*
X91948000Y-59182000D03*
X84328000Y-55118000D03*
X93218000Y-52070000D03*
X98298000Y-52578000D03*
X98044000Y-62230000D03*
X86106000Y-62484000D03*
%TO.N,Net-(J1-Pin_1)*%
X89408000Y-61214000D03*
X90932000Y-56642000D03*
%TO.N,Net-(J2-Pin_3)*%
X81280000Y-57912000D03*
%TO.N,Net-(U1-EN)*%
X84074000Y-59944000D03*
X81280000Y-53340000D03*
%TD*%
D22*
%TO.N,Net-(J1-Pin_1)*%
X88068150Y-61341000D02*
X89281000Y-61341000D01*
X88068150Y-61341000D02*
X88519000Y-61341000D01*
X90932000Y-56642000D02*
X90932000Y-55072000D01*
X90932000Y-55072000D02*
X90968000Y-55036000D01*
X88072000Y-56642000D02*
X90932000Y-56642000D01*
X89281000Y-61341000D02*
X89408000Y-61214000D01*
%TO.N,+5V*%
X82362000Y-55382200D02*
X84224500Y-53519700D01*
X82362000Y-56642000D02*
X82362000Y-56860400D01*
X85572600Y-60071000D02*
X88068150Y-60071000D01*
X78740000Y-54102000D02*
X80043000Y-54102000D01*
X88068150Y-60071000D02*
X89535000Y-60071000D01*
X82362000Y-56421000D02*
X82362000Y-56642000D01*
X82362000Y-56860400D02*
X85572600Y-60071000D01*
X82362000Y-56642000D02*
X82362000Y-55382200D01*
X91314000Y-61850000D02*
X91314000Y-61976000D01*
X80043000Y-54102000D02*
X82362000Y-56421000D01*
X84224500Y-53519700D02*
X84224500Y-53340000D01*
X85955500Y-53340000D02*
X84224500Y-53340000D01*
X89535000Y-60071000D02*
X91314000Y-61850000D01*
%TO.N,Net-(D1-K)*%
X94614000Y-61976000D02*
X94614000Y-59204500D01*
X94614000Y-59204500D02*
X94488000Y-59078500D01*
%TO.N,Net-(J2-Pin_3)*%
X81280000Y-57912000D02*
X82169000Y-58801000D01*
X82169000Y-58801000D02*
X82619850Y-58801000D01*
%TO.N,Net-(J2-Pin_2)*%
X87780500Y-53160300D02*
X86690200Y-52070000D01*
X81280000Y-59182000D02*
X81280000Y-61722000D01*
X81280000Y-61722000D02*
X82169000Y-62611000D01*
X78740000Y-56642000D02*
X81280000Y-59182000D01*
X77563000Y-52977000D02*
X77563000Y-55465000D01*
X82169000Y-62611000D02*
X82619850Y-62611000D01*
X77563000Y-55465000D02*
X78740000Y-56642000D01*
X87780500Y-53340000D02*
X87780500Y-53160300D01*
X86690200Y-52070000D02*
X78470000Y-52070000D01*
X78470000Y-52070000D02*
X77563000Y-52977000D01*
%TO.N,Net-(U1-EN)*%
X82399500Y-53340000D02*
X81280000Y-53340000D01*
X82746850Y-59944000D02*
X82619850Y-60071000D01*
X84074000Y-59944000D02*
X82746850Y-59944000D01*
%TO.N,Net-(SW1-B)*%
X94488000Y-57253500D02*
X94337500Y-57253500D01*
X94337500Y-57253500D02*
X92468000Y-55384000D01*
X92468000Y-55384000D02*
X92468000Y-55036000D01*
%TD*%
%TA.AperFunction,Conductor*%
%TO.N,GNDREF*%
G36*
X80295703Y-59047384D02*
G01*
X80302181Y-59053416D01*
X80643181Y-59394416D01*
X80676666Y-59455739D01*
X80679500Y-59482097D01*
X80679500Y-61635330D01*
X80679499Y-61635348D01*
X80679499Y-61801054D01*
X80679498Y-61801054D01*
X80696024Y-61862727D01*
X80720423Y-61953785D01*
X80734373Y-61977946D01*
X80776153Y-62050312D01*
X80799479Y-62090715D01*
X80918349Y-62209585D01*
X80918355Y-62209590D01*
X81352781Y-62644016D01*
X81367483Y-62670941D01*
X81384077Y-62696761D01*
X81384968Y-62702963D01*
X81386266Y-62705339D01*
X81389100Y-62731696D01*
X81389100Y-62804044D01*
X81389101Y-62875499D01*
X81369417Y-62942539D01*
X81316613Y-62988294D01*
X81265101Y-62999500D01*
X77968962Y-62999500D01*
X77955078Y-62998720D01*
X77942553Y-62997308D01*
X77864735Y-62988540D01*
X77837666Y-62982362D01*
X77758462Y-62954648D01*
X77733444Y-62942600D01*
X77662395Y-62897957D01*
X77640686Y-62880644D01*
X77581355Y-62821313D01*
X77564042Y-62799604D01*
X77519399Y-62728555D01*
X77507351Y-62703537D01*
X77507150Y-62702963D01*
X77479636Y-62624331D01*
X77473459Y-62597263D01*
X77463280Y-62506922D01*
X77462500Y-62493038D01*
X77462500Y-60102913D01*
X77482185Y-60035874D01*
X77534989Y-59990119D01*
X77604147Y-59980175D01*
X77667703Y-60009200D01*
X77686819Y-60030029D01*
X77709892Y-60061788D01*
X77860213Y-60212109D01*
X78032179Y-60337048D01*
X78032181Y-60337049D01*
X78032184Y-60337051D01*
X78221588Y-60433557D01*
X78423757Y-60499246D01*
X78633713Y-60532500D01*
X78633714Y-60532500D01*
X78846286Y-60532500D01*
X78846287Y-60532500D01*
X79056243Y-60499246D01*
X79258412Y-60433557D01*
X79447816Y-60337051D01*
X79494344Y-60303247D01*
X79619786Y-60212109D01*
X79619788Y-60212106D01*
X79619792Y-60212104D01*
X79770104Y-60061792D01*
X79770106Y-60061788D01*
X79770109Y-60061786D01*
X79895048Y-59889820D01*
X79895047Y-59889820D01*
X79895051Y-59889816D01*
X79991557Y-59700412D01*
X80057246Y-59498243D01*
X80090500Y-59288287D01*
X80090500Y-59141097D01*
X80110185Y-59074058D01*
X80162989Y-59028303D01*
X80232147Y-59018359D01*
X80295703Y-59047384D01*
G37*
%TD.AperFunction*%
%TA.AperFunction,Conductor*%
G36*
X84884901Y-60281925D02*
G01*
X84899351Y-60280111D01*
X84918355Y-60289203D01*
X84938944Y-60293682D01*
X84958824Y-60308564D01*
X84962379Y-60310265D01*
X84967198Y-60314833D01*
X85087739Y-60435374D01*
X85087749Y-60435385D01*
X85092079Y-60439715D01*
X85092080Y-60439716D01*
X85203884Y-60551520D01*
X85278328Y-60594500D01*
X85340815Y-60630577D01*
X85493543Y-60671500D01*
X85651657Y-60671500D01*
X86770625Y-60671500D01*
X86837664Y-60691185D01*
X86883419Y-60743989D01*
X86893363Y-60813147D01*
X86886807Y-60838833D01*
X86849447Y-60939001D01*
X86843809Y-60954117D01*
X86837400Y-61013727D01*
X86837400Y-61013734D01*
X86837400Y-61013735D01*
X86837400Y-61668270D01*
X86837401Y-61668276D01*
X86843808Y-61727883D01*
X86894102Y-61862728D01*
X86894106Y-61862735D01*
X86980352Y-61977944D01*
X86980354Y-61977946D01*
X87095564Y-62064193D01*
X87095571Y-62064197D01*
X87230417Y-62114491D01*
X87230416Y-62114491D01*
X87237344Y-62115235D01*
X87290027Y-62120900D01*
X88846272Y-62120899D01*
X88905883Y-62114491D01*
X89040731Y-62064196D01*
X89109462Y-62012743D01*
X89174925Y-61988326D01*
X89207965Y-61990393D01*
X89329155Y-62014500D01*
X89329158Y-62014500D01*
X89486844Y-62014500D01*
X89486845Y-62014499D01*
X89641497Y-61983737D01*
X89787179Y-61923394D01*
X89918289Y-61835789D01*
X90029789Y-61724289D01*
X90067218Y-61668273D01*
X90069720Y-61664529D01*
X90085885Y-61651019D01*
X90098512Y-61634152D01*
X90112156Y-61629062D01*
X90123332Y-61619723D01*
X90144236Y-61617097D01*
X90163976Y-61609735D01*
X90178207Y-61612830D01*
X90192657Y-61611016D01*
X90211661Y-61620108D01*
X90232249Y-61624587D01*
X90252128Y-61639469D01*
X90255684Y-61641170D01*
X90260503Y-61645738D01*
X90327181Y-61712416D01*
X90360666Y-61773739D01*
X90363500Y-61800097D01*
X90363500Y-62399337D01*
X90363501Y-62399355D01*
X90373650Y-62498707D01*
X90373651Y-62498710D01*
X90426996Y-62659694D01*
X90427001Y-62659705D01*
X90519823Y-62810191D01*
X90517062Y-62811893D01*
X90537847Y-62863253D01*
X90524879Y-62931909D01*
X90476852Y-62982656D01*
X90414453Y-62999500D01*
X83974600Y-62999500D01*
X83907561Y-62979815D01*
X83861806Y-62927011D01*
X83850600Y-62875500D01*
X83850599Y-62283729D01*
X83850598Y-62283723D01*
X83844191Y-62224116D01*
X83793897Y-62089272D01*
X83793896Y-62089269D01*
X83764729Y-62050307D01*
X83740313Y-61984848D01*
X83755164Y-61916575D01*
X83764721Y-61901702D01*
X83793896Y-61862731D01*
X83844191Y-61727883D01*
X83850600Y-61668273D01*
X83850599Y-61013728D01*
X83844191Y-60954117D01*
X83825348Y-60903596D01*
X83820363Y-60833905D01*
X83853847Y-60772581D01*
X83915170Y-60739096D01*
X83965721Y-60738645D01*
X83995155Y-60744500D01*
X83995158Y-60744500D01*
X84152844Y-60744500D01*
X84152845Y-60744499D01*
X84307497Y-60713737D01*
X84453179Y-60653394D01*
X84584289Y-60565789D01*
X84695789Y-60454289D01*
X84776415Y-60333622D01*
X84792581Y-60320112D01*
X84805207Y-60303247D01*
X84818851Y-60298157D01*
X84830027Y-60288818D01*
X84850931Y-60286192D01*
X84870671Y-60278830D01*
X84884901Y-60281925D01*
G37*
%TD.AperFunction*%
%TA.AperFunction,Conductor*%
G36*
X91761331Y-55915126D02*
G01*
X91805680Y-55943627D01*
X91916129Y-56054076D01*
X91916133Y-56054079D01*
X91916135Y-56054081D01*
X92057602Y-56137744D01*
X92097904Y-56149453D01*
X92215426Y-56183597D01*
X92215429Y-56183597D01*
X92215431Y-56183598D01*
X92252306Y-56186500D01*
X92369903Y-56186500D01*
X92436942Y-56206185D01*
X92457584Y-56222819D01*
X93251181Y-57016416D01*
X93284666Y-57077739D01*
X93287500Y-57104097D01*
X93287500Y-57566001D01*
X93287501Y-57566019D01*
X93298000Y-57668796D01*
X93298001Y-57668799D01*
X93353185Y-57835331D01*
X93353187Y-57835336D01*
X93366549Y-57856999D01*
X93444542Y-57983447D01*
X93445289Y-57984657D01*
X93538951Y-58078319D01*
X93572436Y-58139642D01*
X93567452Y-58209334D01*
X93538951Y-58253681D01*
X93445289Y-58347342D01*
X93353187Y-58496663D01*
X93353186Y-58496666D01*
X93298001Y-58663203D01*
X93298001Y-58663204D01*
X93298000Y-58663204D01*
X93287500Y-58765983D01*
X93287500Y-59391001D01*
X93287501Y-59391019D01*
X93298000Y-59493796D01*
X93298001Y-59493799D01*
X93330039Y-59590481D01*
X93353186Y-59660334D01*
X93445288Y-59809656D01*
X93569344Y-59933712D01*
X93718666Y-60025814D01*
X93885203Y-60080999D01*
X93902100Y-60082725D01*
X93966792Y-60109120D01*
X94006945Y-60166299D01*
X94013500Y-60206083D01*
X94013500Y-60910995D01*
X93993815Y-60978034D01*
X93954600Y-61016532D01*
X93935954Y-61028033D01*
X93816029Y-61147959D01*
X93727001Y-61292294D01*
X93726996Y-61292305D01*
X93673651Y-61453290D01*
X93663500Y-61552647D01*
X93663500Y-62399337D01*
X93663501Y-62399355D01*
X93673650Y-62498707D01*
X93673651Y-62498710D01*
X93726996Y-62659694D01*
X93727001Y-62659705D01*
X93819823Y-62810191D01*
X93817062Y-62811893D01*
X93837847Y-62863253D01*
X93824879Y-62931909D01*
X93776852Y-62982656D01*
X93714453Y-62999500D01*
X92213547Y-62999500D01*
X92146508Y-62979815D01*
X92100753Y-62927011D01*
X92090809Y-62857853D01*
X92110664Y-62811725D01*
X92108177Y-62810191D01*
X92200998Y-62659705D01*
X92200997Y-62659705D01*
X92201003Y-62659697D01*
X92254349Y-62498708D01*
X92264500Y-62399345D01*
X92264499Y-61552656D01*
X92254349Y-61453292D01*
X92201003Y-61292303D01*
X92200999Y-61292297D01*
X92200998Y-61292294D01*
X92111970Y-61147959D01*
X92111967Y-61147955D01*
X91992044Y-61028032D01*
X91992040Y-61028029D01*
X91847705Y-60939001D01*
X91847699Y-60938998D01*
X91847697Y-60938997D01*
X91763192Y-60910995D01*
X91686709Y-60885651D01*
X91587352Y-60875500D01*
X91587345Y-60875500D01*
X91240097Y-60875500D01*
X91173058Y-60855815D01*
X91152416Y-60839181D01*
X90022590Y-59709355D01*
X90022588Y-59709352D01*
X89903717Y-59590481D01*
X89903709Y-59590475D01*
X89788909Y-59524196D01*
X89788908Y-59524195D01*
X89773358Y-59515218D01*
X89766785Y-59511423D01*
X89614057Y-59470499D01*
X89455943Y-59470499D01*
X89448347Y-59470499D01*
X89448331Y-59470500D01*
X89365675Y-59470500D01*
X89298636Y-59450815D01*
X89252881Y-59398011D01*
X89242937Y-59328853D01*
X89249493Y-59303167D01*
X89255043Y-59288286D01*
X89292491Y-59187883D01*
X89298900Y-59128273D01*
X89298899Y-58473728D01*
X89292491Y-58414117D01*
X89267586Y-58347344D01*
X89242197Y-58279271D01*
X89242193Y-58279264D01*
X89155947Y-58164055D01*
X89155944Y-58164052D01*
X89040735Y-58077806D01*
X89040728Y-58077802D01*
X88905882Y-58027508D01*
X88905883Y-58027508D01*
X88846283Y-58021101D01*
X88846281Y-58021100D01*
X88846273Y-58021100D01*
X88846265Y-58021100D01*
X88723052Y-58021100D01*
X88656013Y-58001415D01*
X88610258Y-57948611D01*
X88600314Y-57879453D01*
X88629339Y-57815897D01*
X88657953Y-57791562D01*
X88790656Y-57709712D01*
X88914712Y-57585656D01*
X89006814Y-57436334D01*
X89042879Y-57327494D01*
X89082652Y-57270051D01*
X89147167Y-57243228D01*
X89160585Y-57242500D01*
X90352234Y-57242500D01*
X90419273Y-57262185D01*
X90421125Y-57263398D01*
X90552814Y-57351390D01*
X90552827Y-57351397D01*
X90698498Y-57411735D01*
X90698503Y-57411737D01*
X90822145Y-57436331D01*
X90853153Y-57442499D01*
X90853156Y-57442500D01*
X90853158Y-57442500D01*
X91010844Y-57442500D01*
X91010845Y-57442499D01*
X91165497Y-57411737D01*
X91311179Y-57351394D01*
X91442289Y-57263789D01*
X91553789Y-57152289D01*
X91641394Y-57021179D01*
X91701737Y-56875497D01*
X91732500Y-56720842D01*
X91732500Y-56563158D01*
X91732500Y-56563155D01*
X91732499Y-56563153D01*
X91727041Y-56535713D01*
X91701737Y-56408503D01*
X91665533Y-56321097D01*
X91641397Y-56262827D01*
X91641390Y-56262814D01*
X91565644Y-56149453D01*
X91556156Y-56119152D01*
X91545062Y-56089409D01*
X91545792Y-56086052D01*
X91544766Y-56082776D01*
X91553163Y-56052163D01*
X91559913Y-56021136D01*
X91562694Y-56017420D01*
X91563250Y-56015396D01*
X91581064Y-55992882D01*
X91604935Y-55969011D01*
X91630319Y-55943626D01*
X91691640Y-55910142D01*
X91761331Y-55915126D01*
G37*
%TD.AperFunction*%
%TA.AperFunction,Conductor*%
G36*
X96393168Y-55781415D02*
G01*
X96433098Y-55838750D01*
X96439500Y-55878078D01*
X96439500Y-57539870D01*
X96439501Y-57539876D01*
X96445908Y-57599483D01*
X96496202Y-57734328D01*
X96496206Y-57734335D01*
X96582452Y-57849544D01*
X96582455Y-57849547D01*
X96697664Y-57935793D01*
X96697671Y-57935797D01*
X96829082Y-57984810D01*
X96885016Y-58026681D01*
X96909433Y-58092145D01*
X96894582Y-58160418D01*
X96873431Y-58188673D01*
X96759889Y-58302215D01*
X96634951Y-58474179D01*
X96538444Y-58663585D01*
X96472753Y-58865760D01*
X96439762Y-59074058D01*
X96439500Y-59075713D01*
X96439500Y-59288287D01*
X96445925Y-59328853D01*
X96472049Y-59493797D01*
X96472754Y-59498243D01*
X96525421Y-59660336D01*
X96538444Y-59700414D01*
X96634951Y-59889820D01*
X96759890Y-60061786D01*
X96910213Y-60212109D01*
X97082179Y-60337048D01*
X97082181Y-60337049D01*
X97082184Y-60337051D01*
X97271588Y-60433557D01*
X97473757Y-60499246D01*
X97683713Y-60532500D01*
X97683714Y-60532500D01*
X97896286Y-60532500D01*
X97896287Y-60532500D01*
X98106243Y-60499246D01*
X98308412Y-60433557D01*
X98497816Y-60337051D01*
X98544344Y-60303247D01*
X98669786Y-60212109D01*
X98669788Y-60212106D01*
X98669792Y-60212104D01*
X98820104Y-60061792D01*
X98843181Y-60030028D01*
X98898510Y-59987363D01*
X98968123Y-59981382D01*
X99029919Y-60013987D01*
X99064277Y-60074825D01*
X99067500Y-60102913D01*
X99067500Y-62493038D01*
X99066720Y-62506922D01*
X99066720Y-62506923D01*
X99056540Y-62597264D01*
X99050362Y-62624333D01*
X99022648Y-62703537D01*
X99010600Y-62728555D01*
X98965957Y-62799604D01*
X98948644Y-62821313D01*
X98889313Y-62880644D01*
X98867604Y-62897957D01*
X98796555Y-62942600D01*
X98771537Y-62954648D01*
X98692333Y-62982362D01*
X98665264Y-62988540D01*
X98585075Y-62997576D01*
X98574921Y-62998720D01*
X98561038Y-62999500D01*
X95513547Y-62999500D01*
X95446508Y-62979815D01*
X95400753Y-62927011D01*
X95390809Y-62857853D01*
X95410664Y-62811725D01*
X95408177Y-62810191D01*
X95500998Y-62659705D01*
X95500997Y-62659705D01*
X95501003Y-62659697D01*
X95554349Y-62498708D01*
X95564500Y-62399345D01*
X95564499Y-61552656D01*
X95554349Y-61453292D01*
X95501003Y-61292303D01*
X95500999Y-61292297D01*
X95500998Y-61292294D01*
X95411970Y-61147959D01*
X95411969Y-61147958D01*
X95411968Y-61147956D01*
X95292044Y-61028032D01*
X95273399Y-61016531D01*
X95226677Y-60964582D01*
X95214500Y-60910995D01*
X95214500Y-60121440D01*
X95234185Y-60054401D01*
X95273401Y-60015903D01*
X95406656Y-59933712D01*
X95530712Y-59809656D01*
X95622814Y-59660334D01*
X95677999Y-59493797D01*
X95688500Y-59391009D01*
X95688499Y-58765992D01*
X95686194Y-58743431D01*
X95677999Y-58663203D01*
X95677998Y-58663200D01*
X95622814Y-58496666D01*
X95530712Y-58347344D01*
X95437049Y-58253681D01*
X95403564Y-58192358D01*
X95408548Y-58122666D01*
X95437049Y-58078319D01*
X95437566Y-58077802D01*
X95530712Y-57984656D01*
X95622814Y-57835334D01*
X95677999Y-57668797D01*
X95688500Y-57566009D01*
X95688499Y-56940992D01*
X95677999Y-56838203D01*
X95622814Y-56671666D01*
X95530712Y-56522344D01*
X95406656Y-56398288D01*
X95406549Y-56398181D01*
X95373064Y-56336858D01*
X95378048Y-56267166D01*
X95419920Y-56211233D01*
X95485384Y-56186816D01*
X95494230Y-56186500D01*
X95683686Y-56186500D01*
X95683694Y-56186500D01*
X95720569Y-56183598D01*
X95720571Y-56183597D01*
X95720573Y-56183597D01*
X95802364Y-56159834D01*
X95878398Y-56137744D01*
X96019865Y-56054081D01*
X96136081Y-55937865D01*
X96208768Y-55814956D01*
X96259837Y-55767274D01*
X96328578Y-55754770D01*
X96393168Y-55781415D01*
G37*
%TD.AperFunction*%
%TA.AperFunction,Conductor*%
G36*
X98574922Y-51555280D02*
G01*
X98665266Y-51565459D01*
X98692331Y-51571636D01*
X98771540Y-51599352D01*
X98796553Y-51611398D01*
X98867606Y-51656043D01*
X98889313Y-51673355D01*
X98948644Y-51732686D01*
X98965957Y-51754395D01*
X99010600Y-51825444D01*
X99022648Y-51850462D01*
X99050362Y-51929666D01*
X99056540Y-51956735D01*
X99066720Y-52047076D01*
X99067500Y-52060961D01*
X99067500Y-55240322D01*
X99047815Y-55307361D01*
X98995011Y-55353116D01*
X98925853Y-55363060D01*
X98884078Y-55349157D01*
X98882333Y-55348204D01*
X98747482Y-55297908D01*
X98747483Y-55297908D01*
X98687883Y-55291501D01*
X98687881Y-55291500D01*
X98687873Y-55291500D01*
X98687864Y-55291500D01*
X96892129Y-55291500D01*
X96892123Y-55291501D01*
X96832516Y-55297908D01*
X96697671Y-55348202D01*
X96697664Y-55348206D01*
X96582455Y-55434452D01*
X96582452Y-55434455D01*
X96491766Y-55555596D01*
X96435832Y-55597467D01*
X96366141Y-55602451D01*
X96304818Y-55568965D01*
X96271334Y-55507642D01*
X96268500Y-55481285D01*
X96268500Y-54470313D01*
X96268499Y-54470298D01*
X96265598Y-54433432D01*
X96265597Y-54433426D01*
X96219745Y-54275606D01*
X96219744Y-54275603D01*
X96219744Y-54275602D01*
X96136081Y-54134135D01*
X96136079Y-54134133D01*
X96136076Y-54134129D01*
X96019870Y-54017923D01*
X96019862Y-54017917D01*
X95892840Y-53942797D01*
X95878398Y-53934256D01*
X95878397Y-53934255D01*
X95878396Y-53934255D01*
X95878393Y-53934254D01*
X95720573Y-53888402D01*
X95720567Y-53888401D01*
X95683701Y-53885500D01*
X95683694Y-53885500D01*
X95252306Y-53885500D01*
X95252298Y-53885500D01*
X95215432Y-53888401D01*
X95137983Y-53910902D01*
X95137975Y-53910905D01*
X95057602Y-53934256D01*
X95003098Y-53966489D01*
X95003094Y-53966491D01*
X94916138Y-54017916D01*
X94916129Y-54017923D01*
X94799923Y-54134129D01*
X94799917Y-54134137D01*
X94716255Y-54275603D01*
X94716254Y-54275606D01*
X94670402Y-54433426D01*
X94670401Y-54433432D01*
X94667500Y-54470298D01*
X94667500Y-55601701D01*
X94670401Y-55638567D01*
X94670402Y-55638573D01*
X94716254Y-55796393D01*
X94716255Y-55796396D01*
X94716256Y-55796398D01*
X94727232Y-55814957D01*
X94799917Y-55937862D01*
X94799923Y-55937870D01*
X94890872Y-56028819D01*
X94924357Y-56090142D01*
X94919373Y-56159834D01*
X94877501Y-56215767D01*
X94812037Y-56240184D01*
X94803191Y-56240500D01*
X94225097Y-56240500D01*
X94158058Y-56220815D01*
X94137416Y-56204181D01*
X93304819Y-55371584D01*
X93271334Y-55310261D01*
X93268500Y-55283903D01*
X93268500Y-54470313D01*
X93268499Y-54470298D01*
X93265598Y-54433432D01*
X93265597Y-54433426D01*
X93219745Y-54275606D01*
X93219744Y-54275603D01*
X93219744Y-54275602D01*
X93136081Y-54134135D01*
X93136079Y-54134133D01*
X93136076Y-54134129D01*
X93019870Y-54017923D01*
X93019862Y-54017917D01*
X92892840Y-53942797D01*
X92878398Y-53934256D01*
X92878397Y-53934255D01*
X92878396Y-53934255D01*
X92878393Y-53934254D01*
X92720573Y-53888402D01*
X92720567Y-53888401D01*
X92683701Y-53885500D01*
X92683694Y-53885500D01*
X92252306Y-53885500D01*
X92252298Y-53885500D01*
X92215432Y-53888401D01*
X92137983Y-53910902D01*
X92137975Y-53910905D01*
X92057602Y-53934256D01*
X92003098Y-53966489D01*
X92003094Y-53966491D01*
X91916138Y-54017916D01*
X91916129Y-54017923D01*
X91805681Y-54128372D01*
X91744358Y-54161857D01*
X91674666Y-54156873D01*
X91630319Y-54128372D01*
X91519870Y-54017923D01*
X91519862Y-54017917D01*
X91487262Y-53998637D01*
X91378398Y-53934256D01*
X91298017Y-53910903D01*
X91298015Y-53910902D01*
X91220567Y-53888401D01*
X91183701Y-53885500D01*
X91183694Y-53885500D01*
X90752306Y-53885500D01*
X90752298Y-53885500D01*
X90715432Y-53888401D01*
X90715426Y-53888402D01*
X90557606Y-53934254D01*
X90557603Y-53934255D01*
X90416137Y-54017917D01*
X90416129Y-54017923D01*
X90299923Y-54134129D01*
X90299917Y-54134137D01*
X90216255Y-54275603D01*
X90216254Y-54275606D01*
X90170402Y-54433426D01*
X90170401Y-54433432D01*
X90167500Y-54470298D01*
X90167500Y-55601701D01*
X90170401Y-55638567D01*
X90170402Y-55638573D01*
X90216254Y-55796393D01*
X90216255Y-55796396D01*
X90216256Y-55796398D01*
X90217999Y-55799346D01*
X90250546Y-55854379D01*
X90267729Y-55922103D01*
X90245569Y-55988366D01*
X90191103Y-56032129D01*
X90143814Y-56041500D01*
X89160585Y-56041500D01*
X89093546Y-56021815D01*
X89047791Y-55969011D01*
X89042879Y-55956504D01*
X89006814Y-55847666D01*
X88914712Y-55698344D01*
X88790656Y-55574288D01*
X88641334Y-55482186D01*
X88474797Y-55427001D01*
X88474795Y-55427000D01*
X88372010Y-55416500D01*
X87771998Y-55416500D01*
X87771980Y-55416501D01*
X87669203Y-55427000D01*
X87669200Y-55427001D01*
X87502668Y-55482185D01*
X87502663Y-55482187D01*
X87353342Y-55574289D01*
X87229289Y-55698342D01*
X87137187Y-55847663D01*
X87137185Y-55847668D01*
X87127108Y-55878078D01*
X87082001Y-56014203D01*
X87082001Y-56014204D01*
X87082000Y-56014204D01*
X87071500Y-56116983D01*
X87071500Y-57167001D01*
X87071501Y-57167019D01*
X87082000Y-57269796D01*
X87082001Y-57269799D01*
X87137185Y-57436331D01*
X87137187Y-57436336D01*
X87152691Y-57461472D01*
X87229288Y-57585656D01*
X87353344Y-57709712D01*
X87486045Y-57791562D01*
X87532769Y-57843509D01*
X87543992Y-57912471D01*
X87516149Y-57976553D01*
X87458080Y-58015410D01*
X87420949Y-58021100D01*
X87290030Y-58021100D01*
X87290023Y-58021101D01*
X87230416Y-58027508D01*
X87095571Y-58077802D01*
X87095564Y-58077806D01*
X86980355Y-58164052D01*
X86980352Y-58164055D01*
X86894106Y-58279264D01*
X86894102Y-58279271D01*
X86843810Y-58414113D01*
X86843809Y-58414117D01*
X86837400Y-58473727D01*
X86837400Y-58473734D01*
X86837400Y-58473735D01*
X86837400Y-59128270D01*
X86837401Y-59128276D01*
X86843808Y-59187883D01*
X86886807Y-59303167D01*
X86891791Y-59372859D01*
X86858306Y-59434182D01*
X86796983Y-59467666D01*
X86770625Y-59470500D01*
X85872697Y-59470500D01*
X85805658Y-59450815D01*
X85785016Y-59434181D01*
X83398818Y-57047983D01*
X83365333Y-56986660D01*
X83362499Y-56960302D01*
X83362499Y-56116998D01*
X83362498Y-56116981D01*
X83351999Y-56014203D01*
X83351998Y-56014200D01*
X83332879Y-55956504D01*
X83296814Y-55847666D01*
X83204712Y-55698344D01*
X83137582Y-55631214D01*
X83104097Y-55569891D01*
X83109081Y-55500199D01*
X83137582Y-55455852D01*
X84016616Y-54576818D01*
X84077939Y-54543333D01*
X84104297Y-54540499D01*
X84537002Y-54540499D01*
X84537008Y-54540499D01*
X84639797Y-54529999D01*
X84806334Y-54474814D01*
X84955656Y-54382712D01*
X85002319Y-54336049D01*
X85063642Y-54302564D01*
X85133334Y-54307548D01*
X85177681Y-54336049D01*
X85224344Y-54382712D01*
X85373666Y-54474814D01*
X85540203Y-54529999D01*
X85642991Y-54540500D01*
X86268008Y-54540499D01*
X86268016Y-54540498D01*
X86268019Y-54540498D01*
X86324302Y-54534748D01*
X86370797Y-54529999D01*
X86537334Y-54474814D01*
X86686656Y-54382712D01*
X86780319Y-54289049D01*
X86841642Y-54255564D01*
X86911334Y-54260548D01*
X86955681Y-54289049D01*
X87049344Y-54382712D01*
X87198666Y-54474814D01*
X87365203Y-54529999D01*
X87467991Y-54540500D01*
X88093008Y-54540499D01*
X88093016Y-54540498D01*
X88093019Y-54540498D01*
X88149302Y-54534748D01*
X88195797Y-54529999D01*
X88362334Y-54474814D01*
X88511656Y-54382712D01*
X88635712Y-54258656D01*
X88727814Y-54109334D01*
X88782999Y-53942797D01*
X88793500Y-53840009D01*
X88793499Y-53152533D01*
X91042499Y-53152533D01*
X91068458Y-53283030D01*
X91068461Y-53283040D01*
X91119376Y-53405961D01*
X91119386Y-53405979D01*
X91193301Y-53516601D01*
X91193307Y-53516609D01*
X91287390Y-53610692D01*
X91287398Y-53610698D01*
X91395159Y-53682702D01*
X91395162Y-53682703D01*
X91398031Y-53684620D01*
X91520964Y-53735540D01*
X91573663Y-53746022D01*
X91651466Y-53761500D01*
X91651469Y-53761500D01*
X91784533Y-53761500D01*
X91910377Y-53736467D01*
X91910378Y-53736466D01*
X91915036Y-53735540D01*
X92037969Y-53684620D01*
X92148606Y-53610695D01*
X92242695Y-53516606D01*
X92316620Y-53405969D01*
X92367540Y-53283036D01*
X92383236Y-53204129D01*
X92393500Y-53152533D01*
X94042499Y-53152533D01*
X94068458Y-53283030D01*
X94068461Y-53283040D01*
X94119376Y-53405961D01*
X94119386Y-53405979D01*
X94193301Y-53516601D01*
X94193307Y-53516609D01*
X94287390Y-53610692D01*
X94287398Y-53610698D01*
X94398020Y-53684613D01*
X94398023Y-53684614D01*
X94398031Y-53684620D01*
X94398037Y-53684622D01*
X94398038Y-53684623D01*
X94515517Y-53733284D01*
X94520964Y-53735540D01*
X94520968Y-53735540D01*
X94520969Y-53735541D01*
X94651466Y-53761500D01*
X94651469Y-53761500D01*
X94784533Y-53761500D01*
X94910377Y-53736467D01*
X94910378Y-53736466D01*
X94915036Y-53735540D01*
X95037969Y-53684620D01*
X95148606Y-53610695D01*
X95242695Y-53516606D01*
X95316620Y-53405969D01*
X95367540Y-53283036D01*
X95383236Y-53204129D01*
X95393500Y-53152533D01*
X95393500Y-53019466D01*
X95367541Y-52888969D01*
X95367540Y-52888968D01*
X95367540Y-52888964D01*
X95366939Y-52887512D01*
X95316623Y-52766038D01*
X95316622Y-52766037D01*
X95316620Y-52766031D01*
X95252788Y-52670500D01*
X95242698Y-52655398D01*
X95242692Y-52655390D01*
X95148609Y-52561307D01*
X95148601Y-52561301D01*
X95037979Y-52487386D01*
X95037972Y-52487382D01*
X95037969Y-52487380D01*
X95037965Y-52487378D01*
X95037961Y-52487376D01*
X94915040Y-52436461D01*
X94915030Y-52436458D01*
X94784533Y-52410500D01*
X94784531Y-52410500D01*
X94651469Y-52410500D01*
X94651467Y-52410500D01*
X94520969Y-52436458D01*
X94520959Y-52436461D01*
X94398038Y-52487376D01*
X94398020Y-52487386D01*
X94287398Y-52561301D01*
X94287390Y-52561307D01*
X94193307Y-52655390D01*
X94193301Y-52655398D01*
X94119386Y-52766020D01*
X94119376Y-52766038D01*
X94068461Y-52888959D01*
X94068458Y-52888969D01*
X94042500Y-53019466D01*
X94042500Y-53019469D01*
X94042500Y-53152531D01*
X94042500Y-53152533D01*
X94042499Y-53152533D01*
X92393500Y-53152533D01*
X92393500Y-53019466D01*
X92367541Y-52888969D01*
X92367540Y-52888968D01*
X92367540Y-52888964D01*
X92366939Y-52887512D01*
X92316623Y-52766038D01*
X92316622Y-52766037D01*
X92316620Y-52766031D01*
X92252788Y-52670500D01*
X92242698Y-52655398D01*
X92242692Y-52655390D01*
X92148609Y-52561307D01*
X92148601Y-52561301D01*
X92037979Y-52487386D01*
X92037972Y-52487382D01*
X92037969Y-52487380D01*
X92037965Y-52487378D01*
X92037961Y-52487376D01*
X91915040Y-52436461D01*
X91915030Y-52436458D01*
X91784533Y-52410500D01*
X91784531Y-52410500D01*
X91651469Y-52410500D01*
X91651467Y-52410500D01*
X91520969Y-52436458D01*
X91520959Y-52436461D01*
X91398038Y-52487376D01*
X91398020Y-52487386D01*
X91287398Y-52561301D01*
X91287390Y-52561307D01*
X91193307Y-52655390D01*
X91193301Y-52655398D01*
X91119386Y-52766020D01*
X91119376Y-52766038D01*
X91068461Y-52888959D01*
X91068458Y-52888969D01*
X91042500Y-53019466D01*
X91042500Y-53019469D01*
X91042500Y-53152531D01*
X91042500Y-53152533D01*
X91042499Y-53152533D01*
X88793499Y-53152533D01*
X88793499Y-52839992D01*
X88782999Y-52737203D01*
X88727814Y-52570666D01*
X88635712Y-52421344D01*
X88511656Y-52297288D01*
X88362334Y-52205186D01*
X88195797Y-52150001D01*
X88195795Y-52150000D01*
X88093016Y-52139500D01*
X88093009Y-52139500D01*
X87660297Y-52139500D01*
X87593258Y-52119815D01*
X87572616Y-52103181D01*
X87235616Y-51766181D01*
X87202131Y-51704858D01*
X87207115Y-51635166D01*
X87248987Y-51579233D01*
X87314451Y-51554816D01*
X87323297Y-51554500D01*
X98502108Y-51554500D01*
X98561038Y-51554500D01*
X98574922Y-51555280D01*
G37*
%TD.AperFunction*%
%TD*%
M02*
