%TF.GenerationSoftware,KiCad,Pcbnew,9.0.5*%
%TF.CreationDate,2025-11-16T03:13:01+01:00*%
%TF.ProjectId,LINBoard,4c494e42-6f61-4726-942e-6b696361645f,v1.0*%
%TF.SameCoordinates,Original*%
%TF.FileFunction,Legend,Top*%
%TF.FilePolarity,Positive*%
%FSLAX46Y46*%
G04 Gerber Fmt 4.6, Leading zero omitted, Abs format (unit mm)*
G04 Created by KiCad (PCBNEW 9.0.5) date 2025-11-16 03:13:01*
%MOMM*%
%LPD*%
G01*
G04 APERTURE LIST*
%ADD10C,0.187747*%
%ADD11C,0.150000*%
%ADD12C,0.120000*%
%ADD13C,0.100000*%
%ADD14C,0.152400*%
G04 APERTURE END LIST*
D10*
X81373873Y-58674000D02*
G75*
G02*
X81186127Y-58674000I-93873J0D01*
G01*
X81186127Y-58674000D02*
G75*
G02*
X81373873Y-58674000I93873J0D01*
G01*
D11*
X83145333Y-52194619D02*
X82812000Y-51718428D01*
X82573905Y-52194619D02*
X82573905Y-51194619D01*
X82573905Y-51194619D02*
X82954857Y-51194619D01*
X82954857Y-51194619D02*
X83050095Y-51242238D01*
X83050095Y-51242238D02*
X83097714Y-51289857D01*
X83097714Y-51289857D02*
X83145333Y-51385095D01*
X83145333Y-51385095D02*
X83145333Y-51527952D01*
X83145333Y-51527952D02*
X83097714Y-51623190D01*
X83097714Y-51623190D02*
X83050095Y-51670809D01*
X83050095Y-51670809D02*
X82954857Y-51718428D01*
X82954857Y-51718428D02*
X82573905Y-51718428D01*
X83526286Y-51289857D02*
X83573905Y-51242238D01*
X83573905Y-51242238D02*
X83669143Y-51194619D01*
X83669143Y-51194619D02*
X83907238Y-51194619D01*
X83907238Y-51194619D02*
X84002476Y-51242238D01*
X84002476Y-51242238D02*
X84050095Y-51289857D01*
X84050095Y-51289857D02*
X84097714Y-51385095D01*
X84097714Y-51385095D02*
X84097714Y-51480333D01*
X84097714Y-51480333D02*
X84050095Y-51623190D01*
X84050095Y-51623190D02*
X83478667Y-52194619D01*
X83478667Y-52194619D02*
X84097714Y-52194619D01*
X91463905Y-60525819D02*
X91463905Y-59525819D01*
X91463905Y-59525819D02*
X91702000Y-59525819D01*
X91702000Y-59525819D02*
X91844857Y-59573438D01*
X91844857Y-59573438D02*
X91940095Y-59668676D01*
X91940095Y-59668676D02*
X91987714Y-59763914D01*
X91987714Y-59763914D02*
X92035333Y-59954390D01*
X92035333Y-59954390D02*
X92035333Y-60097247D01*
X92035333Y-60097247D02*
X91987714Y-60287723D01*
X91987714Y-60287723D02*
X91940095Y-60382961D01*
X91940095Y-60382961D02*
X91844857Y-60478200D01*
X91844857Y-60478200D02*
X91702000Y-60525819D01*
X91702000Y-60525819D02*
X91463905Y-60525819D01*
X92987714Y-60525819D02*
X92416286Y-60525819D01*
X92702000Y-60525819D02*
X92702000Y-59525819D01*
X92702000Y-59525819D02*
X92606762Y-59668676D01*
X92606762Y-59668676D02*
X92511524Y-59763914D01*
X92511524Y-59763914D02*
X92416286Y-59811533D01*
X93498200Y-54165332D02*
X93545819Y-54022475D01*
X93545819Y-54022475D02*
X93545819Y-53784380D01*
X93545819Y-53784380D02*
X93498200Y-53689142D01*
X93498200Y-53689142D02*
X93450580Y-53641523D01*
X93450580Y-53641523D02*
X93355342Y-53593904D01*
X93355342Y-53593904D02*
X93260104Y-53593904D01*
X93260104Y-53593904D02*
X93164866Y-53641523D01*
X93164866Y-53641523D02*
X93117247Y-53689142D01*
X93117247Y-53689142D02*
X93069628Y-53784380D01*
X93069628Y-53784380D02*
X93022009Y-53974856D01*
X93022009Y-53974856D02*
X92974390Y-54070094D01*
X92974390Y-54070094D02*
X92926771Y-54117713D01*
X92926771Y-54117713D02*
X92831533Y-54165332D01*
X92831533Y-54165332D02*
X92736295Y-54165332D01*
X92736295Y-54165332D02*
X92641057Y-54117713D01*
X92641057Y-54117713D02*
X92593438Y-54070094D01*
X92593438Y-54070094D02*
X92545819Y-53974856D01*
X92545819Y-53974856D02*
X92545819Y-53736761D01*
X92545819Y-53736761D02*
X92593438Y-53593904D01*
X92545819Y-53260570D02*
X93545819Y-53022475D01*
X93545819Y-53022475D02*
X92831533Y-52831999D01*
X92831533Y-52831999D02*
X93545819Y-52641523D01*
X93545819Y-52641523D02*
X92545819Y-52403428D01*
X93545819Y-51498666D02*
X93545819Y-52070094D01*
X93545819Y-51784380D02*
X92545819Y-51784380D01*
X92545819Y-51784380D02*
X92688676Y-51879618D01*
X92688676Y-51879618D02*
X92783914Y-51974856D01*
X92783914Y-51974856D02*
X92831533Y-52070094D01*
X86955333Y-55401380D02*
X86907714Y-55449000D01*
X86907714Y-55449000D02*
X86764857Y-55496619D01*
X86764857Y-55496619D02*
X86669619Y-55496619D01*
X86669619Y-55496619D02*
X86526762Y-55449000D01*
X86526762Y-55449000D02*
X86431524Y-55353761D01*
X86431524Y-55353761D02*
X86383905Y-55258523D01*
X86383905Y-55258523D02*
X86336286Y-55068047D01*
X86336286Y-55068047D02*
X86336286Y-54925190D01*
X86336286Y-54925190D02*
X86383905Y-54734714D01*
X86383905Y-54734714D02*
X86431524Y-54639476D01*
X86431524Y-54639476D02*
X86526762Y-54544238D01*
X86526762Y-54544238D02*
X86669619Y-54496619D01*
X86669619Y-54496619D02*
X86764857Y-54496619D01*
X86764857Y-54496619D02*
X86907714Y-54544238D01*
X86907714Y-54544238D02*
X86955333Y-54591857D01*
X87907714Y-55496619D02*
X87336286Y-55496619D01*
X87622000Y-55496619D02*
X87622000Y-54496619D01*
X87622000Y-54496619D02*
X87526762Y-54639476D01*
X87526762Y-54639476D02*
X87431524Y-54734714D01*
X87431524Y-54734714D02*
X87336286Y-54782333D01*
X83145333Y-55401380D02*
X83097714Y-55449000D01*
X83097714Y-55449000D02*
X82954857Y-55496619D01*
X82954857Y-55496619D02*
X82859619Y-55496619D01*
X82859619Y-55496619D02*
X82716762Y-55449000D01*
X82716762Y-55449000D02*
X82621524Y-55353761D01*
X82621524Y-55353761D02*
X82573905Y-55258523D01*
X82573905Y-55258523D02*
X82526286Y-55068047D01*
X82526286Y-55068047D02*
X82526286Y-54925190D01*
X82526286Y-54925190D02*
X82573905Y-54734714D01*
X82573905Y-54734714D02*
X82621524Y-54639476D01*
X82621524Y-54639476D02*
X82716762Y-54544238D01*
X82716762Y-54544238D02*
X82859619Y-54496619D01*
X82859619Y-54496619D02*
X82954857Y-54496619D01*
X82954857Y-54496619D02*
X83097714Y-54544238D01*
X83097714Y-54544238D02*
X83145333Y-54591857D01*
X83526286Y-54591857D02*
X83573905Y-54544238D01*
X83573905Y-54544238D02*
X83669143Y-54496619D01*
X83669143Y-54496619D02*
X83907238Y-54496619D01*
X83907238Y-54496619D02*
X84002476Y-54544238D01*
X84002476Y-54544238D02*
X84050095Y-54591857D01*
X84050095Y-54591857D02*
X84097714Y-54687095D01*
X84097714Y-54687095D02*
X84097714Y-54782333D01*
X84097714Y-54782333D02*
X84050095Y-54925190D01*
X84050095Y-54925190D02*
X83478667Y-55496619D01*
X83478667Y-55496619D02*
X84097714Y-55496619D01*
X93291819Y-58332666D02*
X92815628Y-58665999D01*
X93291819Y-58904094D02*
X92291819Y-58904094D01*
X92291819Y-58904094D02*
X92291819Y-58523142D01*
X92291819Y-58523142D02*
X92339438Y-58427904D01*
X92339438Y-58427904D02*
X92387057Y-58380285D01*
X92387057Y-58380285D02*
X92482295Y-58332666D01*
X92482295Y-58332666D02*
X92625152Y-58332666D01*
X92625152Y-58332666D02*
X92720390Y-58380285D01*
X92720390Y-58380285D02*
X92768009Y-58427904D01*
X92768009Y-58427904D02*
X92815628Y-58523142D01*
X92815628Y-58523142D02*
X92815628Y-58904094D01*
X92291819Y-57999332D02*
X92291819Y-57380285D01*
X92291819Y-57380285D02*
X92672771Y-57713618D01*
X92672771Y-57713618D02*
X92672771Y-57570761D01*
X92672771Y-57570761D02*
X92720390Y-57475523D01*
X92720390Y-57475523D02*
X92768009Y-57427904D01*
X92768009Y-57427904D02*
X92863247Y-57380285D01*
X92863247Y-57380285D02*
X93101342Y-57380285D01*
X93101342Y-57380285D02*
X93196580Y-57427904D01*
X93196580Y-57427904D02*
X93244200Y-57475523D01*
X93244200Y-57475523D02*
X93291819Y-57570761D01*
X93291819Y-57570761D02*
X93291819Y-57856475D01*
X93291819Y-57856475D02*
X93244200Y-57951713D01*
X93244200Y-57951713D02*
X93196580Y-57999332D01*
X86701333Y-52194619D02*
X86368000Y-51718428D01*
X86129905Y-52194619D02*
X86129905Y-51194619D01*
X86129905Y-51194619D02*
X86510857Y-51194619D01*
X86510857Y-51194619D02*
X86606095Y-51242238D01*
X86606095Y-51242238D02*
X86653714Y-51289857D01*
X86653714Y-51289857D02*
X86701333Y-51385095D01*
X86701333Y-51385095D02*
X86701333Y-51527952D01*
X86701333Y-51527952D02*
X86653714Y-51623190D01*
X86653714Y-51623190D02*
X86606095Y-51670809D01*
X86606095Y-51670809D02*
X86510857Y-51718428D01*
X86510857Y-51718428D02*
X86129905Y-51718428D01*
X87653714Y-52194619D02*
X87082286Y-52194619D01*
X87368000Y-52194619D02*
X87368000Y-51194619D01*
X87368000Y-51194619D02*
X87272762Y-51337476D01*
X87272762Y-51337476D02*
X87177524Y-51432714D01*
X87177524Y-51432714D02*
X87082286Y-51480333D01*
X84582095Y-60160819D02*
X84582095Y-60970342D01*
X84582095Y-60970342D02*
X84629714Y-61065580D01*
X84629714Y-61065580D02*
X84677333Y-61113200D01*
X84677333Y-61113200D02*
X84772571Y-61160819D01*
X84772571Y-61160819D02*
X84963047Y-61160819D01*
X84963047Y-61160819D02*
X85058285Y-61113200D01*
X85058285Y-61113200D02*
X85105904Y-61065580D01*
X85105904Y-61065580D02*
X85153523Y-60970342D01*
X85153523Y-60970342D02*
X85153523Y-60160819D01*
X86153523Y-61160819D02*
X85582095Y-61160819D01*
X85867809Y-61160819D02*
X85867809Y-60160819D01*
X85867809Y-60160819D02*
X85772571Y-60303676D01*
X85772571Y-60303676D02*
X85677333Y-60398914D01*
X85677333Y-60398914D02*
X85582095Y-60446533D01*
D12*
%TO.C,R2*%
X81612000Y-52340000D02*
X81612000Y-54340000D01*
X81612000Y-54340000D02*
X85012000Y-54340000D01*
X85012000Y-52340000D02*
X81612000Y-52340000D01*
X85012000Y-54340000D02*
X85012000Y-52340000D01*
%TO.C,D1*%
X90564000Y-60776000D02*
X90564000Y-63176000D01*
X90564000Y-63176000D02*
X95364000Y-63176000D01*
X95364000Y-60776000D02*
X90564000Y-60776000D01*
X95364000Y-63176000D02*
X95364000Y-60776000D01*
D13*
X94364000Y-60776000D02*
X93564000Y-60776000D01*
X93564000Y-60476000D01*
X94364000Y-60476000D01*
X94364000Y-60776000D01*
G36*
X94364000Y-60776000D02*
G01*
X93564000Y-60776000D01*
X93564000Y-60476000D01*
X94364000Y-60476000D01*
X94364000Y-60776000D01*
G37*
X94364000Y-63476000D02*
X93564000Y-63476000D01*
X93564000Y-63176000D01*
X94364000Y-63176000D01*
X94364000Y-63476000D01*
G36*
X94364000Y-63476000D02*
G01*
X93564000Y-63476000D01*
X93564000Y-63176000D01*
X94364000Y-63176000D01*
X94364000Y-63476000D01*
G37*
D12*
%TO.C,SW1*%
X89768000Y-53486000D02*
X89768000Y-52686000D01*
X91818000Y-54586000D02*
X91618000Y-54586000D01*
X94818000Y-54586000D02*
X93118000Y-54586000D01*
X96668000Y-53486000D02*
X96668000Y-52686000D01*
%TO.C,C1*%
X85622000Y-57642000D02*
X88622000Y-57642000D01*
X88622000Y-55642000D02*
X85622000Y-55642000D01*
X85622000Y-57642000D02*
G75*
G02*
X85622000Y-55642000I1122254J1000000D01*
G01*
X88622000Y-55642000D02*
G75*
G02*
X88622000Y-57642000I-1122254J-1000000D01*
G01*
%TO.C,C2*%
X81812000Y-57642000D02*
X84812000Y-57642000D01*
X84812000Y-55642000D02*
X81812000Y-55642000D01*
X81812000Y-57642000D02*
G75*
G02*
X81812000Y-55642000I1122254J1000000D01*
G01*
X84812000Y-55642000D02*
G75*
G02*
X84812000Y-57642000I-1122254J-1000000D01*
G01*
%TO.C,R3*%
X93488000Y-56466000D02*
X93488000Y-59866000D01*
X93488000Y-59866000D02*
X95488000Y-59866000D01*
X95488000Y-56466000D02*
X93488000Y-56466000D01*
X95488000Y-59866000D02*
X95488000Y-56466000D01*
%TO.C,J1*%
X96410000Y-55262000D02*
X97790000Y-55262000D01*
X96410000Y-56642000D02*
X96410000Y-55262000D01*
X96410000Y-57912000D02*
X96410000Y-60562000D01*
X96410000Y-57912000D02*
X99170000Y-57912000D01*
X96410000Y-60562000D02*
X99170000Y-60562000D01*
X99170000Y-57912000D02*
X99170000Y-60562000D01*
%TO.C,J2*%
X77360000Y-52722000D02*
X78740000Y-52722000D01*
X77360000Y-54102000D02*
X77360000Y-52722000D01*
X77360000Y-55372000D02*
X77360000Y-63102000D01*
X77360000Y-55372000D02*
X80120000Y-55372000D01*
X77360000Y-63102000D02*
X80120000Y-63102000D01*
X80120000Y-55372000D02*
X80120000Y-63102000D01*
%TO.C,R1*%
X85168000Y-52340000D02*
X85168000Y-54340000D01*
X85168000Y-54340000D02*
X88568000Y-54340000D01*
X88568000Y-52340000D02*
X85168000Y-52340000D01*
X88568000Y-54340000D02*
X88568000Y-52340000D01*
D14*
%TO.C,U1*%
X83223100Y-63334900D02*
X87464900Y-63334900D01*
X87464900Y-58077100D02*
X83223100Y-58077100D01*
%TD*%
M02*
