solid OpenSCAD_Model
  facet normal 0 -1 0
    outer loop
      vertex -28.299999999999997 265.5515517234802 -3
      vertex -26.119379310607926 265.5515517234802 -3
      vertex -12.523162359371781 265.5515517234802 9
    endloop
  endfacet
  facet normal 0 1 0
    outer loop
      vertex -19.87550482749939 272.7350405305624 9
      vertex -18.299999999999997 272.7350405305624 -3
      vertex -19.87550482749939 272.7350405305624 -3
    endloop
  endfacet
  facet normal 1 0 0
    outer loop
      vertex -19.87550482749939 272.7350405305624 9
      vertex -19.87550482749939 272.7350405305624 -3
      vertex -19.87550482749939 290.40925811752675 -3
    endloop
  endfacet
  facet normal 0 -1 0
    outer loop
      vertex -26.119379310607926 265.5515517234802 -3
      vertex -18.299999999999997 265.5515517234802 -3
      vertex -12.523162359371781 265.5515517234802 9
    endloop
  endfacet
  facet normal -1 0 0
    outer loop
      vertex -12.523162359371781 265.5515517234802 9
      vertex -12.523162359371781 265.5515517234802 -3
      vertex -12.523162359371781 260.1 -3
    endloop
  endfacet
  facet normal 0 -1 0
    outer loop
      vertex -12.523162359371781 265.5515517234802 9
      vertex -18.299999999999997 265.5515517234802 -3
      vertex -12.523162359371781 265.5515517234802 -3
    endloop
  endfacet
  facet normal 0 1 0
    outer loop
      vertex -12.642458222061396 272.7350405305624 9
      vertex -12.642458222061396 272.7350405305624 -3
      vertex -18.299999999999997 272.7350405305624 -3
    endloop
  endfacet
  facet normal 0 -1 0
    outer loop
      vertex -12.523162359371781 265.5515517234802 9
      vertex -28.299999999999997 265.5515517234802 9
      vertex -28.299999999999997 265.5515517234802 -3
    endloop
  endfacet
  facet normal 0 0 1
    outer loop
      vertex -19.87550482749939 272.7350405305624 9
      vertex -28.299999999999997 265.5515517234802 9
      vertex -12.523162359371781 265.5515517234802 9
    endloop
  endfacet
  facet normal 0 0 1
    outer loop
      vertex -19.87550482749939 272.7350405305624 9
      vertex -19.87550482749939 290.40925811752675 9
      vertex -28.299999999999997 265.5515517234802 9
    endloop
  endfacet
  facet normal -1 0 0
    outer loop
      vertex -12.523162359371781 265.5515517234802 9
      vertex -12.523162359371781 260.1 -3
      vertex -12.523162359371781 260.1 9
    endloop
  endfacet
  facet normal 0 1 0
    outer loop
      vertex -19.87550482749939 272.7350405305624 9
      vertex -12.642458222061396 272.7350405305624 9
      vertex -18.299999999999997 272.7350405305624 -3
    endloop
  endfacet
  facet normal -1 0 0
    outer loop
      vertex -12.642458222061396 272.7350405305624 9
      vertex -12.642458222061396 283.8706911660731 9
      vertex -12.642458222061396 272.7350405305624 -3
    endloop
  endfacet
  facet normal 0 0 1
    outer loop
      vertex -19.87550482749939 272.7350405305624 9
      vertex -12.523162359371781 265.5515517234802 9
      vertex -12.642458222061396 272.7350405305624 9
    endloop
  endfacet
  facet normal 0 0 1
    outer loop
      vertex -12.523162359371781 265.5515517234802 9
      vertex -6.063788614422084 272.7350405305624 9
      vertex -12.642458222061396 272.7350405305624 9
    endloop
  endfacet
  facet normal 0 0 1
    outer loop
      vertex -12.642458222061396 272.7350405305624 9
      vertex -6.063788614422084 277.92397420704367 9
      vertex -12.642458222061396 283.8706911660731 9
    endloop
  endfacet
  facet normal 0.6705687674730433 0.7418473751990255 0
    outer loop
      vertex -19.87550482749939 290.40925811752675 9
      vertex -19.87550482749939 290.40925811752675 -3
      vertex -28.299999999999997 298.0243060819288 -3
    endloop
  endfacet
  facet normal -1 0 0
    outer loop
      vertex -12.642458222061396 283.8706911660731 9
      vertex -12.642458222061396 283.8706911660731 -3
      vertex -12.642458222061396 272.7350405305624 -3
    endloop
  endfacet
  facet normal 1 0 0
    outer loop
      vertex -19.87550482749939 272.7350405305624 9
      vertex -19.87550482749939 290.40925811752675 -3
      vertex -19.87550482749939 290.40925811752675 9
    endloop
  endfacet
  facet normal 0 0 1
    outer loop
      vertex -19.87550482749939 290.40925811752675 9
      vertex -28.299999999999997 298.0243060819288 9
      vertex -28.299999999999997 265.5515517234802 9
    endloop
  endfacet
  facet normal 0.6705687674730433 0.7418473751990255 2.2875884030459333e-17
    outer loop
      vertex -19.87550482749939 290.40925811752675 9
      vertex -28.299999999999997 298.0243060819288 -3
      vertex -28.299999999999997 298.0243060819288 9
    endloop
  endfacet
  facet normal 0.6705776344659461 0.7418393600733626 0
    outer loop
      vertex -12.642458222061396 283.8706911660731 9
      vertex -6.063788614422084 277.92397420704367 9
      vertex -12.642458222061396 283.8706911660731 -3
    endloop
  endfacet
  facet normal 1 0 0
    outer loop
      vertex -6.063788614422084 265.5515517234802 9
      vertex -6.063788614422084 260.1 -3
      vertex -6.063788614422084 265.5515517234802 -3
    endloop
  endfacet
  facet normal 0 -1 0
    outer loop
      vertex -6.063788614422084 265.5515517234802 9
      vertex -6.063788614422084 265.5515517234802 -3
      vertex 7.550000000000001 265.5515517234802 -3
    endloop
  endfacet
  facet normal 1 0 0
    outer loop
      vertex -6.063788614422084 272.7350405305624 9
      vertex -6.063788614422084 272.7350405305624 -3
      vertex -6.063788614422084 277.92397420704367 -3
    endloop
  endfacet
  facet normal 0 1 0
    outer loop
      vertex -6.063788614422084 272.7350405305624 9
      vertex -0.32367616631090645 272.7350405305624 -3
      vertex -6.063788614422084 272.7350405305624 -3
    endloop
  endfacet
  facet normal 0.6705844099320303 0.7418332354081412 0
    outer loop
      vertex -0.32367616631090645 272.7350405305624 9
      vertex 7.550000000000001 265.617585779325 -3
      vertex -0.32367616631090645 272.7350405305624 -3
    endloop
  endfacet
  facet normal 1 0 0
    outer loop
      vertex -6.063788614422084 265.5515517234802 9
      vertex -6.063788614422084 260.1 9
      vertex -6.063788614422084 260.1 -3
    endloop
  endfacet
  facet normal 0 0 1
    outer loop
      vertex -12.523162359371781 265.5515517234802 9
      vertex -12.523162359371781 260.1 9
      vertex -6.063788614422084 260.1 9
    endloop
  endfacet
  facet normal 0 0 1
    outer loop
      vertex -12.523162359371781 265.5515517234802 9
      vertex -6.063788614422084 260.1 9
      vertex -6.063788614422084 265.5515517234802 9
    endloop
  endfacet
  facet normal 0 0 1
    outer loop
      vertex -12.523162359371781 265.5515517234802 9
      vertex -6.063788614422084 265.5515517234802 9
      vertex -6.063788614422084 272.7350405305624 9
    endloop
  endfacet
  facet normal 1 0 0
    outer loop
      vertex -6.063788614422084 272.7350405305624 9
      vertex -6.063788614422084 277.92397420704367 -3
      vertex -6.063788614422084 277.92397420704367 9
    endloop
  endfacet
  facet normal 0 1 0
    outer loop
      vertex -6.063788614422084 272.7350405305624 9
      vertex -0.32367616631090645 272.7350405305624 9
      vertex -0.32367616631090645 272.7350405305624 -3
    endloop
  endfacet
  facet normal 0 0 1
    outer loop
      vertex -12.642458222061396 272.7350405305624 9
      vertex -6.063788614422084 272.7350405305624 9
      vertex -6.063788614422084 277.92397420704367 9
    endloop
  endfacet
  facet normal 0 0 1
    outer loop
      vertex -6.063788614422084 265.5515517234802 9
      vertex -0.32367616631090645 272.7350405305624 9
      vertex -6.063788614422084 272.7350405305624 9
    endloop
  endfacet
  facet normal 0 -1 0
    outer loop
      vertex -6.063788614422084 265.5515517234802 9
      vertex 7.550000000000001 265.5515517234802 -3
      vertex 7.550000000000001 265.5515517234802 9
    endloop
  endfacet
  facet normal 0.6705844099320303 0.7418332354081412 1.4019999324019637e-17
    outer loop
      vertex -0.32367616631090645 272.7350405305624 9
      vertex 7.550000000000001 265.617585779325 9
      vertex 7.550000000000001 265.617585779325 -3
    endloop
  endfacet
  facet normal 0 0 1
    outer loop
      vertex -6.063788614422084 265.5515517234802 9
      vertex 7.550000000000001 265.617585779325 9
      vertex -0.32367616631090645 272.7350405305624 9
    endloop
  endfacet
  facet normal 0 0 1
    outer loop
      vertex -6.063788614422084 265.5515517234802 9
      vertex 7.550000000000001 265.5515517234802 9
      vertex 7.550000000000001 265.617585779325 9
    endloop
  endfacet
  facet normal 0.6705776344659461 0.7418393600733626 0
    outer loop
      vertex -6.063788614422084 277.92397420704367 9
      vertex -6.063788614422084 277.92397420704367 -3
      vertex -12.642458222061396 283.8706911660731 -3
    endloop
  endfacet
  facet normal 0.9945218953682731 0.10452846326765663 0
    outer loop
      vertex -24.978147600733806 278.79208830918225 7.5
      vertex -24.978147600733806 278.79208830918225 -3
      vertex -25 279 -3
    endloop
  endfacet
  facet normal 0.7431448254773746 0.6691306063588799 0
    outer loop
      vertex -24.66913060635886 278.2568551745226 7.5
      vertex -24.66913060635886 278.2568551745226 -3
      vertex -24.809016994374947 278.41221474770754 -3
    endloop
  endfacet
  facet normal 0.5877852522924792 0.8090169943749431 0
    outer loop
      vertex -24.5 278.1339745962156 7.5
      vertex -24.5 278.1339745962156 -3
      vertex -24.66913060635886 278.2568551745226 -3
    endloop
  endfacet
  facet normal 0.8660254037844018 0.5000000000000638 0
    outer loop
      vertex -24.809016994374947 278.41221474770754 7.5
      vertex -24.809016994374947 278.41221474770754 -3
      vertex -24.913545457642602 278.5932633569242 -3
    endloop
  endfacet
  facet normal 0.951056516295166 0.30901699437490926 0
    outer loop
      vertex -24.913545457642602 278.5932633569242 7.5
      vertex -24.913545457642602 278.5932633569242 -3
      vertex -24.978147600733806 278.79208830918225 -3
    endloop
  endfacet
  facet normal 0.406736643075761 0.9135454576426183 0
    outer loop
      vertex -24.309016994374947 278.0489434837049 7.5
      vertex -24.309016994374947 278.0489434837049 -3
      vertex -24.5 278.1339745962156 -3
    endloop
  endfacet
  facet normal 0.20791169081791774 0.978147600733772 0
    outer loop
      vertex -24.104528463267652 278.0054781046317 7.5
      vertex -24.104528463267652 278.0054781046317 -3
      vertex -24.309016994374947 278.0489434837049 -3
    endloop
  endfacet
  facet normal 0 1 0
    outer loop
      vertex -23.895471536732348 278.0054781046317 7.5
      vertex -23.895471536732348 278.0054781046317 -3
      vertex -24.104528463267652 278.0054781046317 -3
    endloop
  endfacet
  facet normal -0.20791169081791774 0.978147600733772 0
    outer loop
      vertex -23.690983005625053 278.0489434837049 7.5
      vertex -23.690983005625053 278.0489434837049 -3
      vertex -23.895471536732348 278.0054781046317 -3
    endloop
  endfacet
  facet normal -0.406736643075761 0.9135454576426183 0
    outer loop
      vertex -23.5 278.1339745962156 7.5
      vertex -23.5 278.1339745962156 -3
      vertex -23.690983005625053 278.0489434837049 -3
    endloop
  endfacet
  facet normal -0.5877852522924792 0.8090169943749431 0
    outer loop
      vertex -23.33086939364114 278.2568551745226 7.5
      vertex -23.33086939364114 278.2568551745226 -3
      vertex -23.5 278.1339745962156 -3
    endloop
  endfacet
  facet normal -0.7431448254773746 0.6691306063588799 0
    outer loop
      vertex -23.190983005625053 278.41221474770754 7.5
      vertex -23.190983005625053 278.41221474770754 -3
      vertex -23.33086939364114 278.2568551745226 -3
    endloop
  endfacet
  facet normal -0.8660254037844018 0.5000000000000638 0
    outer loop
      vertex -23.086454542357398 278.5932633569242 7.5
      vertex -23.086454542357398 278.5932633569242 -3
      vertex -23.190983005625053 278.41221474770754 -3
    endloop
  endfacet
  facet normal -0.951056516295166 0.30901699437490926 0
    outer loop
      vertex -23.021852399266194 278.79208830918225 7.5
      vertex -23.021852399266194 278.79208830918225 -3
      vertex -23.086454542357398 278.5932633569242 -3
    endloop
  endfacet
  facet normal -0.9945218953682731 0.10452846326765663 0
    outer loop
      vertex -23 279 7.5
      vertex -23 279 -3
      vertex -23.021852399266194 278.79208830918225 -3
    endloop
  endfacet
  facet normal 0.951056516295166 0.30901699437490926 1.2311364861928837e-19
    outer loop
      vertex -24.913545457642602 278.5932633569242 7.5
      vertex -24.978147600733806 278.79208830918225 -3
      vertex -24.978147600733806 278.79208830918225 7.5
    endloop
  endfacet
  facet normal 0.9945218953682731 0.10452846326765663 0
    outer loop
      vertex -25 279 7.5
      vertex -24.978147600733806 278.79208830918225 7.5
      vertex -25 279 -3
    endloop
  endfacet
  facet normal 0.7431448254773746 0.6691306063588799 0
    outer loop
      vertex -24.809016994374947 278.41221474770754 7.5
      vertex -24.66913060635886 278.2568551745226 7.5
      vertex -24.809016994374947 278.41221474770754 -3
    endloop
  endfacet
  facet normal 0.406736643075761 0.9135454576426183 0
    outer loop
      vertex -24.5 278.1339745962156 7.5
      vertex -24.309016994374947 278.0489434837049 7.5
      vertex -24.5 278.1339745962156 -3
    endloop
  endfacet
  facet normal 0.5877852522924792 0.8090169943749431 -1.3628749110496507e-19
    outer loop
      vertex -24.5 278.1339745962156 7.5
      vertex -24.66913060635886 278.2568551745226 -3
      vertex -24.66913060635886 278.2568551745226 7.5
    endloop
  endfacet
  facet normal 0.8660254037844018 0.5000000000000638 -1.1781572915727513e-19
    outer loop
      vertex -24.809016994374947 278.41221474770754 7.5
      vertex -24.913545457642602 278.5932633569242 -3
      vertex -24.913545457642602 278.5932633569242 7.5
    endloop
  endfacet
  facet normal 0.20791169081791774 0.978147600733772 -1.217407992533271e-19
    outer loop
      vertex -24.104528463267652 278.0054781046317 7.5
      vertex -24.309016994374947 278.0489434837049 -3
      vertex -24.309016994374947 278.0489434837049 7.5
    endloop
  endfacet
  facet normal 0 1 0
    outer loop
      vertex -24.104528463267652 278.0054781046317 7.5
      vertex -23.895471536732348 278.0054781046317 7.5
      vertex -24.104528463267652 278.0054781046317 -3
    endloop
  endfacet
  facet normal -0.20791169081791774 0.978147600733772 0
    outer loop
      vertex -23.895471536732348 278.0054781046317 7.5
      vertex -23.690983005625053 278.0489434837049 7.5
      vertex -23.895471536732348 278.0054781046317 -3
    endloop
  endfacet
  facet normal -0.406736643075761 0.9135454576426183 0
    outer loop
      vertex -23.690983005625053 278.0489434837049 7.5
      vertex -23.5 278.1339745962156 7.5
      vertex -23.690983005625053 278.0489434837049 -3
    endloop
  endfacet
  facet normal -0.5877852522924792 0.8090169943749431 0
    outer loop
      vertex -23.5 278.1339745962156 7.5
      vertex -23.33086939364114 278.2568551745226 7.5
      vertex -23.5 278.1339745962156 -3
    endloop
  endfacet
  facet normal -0.7431448254773746 0.6691306063588799 0
    outer loop
      vertex -23.33086939364114 278.2568551745226 7.5
      vertex -23.190983005625053 278.41221474770754 7.5
      vertex -23.33086939364114 278.2568551745226 -3
    endloop
  endfacet
  facet normal -0.8660254037844018 0.5000000000000638 0
    outer loop
      vertex -23.190983005625053 278.41221474770754 7.5
      vertex -23.086454542357398 278.5932633569242 7.5
      vertex -23.190983005625053 278.41221474770754 -3
    endloop
  endfacet
  facet normal -0.951056516295166 0.30901699437490926 0
    outer loop
      vertex -23.086454542357398 278.5932633569242 7.5
      vertex -23.021852399266194 278.79208830918225 7.5
      vertex -23.086454542357398 278.5932633569242 -3
    endloop
  endfacet
  facet normal -0.9945218953682731 0.10452846326765663 0
    outer loop
      vertex -23.021852399266194 278.79208830918225 7.5
      vertex -23 279 7.5
      vertex -23.021852399266194 278.79208830918225 -3
    endloop
  endfacet
  facet normal 0 0 -1
    outer loop
      vertex -24.913545457642602 278.5932633569242 7.5
      vertex -24.978147600733806 278.79208830918225 7.5
      vertex -24.978147600733806 279.20791169081775 7.5
    endloop
  endfacet
  facet normal 0 0 -1
    outer loop
      vertex -25 279 7.5
      vertex -24.978147600733806 279.20791169081775 7.5
      vertex -24.978147600733806 278.79208830918225 7.5
    endloop
  endfacet
  facet normal 0 0 -1
    outer loop
      vertex -24.809016994374947 278.41221474770754 7.5
      vertex -24.809016994374947 279.58778525229246 7.5
      vertex -24.66913060635886 278.2568551745226 7.5
    endloop
  endfacet
  facet normal 0 0 -1
    outer loop
      vertex -24.809016994374947 278.41221474770754 7.5
      vertex -24.913545457642602 278.5932633569242 7.5
      vertex -24.913545457642602 279.4067366430758 7.5
    endloop
  endfacet
  facet normal 0 0 -1
    outer loop
      vertex -24.5 278.1339745962156 7.5
      vertex -24.66913060635886 278.2568551745226 7.5
      vertex -24.66913060635886 279.7431448254774 7.5
    endloop
  endfacet
  facet normal 0 0 -1
    outer loop
      vertex -24.5 278.1339745962156 7.5
      vertex -24.5 279.8660254037844 7.5
      vertex -24.309016994374947 278.0489434837049 7.5
    endloop
  endfacet
  facet normal 0 0 -1
    outer loop
      vertex -24.104528463267652 278.0054781046317 7.5
      vertex -24.309016994374947 278.0489434837049 7.5
      vertex -24.309016994374947 279.9510565162951 7.5
    endloop
  endfacet
  facet normal 0 0 -1
    outer loop
      vertex -24.104528463267652 278.0054781046317 7.5
      vertex -24.104528463267652 279.9945218953683 7.5
      vertex -23.895471536732348 278.0054781046317 7.5
    endloop
  endfacet
  facet normal 0 0 -1
    outer loop
      vertex -23.895471536732348 278.0054781046317 7.5
      vertex -23.895471536732348 279.9945218953683 7.5
      vertex -23.690983005625053 278.0489434837049 7.5
    endloop
  endfacet
  facet normal 0 0 -1
    outer loop
      vertex -23.690983005625053 278.0489434837049 7.5
      vertex -23.690983005625053 279.9510565162951 7.5
      vertex -23.5 278.1339745962156 7.5
    endloop
  endfacet
  facet normal 0 0 -1
    outer loop
      vertex -23.5 278.1339745962156 7.5
      vertex -23.5 279.8660254037844 7.5
      vertex -23.33086939364114 278.2568551745226 7.5
    endloop
  endfacet
  facet normal 0 0 -1
    outer loop
      vertex -23.33086939364114 278.2568551745226 7.5
      vertex -23.33086939364114 279.7431448254774 7.5
      vertex -23.190983005625053 278.41221474770754 7.5
    endloop
  endfacet
  facet normal 0 0 -1
    outer loop
      vertex -23.190983005625053 278.41221474770754 7.5
      vertex -23.190983005625053 279.58778525229246 7.5
      vertex -23.086454542357398 278.5932633569242 7.5
    endloop
  endfacet
  facet normal 0 0 -1
    outer loop
      vertex -23.086454542357398 278.5932633569242 7.5
      vertex -23.086454542357398 279.4067366430758 7.5
      vertex -23.021852399266194 278.79208830918225 7.5
    endloop
  endfacet
  facet normal 0 0 -1
    outer loop
      vertex -23.021852399266194 278.79208830918225 7.5
      vertex -23.021852399266194 279.20791169081775 7.5
      vertex -23 279 7.5
    endloop
  endfacet
  facet normal 0.9945218953682731 -0.10452846326765663 0
    outer loop
      vertex -25 279 7.5
      vertex -25 279 -3
      vertex -24.978147600733806 279.20791169081775 -3
    endloop
  endfacet
  facet normal 0.951056516295166 -0.30901699437490926 0
    outer loop
      vertex -24.978147600733806 279.20791169081775 7.5
      vertex -24.978147600733806 279.20791169081775 -3
      vertex -24.913545457642602 279.4067366430758 -3
    endloop
  endfacet
  facet normal 0.8660254037844018 -0.5000000000000638 0
    outer loop
      vertex -24.913545457642602 279.4067366430758 7.5
      vertex -24.913545457642602 279.4067366430758 -3
      vertex -24.809016994374947 279.58778525229246 -3
    endloop
  endfacet
  facet normal 0.7431448254773746 -0.6691306063588799 0
    outer loop
      vertex -24.809016994374947 279.58778525229246 7.5
      vertex -24.809016994374947 279.58778525229246 -3
      vertex -24.66913060635886 279.7431448254774 -3
    endloop
  endfacet
  facet normal 0.5877852522924792 -0.8090169943749431 0
    outer loop
      vertex -24.66913060635886 279.7431448254774 7.5
      vertex -24.66913060635886 279.7431448254774 -3
      vertex -24.5 279.8660254037844 -3
    endloop
  endfacet
  facet normal 0.406736643075761 -0.9135454576426183 0
    outer loop
      vertex -24.5 279.8660254037844 7.5
      vertex -24.5 279.8660254037844 -3
      vertex -24.309016994374947 279.9510565162951 -3
    endloop
  endfacet
  facet normal 0.20791169081791774 -0.978147600733772 0
    outer loop
      vertex -24.309016994374947 279.9510565162951 7.5
      vertex -24.309016994374947 279.9510565162951 -3
      vertex -24.104528463267652 279.9945218953683 -3
    endloop
  endfacet
  facet normal 0 -1 0
    outer loop
      vertex -24.104528463267652 279.9945218953683 7.5
      vertex -24.104528463267652 279.9945218953683 -3
      vertex -23.895471536732348 279.9945218953683 -3
    endloop
  endfacet
  facet normal -0.20791169081791774 -0.978147600733772 0
    outer loop
      vertex -23.895471536732348 279.9945218953683 7.5
      vertex -23.895471536732348 279.9945218953683 -3
      vertex -23.690983005625053 279.9510565162951 -3
    endloop
  endfacet
  facet normal -0.406736643075761 -0.9135454576426183 0
    outer loop
      vertex -23.690983005625053 279.9510565162951 7.5
      vertex -23.690983005625053 279.9510565162951 -3
      vertex -23.5 279.8660254037844 -3
    endloop
  endfacet
  facet normal -0.5877852522924792 -0.8090169943749431 0
    outer loop
      vertex -23.5 279.8660254037844 7.5
      vertex -23.5 279.8660254037844 -3
      vertex -23.33086939364114 279.7431448254774 -3
    endloop
  endfacet
  facet normal -0.7431448254773746 -0.6691306063588799 0
    outer loop
      vertex -23.33086939364114 279.7431448254774 7.5
      vertex -23.33086939364114 279.7431448254774 -3
      vertex -23.190983005625053 279.58778525229246 -3
    endloop
  endfacet
  facet normal -0.9945218953682731 -0.10452846326765663 0
    outer loop
      vertex -23.021852399266194 279.20791169081775 7.5
      vertex -23.021852399266194 279.20791169081775 -3
      vertex -23 279 -3
    endloop
  endfacet
  facet normal -0.951056516295166 -0.30901699437490926 0
    outer loop
      vertex -23.086454542357398 279.4067366430758 7.5
      vertex -23.086454542357398 279.4067366430758 -3
      vertex -23.021852399266194 279.20791169081775 -3
    endloop
  endfacet
  facet normal -0.8660254037844018 -0.5000000000000638 0
    outer loop
      vertex -23.190983005625053 279.58778525229246 7.5
      vertex -23.190983005625053 279.58778525229246 -3
      vertex -23.086454542357398 279.4067366430758 -3
    endloop
  endfacet
  facet normal 0.9945218953682731 -0.10452846326765663 -3.957669095329496e-20
    outer loop
      vertex -25 279 7.5
      vertex -24.978147600733806 279.20791169081775 -3
      vertex -24.978147600733806 279.20791169081775 7.5
    endloop
  endfacet
  facet normal 0.951056516295166 -0.30901699437490926 -1.2311364861928837e-19
    outer loop
      vertex -24.978147600733806 279.20791169081775 7.5
      vertex -24.913545457642602 279.4067366430758 -3
      vertex -24.913545457642602 279.4067366430758 7.5
    endloop
  endfacet
  facet normal 0.8660254037844018 -0.5000000000000638 1.1781572915727513e-19
    outer loop
      vertex -24.913545457642602 279.4067366430758 7.5
      vertex -24.809016994374947 279.58778525229246 -3
      vertex -24.809016994374947 279.58778525229246 7.5
    endloop
  endfacet
  facet normal 0.7431448254773746 -0.6691306063588799 -1.5405925896196093e-19
    outer loop
      vertex -24.809016994374947 279.58778525229246 7.5
      vertex -24.66913060635886 279.7431448254774 -3
      vertex -24.66913060635886 279.7431448254774 7.5
    endloop
  endfacet
  facet normal 0.5877852522924792 -0.8090169943749431 1.3628749110496507e-19
    outer loop
      vertex -24.66913060635886 279.7431448254774 7.5
      vertex -24.5 279.8660254037844 -3
      vertex -24.5 279.8660254037844 7.5
    endloop
  endfacet
  facet normal 0.406736643075761 -0.9135454576426183 6.732427424072491e-19
    outer loop
      vertex -24.5 279.8660254037844 7.5
      vertex -24.309016994374947 279.9510565162951 -3
      vertex -24.309016994374947 279.9510565162951 7.5
    endloop
  endfacet
  facet normal 0.20791169081791774 -0.978147600733772 1.217407992533271e-19
    outer loop
      vertex -24.309016994374947 279.9510565162951 7.5
      vertex -24.104528463267652 279.9945218953683 -3
      vertex -24.104528463267652 279.9945218953683 7.5
    endloop
  endfacet
  facet normal 0 -1 0
    outer loop
      vertex -24.104528463267652 279.9945218953683 7.5
      vertex -23.895471536732348 279.9945218953683 -3
      vertex -23.895471536732348 279.9945218953683 7.5
    endloop
  endfacet
  facet normal -0.406736643075761 -0.9135454576426183 0
    outer loop
      vertex -23.5 279.8660254037844 7.5
      vertex -23.690983005625053 279.9510565162951 7.5
      vertex -23.5 279.8660254037844 -3
    endloop
  endfacet
  facet normal -0.20791169081791774 -0.978147600733772 -1.217407992533271e-19
    outer loop
      vertex -23.895471536732348 279.9945218953683 7.5
      vertex -23.690983005625053 279.9510565162951 -3
      vertex -23.690983005625053 279.9510565162951 7.5
    endloop
  endfacet
  facet normal -0.5877852522924792 -0.8090169943749431 -1.3628749110496507e-19
    outer loop
      vertex -23.5 279.8660254037844 7.5
      vertex -23.33086939364114 279.7431448254774 -3
      vertex -23.33086939364114 279.7431448254774 7.5
    endloop
  endfacet
  facet normal -0.9945218953682731 -0.10452846326765663 0
    outer loop
      vertex -23 279 7.5
      vertex -23.021852399266194 279.20791169081775 7.5
      vertex -23 279 -3
    endloop
  endfacet
  facet normal -0.951056516295166 -0.30901699437490926 0
    outer loop
      vertex -23.021852399266194 279.20791169081775 7.5
      vertex -23.086454542357398 279.4067366430758 7.5
      vertex -23.021852399266194 279.20791169081775 -3
    endloop
  endfacet
  facet normal -0.8660254037844018 -0.5000000000000638 0
    outer loop
      vertex -23.086454542357398 279.4067366430758 7.5
      vertex -23.190983005625053 279.58778525229246 7.5
      vertex -23.086454542357398 279.4067366430758 -3
    endloop
  endfacet
  facet normal -0.7431448254773746 -0.6691306063588799 0
    outer loop
      vertex -23.190983005625053 279.58778525229246 7.5
      vertex -23.33086939364114 279.7431448254774 7.5
      vertex -23.190983005625053 279.58778525229246 -3
    endloop
  endfacet
  facet normal 0 0 -1
    outer loop
      vertex -24.913545457642602 278.5932633569242 7.5
      vertex -24.978147600733806 279.20791169081775 7.5
      vertex -24.913545457642602 279.4067366430758 7.5
    endloop
  endfacet
  facet normal 0 0 -1
    outer loop
      vertex -24.809016994374947 278.41221474770754 7.5
      vertex -24.913545457642602 279.4067366430758 7.5
      vertex -24.809016994374947 279.58778525229246 7.5
    endloop
  endfacet
  facet normal 0 0 -1
    outer loop
      vertex -24.66913060635886 278.2568551745226 7.5
      vertex -24.809016994374947 279.58778525229246 7.5
      vertex -24.66913060635886 279.7431448254774 7.5
    endloop
  endfacet
  facet normal 0 0 -1
    outer loop
      vertex -24.5 278.1339745962156 7.5
      vertex -24.66913060635886 279.7431448254774 7.5
      vertex -24.5 279.8660254037844 7.5
    endloop
  endfacet
  facet normal 0 0 -1
    outer loop
      vertex -24.309016994374947 278.0489434837049 7.5
      vertex -24.5 279.8660254037844 7.5
      vertex -24.309016994374947 279.9510565162951 7.5
    endloop
  endfacet
  facet normal 0 0 -1
    outer loop
      vertex -24.104528463267652 278.0054781046317 7.5
      vertex -24.309016994374947 279.9510565162951 7.5
      vertex -24.104528463267652 279.9945218953683 7.5
    endloop
  endfacet
  facet normal 0 0 -1
    outer loop
      vertex -24.104528463267652 279.9945218953683 7.5
      vertex -23.895471536732348 279.9945218953683 7.5
      vertex -23.895471536732348 278.0054781046317 7.5
    endloop
  endfacet
  facet normal 0 0 -1
    outer loop
      vertex -23.690983005625053 278.0489434837049 7.5
      vertex -23.895471536732348 279.9945218953683 7.5
      vertex -23.690983005625053 279.9510565162951 7.5
    endloop
  endfacet
  facet normal 0 0 -1
    outer loop
      vertex -23.5 278.1339745962156 7.5
      vertex -23.690983005625053 279.9510565162951 7.5
      vertex -23.5 279.8660254037844 7.5
    endloop
  endfacet
  facet normal 0 0 -1
    outer loop
      vertex -23.33086939364114 278.2568551745226 7.5
      vertex -23.5 279.8660254037844 7.5
      vertex -23.33086939364114 279.7431448254774 7.5
    endloop
  endfacet
  facet normal 0 0 -1
    outer loop
      vertex -23.086454542357398 278.5932633569242 7.5
      vertex -23.190983005625053 279.58778525229246 7.5
      vertex -23.086454542357398 279.4067366430758 7.5
    endloop
  endfacet
  facet normal 0 0 -1
    outer loop
      vertex -23.190983005625053 278.41221474770754 7.5
      vertex -23.33086939364114 279.7431448254774 7.5
      vertex -23.190983005625053 279.58778525229246 7.5
    endloop
  endfacet
  facet normal 0 0 -1
    outer loop
      vertex -23.021852399266194 278.79208830918225 7.5
      vertex -23.086454542357398 279.4067366430758 7.5
      vertex -23.021852399266194 279.20791169081775 7.5
    endloop
  endfacet
  facet normal 0.7431448254773746 0.6691306063588799 0
    outer loop
      vertex -9.66913060635886 268.2568551745226 7.5
      vertex -9.66913060635886 268.2568551745226 -3
      vertex -9.809016994374947 268.41221474770754 -3
    endloop
  endfacet
  facet normal 0.5877852522924792 0.8090169943749431 0
    outer loop
      vertex -9.5 268.1339745962156 7.5
      vertex -9.5 268.1339745962156 -3
      vertex -9.66913060635886 268.2568551745226 -3
    endloop
  endfacet
  facet normal 0.406736643075761 0.9135454576426183 0
    outer loop
      vertex -9.309016994374947 268.0489434837049 7.5
      vertex -9.309016994374947 268.0489434837049 -3
      vertex -9.5 268.1339745962156 -3
    endloop
  endfacet
  facet normal 0.8660254037844055 0.5000000000000575 0
    outer loop
      vertex -9.809016994374947 268.41221474770754 7.5
      vertex -9.809016994374947 268.41221474770754 -3
      vertex -9.9135454576426 268.5932633569242 -3
    endloop
  endfacet
  facet normal 0.9510565162951635 0.3090169943749169 0
    outer loop
      vertex -9.9135454576426 268.5932633569242 7.5
      vertex -9.9135454576426 268.5932633569242 -3
      vertex -9.978147600733806 268.79208830918225 -3
    endloop
  endfacet
  facet normal 0.9945218953682731 0.10452846326765663 0
    outer loop
      vertex -9.978147600733806 268.79208830918225 7.5
      vertex -9.978147600733806 268.79208830918225 -3
      vertex -10 269 -3
    endloop
  endfacet
  facet normal 0.9945218953682731 -0.10452846326765663 0
    outer loop
      vertex -10 269 7.5
      vertex -10 269 -3
      vertex -9.978147600733806 269.20791169081775 -3
    endloop
  endfacet
  facet normal 0.9510565162951635 -0.3090169943749169 0
    outer loop
      vertex -9.978147600733806 269.20791169081775 7.5
      vertex -9.978147600733806 269.20791169081775 -3
      vertex -9.9135454576426 269.4067366430758 -3
    endloop
  endfacet
  facet normal 0.8660254037844055 -0.5000000000000575 0
    outer loop
      vertex -9.9135454576426 269.4067366430758 7.5
      vertex -9.9135454576426 269.4067366430758 -3
      vertex -9.809016994374947 269.58778525229246 -3
    endloop
  endfacet
  facet normal 0.20791169081791946 0.9781476007337717 0
    outer loop
      vertex -9.104528463267654 268.0054781046317 7.5
      vertex -9.104528463267654 268.0054781046317 -3
      vertex -9.309016994374947 268.0489434837049 -3
    endloop
  endfacet
  facet normal 0 1 0
    outer loop
      vertex -8.895471536732346 268.0054781046317 7.5
      vertex -8.895471536732346 268.0054781046317 -3
      vertex -9.104528463267654 268.0054781046317 -3
    endloop
  endfacet
  facet normal -0.20791169081791946 0.9781476007337717 0
    outer loop
      vertex -8.690983005625053 268.0489434837049 7.5
      vertex -8.690983005625053 268.0489434837049 -3
      vertex -8.895471536732346 268.0054781046317 -3
    endloop
  endfacet
  facet normal -0.406736643075761 0.9135454576426183 0
    outer loop
      vertex -8.5 268.1339745962156 7.5
      vertex -8.5 268.1339745962156 -3
      vertex -8.690983005625053 268.0489434837049 -3
    endloop
  endfacet
  facet normal -0.5877852522924792 0.8090169943749431 0
    outer loop
      vertex -8.33086939364114 268.2568551745226 7.5
      vertex -8.33086939364114 268.2568551745226 -3
      vertex -8.5 268.1339745962156 -3
    endloop
  endfacet
  facet normal -0.7431448254773746 0.6691306063588799 0
    outer loop
      vertex -8.190983005625053 268.41221474770754 7.5
      vertex -8.190983005625053 268.41221474770754 -3
      vertex -8.33086939364114 268.2568551745226 -3
    endloop
  endfacet
  facet normal -0.8660254037844055 -0.5000000000000575 0
    outer loop
      vertex -8.190983005625053 269.58778525229246 7.5
      vertex -8.190983005625053 269.58778525229246 -3
      vertex -8.0864545423574 269.4067366430758 -3
    endloop
  endfacet
  facet normal -0.8660254037844055 0.5000000000000575 0
    outer loop
      vertex -8.0864545423574 268.5932633569242 7.5
      vertex -8.0864545423574 268.5932633569242 -3
      vertex -8.190983005625053 268.41221474770754 -3
    endloop
  endfacet
  facet normal -0.9510565162951635 0.3090169943749169 0
    outer loop
      vertex -8.021852399266194 268.79208830918225 7.5
      vertex -8.021852399266194 268.79208830918225 -3
      vertex -8.0864545423574 268.5932633569242 -3
    endloop
  endfacet
  facet normal -0.9945218953682731 0.10452846326765663 0
    outer loop
      vertex -8 269 7.5
      vertex -8 269 -3
      vertex -8.021852399266194 268.79208830918225 -3
    endloop
  endfacet
  facet normal -0.9945218953682731 -0.10452846326765663 0
    outer loop
      vertex -8.021852399266194 269.20791169081775 7.5
      vertex -8.021852399266194 269.20791169081775 -3
      vertex -8 269 -3
    endloop
  endfacet
  facet normal -0.9510565162951635 -0.3090169943749169 0
    outer loop
      vertex -8.0864545423574 269.4067366430758 7.5
      vertex -8.0864545423574 269.4067366430758 -3
      vertex -8.021852399266194 269.20791169081775 -3
    endloop
  endfacet
  facet normal 0.7431448254773746 -0.6691306063588799 0
    outer loop
      vertex -9.809016994374947 269.58778525229246 7.5
      vertex -9.809016994374947 269.58778525229246 -3
      vertex -9.66913060635886 269.7431448254774 -3
    endloop
  endfacet
  facet normal 0.5877852522924792 -0.8090169943749431 0
    outer loop
      vertex -9.66913060635886 269.7431448254774 7.5
      vertex -9.66913060635886 269.7431448254774 -3
      vertex -9.5 269.8660254037844 -3
    endloop
  endfacet
  facet normal 0.406736643075761 -0.9135454576426183 0
    outer loop
      vertex -9.5 269.8660254037844 7.5
      vertex -9.5 269.8660254037844 -3
      vertex -9.309016994374947 269.9510565162951 -3
    endloop
  endfacet
  facet normal 0.20791169081791946 -0.9781476007337717 0
    outer loop
      vertex -9.309016994374947 269.9510565162951 7.5
      vertex -9.309016994374947 269.9510565162951 -3
      vertex -9.104528463267654 269.9945218953683 -3
    endloop
  endfacet
  facet normal 0 -1 0
    outer loop
      vertex -9.104528463267654 269.9945218953683 7.5
      vertex -9.104528463267654 269.9945218953683 -3
      vertex -8.895471536732346 269.9945218953683 -3
    endloop
  endfacet
  facet normal -0.20791169081791946 -0.9781476007337717 0
    outer loop
      vertex -8.895471536732346 269.9945218953683 7.5
      vertex -8.895471536732346 269.9945218953683 -3
      vertex -8.690983005625053 269.9510565162951 -3
    endloop
  endfacet
  facet normal -0.5877852522924792 -0.8090169943749431 0
    outer loop
      vertex -8.5 269.8660254037844 7.5
      vertex -8.5 269.8660254037844 -3
      vertex -8.33086939364114 269.7431448254774 -3
    endloop
  endfacet
  facet normal -0.406736643075761 -0.9135454576426183 0
    outer loop
      vertex -8.690983005625053 269.9510565162951 7.5
      vertex -8.690983005625053 269.9510565162951 -3
      vertex -8.5 269.8660254037844 -3
    endloop
  endfacet
  facet normal -0.7431448254773746 -0.6691306063588799 0
    outer loop
      vertex -8.33086939364114 269.7431448254774 7.5
      vertex -8.33086939364114 269.7431448254774 -3
      vertex -8.190983005625053 269.58778525229246 -3
    endloop
  endfacet
  facet normal 0.7431448254773746 0.6691306063588799 0
    outer loop
      vertex -9.809016994374947 268.41221474770754 7.5
      vertex -9.66913060635886 268.2568551745226 7.5
      vertex -9.809016994374947 268.41221474770754 -3
    endloop
  endfacet
  facet normal 0.5877852522924792 0.8090169943749431 -1.3628749110496507e-19
    outer loop
      vertex -9.5 268.1339745962156 7.5
      vertex -9.66913060635886 268.2568551745226 -3
      vertex -9.66913060635886 268.2568551745226 7.5
    endloop
  endfacet
  facet normal 0.406736643075761 0.9135454576426183 0
    outer loop
      vertex -9.5 268.1339745962156 7.5
      vertex -9.309016994374947 268.0489434837049 7.5
      vertex -9.5 268.1339745962156 -3
    endloop
  endfacet
  facet normal 0.8660254037844055 0.5000000000000575 -5.9689749033938965e-19
    outer loop
      vertex -9.809016994374947 268.41221474770754 7.5
      vertex -9.9135454576426 268.5932633569242 -3
      vertex -9.9135454576426 268.5932633569242 7.5
    endloop
  endfacet
  facet normal 0.9510565162951635 0.3090169943749169 -3.4848182991080877e-19
    outer loop
      vertex -9.9135454576426 268.5932633569242 7.5
      vertex -9.978147600733806 268.79208830918225 -3
      vertex -9.978147600733806 268.79208830918225 7.5
    endloop
  endfacet
  facet normal 0.9945218953682731 0.10452846326765663 3.957669095329496e-20
    outer loop
      vertex -9.978147600733806 268.79208830918225 7.5
      vertex -10 269 -3
      vertex -10 269 7.5
    endloop
  endfacet
  facet normal 0.9945218953682731 -0.10452846326765663 -3.957669095329496e-20
    outer loop
      vertex -10 269 7.5
      vertex -9.978147600733806 269.20791169081775 -3
      vertex -9.978147600733806 269.20791169081775 7.5
    endloop
  endfacet
  facet normal 0.9510565162951635 -0.3090169943749169 3.4848182991080877e-19
    outer loop
      vertex -9.978147600733806 269.20791169081775 7.5
      vertex -9.9135454576426 269.4067366430758 -3
      vertex -9.9135454576426 269.4067366430758 7.5
    endloop
  endfacet
  facet normal 0.8660254037844055 -0.5000000000000575 5.9689749033938965e-19
    outer loop
      vertex -9.9135454576426 269.4067366430758 7.5
      vertex -9.809016994374947 269.58778525229246 -3
      vertex -9.809016994374947 269.58778525229246 7.5
    endloop
  endfacet
  facet normal 0.20791169081791946 0.9781476007337717 0
    outer loop
      vertex -9.309016994374947 268.0489434837049 7.5
      vertex -9.104528463267654 268.0054781046317 7.5
      vertex -9.309016994374947 268.0489434837049 -3
    endloop
  endfacet
  facet normal 0 1 0
    outer loop
      vertex -9.104528463267654 268.0054781046317 7.5
      vertex -8.895471536732346 268.0054781046317 7.5
      vertex -9.104528463267654 268.0054781046317 -3
    endloop
  endfacet
  facet normal -0.20791169081791946 0.9781476007337717 0
    outer loop
      vertex -8.895471536732346 268.0054781046317 7.5
      vertex -8.690983005625053 268.0489434837049 7.5
      vertex -8.895471536732346 268.0054781046317 -3
    endloop
  endfacet
  facet normal -0.406736643075761 0.9135454576426183 0
    outer loop
      vertex -8.690983005625053 268.0489434837049 7.5
      vertex -8.5 268.1339745962156 7.5
      vertex -8.690983005625053 268.0489434837049 -3
    endloop
  endfacet
  facet normal -0.5877852522924792 0.8090169943749431 0
    outer loop
      vertex -8.5 268.1339745962156 7.5
      vertex -8.33086939364114 268.2568551745226 7.5
      vertex -8.5 268.1339745962156 -3
    endloop
  endfacet
  facet normal -0.7431448254773746 0.6691306063588799 0
    outer loop
      vertex -8.33086939364114 268.2568551745226 7.5
      vertex -8.190983005625053 268.41221474770754 7.5
      vertex -8.33086939364114 268.2568551745226 -3
    endloop
  endfacet
  facet normal -0.8660254037844055 0.5000000000000575 0
    outer loop
      vertex -8.190983005625053 268.41221474770754 7.5
      vertex -8.0864545423574 268.5932633569242 7.5
      vertex -8.190983005625053 268.41221474770754 -3
    endloop
  endfacet
  facet normal -0.9510565162951635 0.3090169943749169 0
    outer loop
      vertex -8.0864545423574 268.5932633569242 7.5
      vertex -8.021852399266194 268.79208830918225 7.5
      vertex -8.0864545423574 268.5932633569242 -3
    endloop
  endfacet
  facet normal -0.9945218953682731 0.10452846326765663 0
    outer loop
      vertex -8.021852399266194 268.79208830918225 7.5
      vertex -8 269 7.5
      vertex -8.021852399266194 268.79208830918225 -3
    endloop
  endfacet
  facet normal -0.9945218953682731 -0.10452846326765663 0
    outer loop
      vertex -8 269 7.5
      vertex -8.021852399266194 269.20791169081775 7.5
      vertex -8 269 -3
    endloop
  endfacet
  facet normal -0.9510565162951635 -0.3090169943749169 0
    outer loop
      vertex -8.021852399266194 269.20791169081775 7.5
      vertex -8.0864545423574 269.4067366430758 7.5
      vertex -8.021852399266194 269.20791169081775 -3
    endloop
  endfacet
  facet normal -0.8660254037844055 -0.5000000000000575 0
    outer loop
      vertex -8.0864545423574 269.4067366430758 7.5
      vertex -8.190983005625053 269.58778525229246 7.5
      vertex -8.0864545423574 269.4067366430758 -3
    endloop
  endfacet
  facet normal 0 0 -1
    outer loop
      vertex -9.9135454576426 268.5932633569242 7.5
      vertex -9.978147600733806 268.79208830918225 7.5
      vertex -9.978147600733806 269.20791169081775 7.5
    endloop
  endfacet
  facet normal 0 0 -1
    outer loop
      vertex -9.809016994374947 268.41221474770754 7.5
      vertex -9.9135454576426 268.5932633569242 7.5
      vertex -9.9135454576426 269.4067366430758 7.5
    endloop
  endfacet
  facet normal 0 0 -1
    outer loop
      vertex -9.978147600733806 268.79208830918225 7.5
      vertex -10 269 7.5
      vertex -9.978147600733806 269.20791169081775 7.5
    endloop
  endfacet
  facet normal 0 0 -1
    outer loop
      vertex -9.9135454576426 268.5932633569242 7.5
      vertex -9.978147600733806 269.20791169081775 7.5
      vertex -9.9135454576426 269.4067366430758 7.5
    endloop
  endfacet
  facet normal 0 0 -1
    outer loop
      vertex -9.809016994374947 268.41221474770754 7.5
      vertex -9.9135454576426 269.4067366430758 7.5
      vertex -9.809016994374947 269.58778525229246 7.5
    endloop
  endfacet
  facet normal 0 0 -1
    outer loop
      vertex -9.809016994374947 268.41221474770754 7.5
      vertex -9.809016994374947 269.58778525229246 7.5
      vertex -9.66913060635886 268.2568551745226 7.5
    endloop
  endfacet
  facet normal 0 0 -1
    outer loop
      vertex -9.5 268.1339745962156 7.5
      vertex -9.66913060635886 268.2568551745226 7.5
      vertex -9.66913060635886 269.7431448254774 7.5
    endloop
  endfacet
  facet normal 0 0 -1
    outer loop
      vertex -9.5 268.1339745962156 7.5
      vertex -9.5 269.8660254037844 7.5
      vertex -9.309016994374947 268.0489434837049 7.5
    endloop
  endfacet
  facet normal 0 0 -1
    outer loop
      vertex -9.66913060635886 268.2568551745226 7.5
      vertex -9.809016994374947 269.58778525229246 7.5
      vertex -9.66913060635886 269.7431448254774 7.5
    endloop
  endfacet
  facet normal 0 0 -1
    outer loop
      vertex -9.5 268.1339745962156 7.5
      vertex -9.66913060635886 269.7431448254774 7.5
      vertex -9.5 269.8660254037844 7.5
    endloop
  endfacet
  facet normal 0 0 -1
    outer loop
      vertex -9.309016994374947 268.0489434837049 7.5
      vertex -9.5 269.8660254037844 7.5
      vertex -9.309016994374947 269.9510565162951 7.5
    endloop
  endfacet
  facet normal 0 0 -1
    outer loop
      vertex -9.309016994374947 268.0489434837049 7.5
      vertex -9.309016994374947 269.9510565162951 7.5
      vertex -9.104528463267654 268.0054781046317 7.5
    endloop
  endfacet
  facet normal 0 0 -1
    outer loop
      vertex -9.104528463267654 268.0054781046317 7.5
      vertex -9.104528463267654 269.9945218953683 7.5
      vertex -8.895471536732346 268.0054781046317 7.5
    endloop
  endfacet
  facet normal 0 0 -1
    outer loop
      vertex -8.895471536732346 268.0054781046317 7.5
      vertex -8.895471536732346 269.9945218953683 7.5
      vertex -8.690983005625053 268.0489434837049 7.5
    endloop
  endfacet
  facet normal 0 0 -1
    outer loop
      vertex -9.104528463267654 268.0054781046317 7.5
      vertex -9.309016994374947 269.9510565162951 7.5
      vertex -9.104528463267654 269.9945218953683 7.5
    endloop
  endfacet
  facet normal 0 0 -1
    outer loop
      vertex -8.895471536732346 268.0054781046317 7.5
      vertex -9.104528463267654 269.9945218953683 7.5
      vertex -8.895471536732346 269.9945218953683 7.5
    endloop
  endfacet
  facet normal 0 0 -1
    outer loop
      vertex -8.690983005625053 268.0489434837049 7.5
      vertex -8.895471536732346 269.9945218953683 7.5
      vertex -8.690983005625053 269.9510565162951 7.5
    endloop
  endfacet
  facet normal 0 0 -1
    outer loop
      vertex -8.690983005625053 268.0489434837049 7.5
      vertex -8.690983005625053 269.9510565162951 7.5
      vertex -8.5 268.1339745962156 7.5
    endloop
  endfacet
  facet normal 0 0 -1
    outer loop
      vertex -8.5 268.1339745962156 7.5
      vertex -8.5 269.8660254037844 7.5
      vertex -8.33086939364114 268.2568551745226 7.5
    endloop
  endfacet
  facet normal 0 0 -1
    outer loop
      vertex -8.33086939364114 268.2568551745226 7.5
      vertex -8.33086939364114 269.7431448254774 7.5
      vertex -8.190983005625053 268.41221474770754 7.5
    endloop
  endfacet
  facet normal 0 0 -1
    outer loop
      vertex -8.190983005625053 268.41221474770754 7.5
      vertex -8.190983005625053 269.58778525229246 7.5
      vertex -8.0864545423574 268.5932633569242 7.5
    endloop
  endfacet
  facet normal 0 0 -1
    outer loop
      vertex -8.5 268.1339745962156 7.5
      vertex -8.690983005625053 269.9510565162951 7.5
      vertex -8.5 269.8660254037844 7.5
    endloop
  endfacet
  facet normal 0 0 -1
    outer loop
      vertex -8.33086939364114 269.7431448254774 7.5
      vertex -8.190983005625053 269.58778525229246 7.5
      vertex -8.190983005625053 268.41221474770754 7.5
    endloop
  endfacet
  facet normal 0 0 -1
    outer loop
      vertex -8.33086939364114 268.2568551745226 7.5
      vertex -8.5 269.8660254037844 7.5
      vertex -8.33086939364114 269.7431448254774 7.5
    endloop
  endfacet
  facet normal 0 0 -1
    outer loop
      vertex -8.0864545423574 268.5932633569242 7.5
      vertex -8.0864545423574 269.4067366430758 7.5
      vertex -8.021852399266194 268.79208830918225 7.5
    endloop
  endfacet
  facet normal 0 0 -1
    outer loop
      vertex -8.021852399266194 268.79208830918225 7.5
      vertex -8.021852399266194 269.20791169081775 7.5
      vertex -8 269 7.5
    endloop
  endfacet
  facet normal 0 0 -1
    outer loop
      vertex -8.021852399266194 268.79208830918225 7.5
      vertex -8.0864545423574 269.4067366430758 7.5
      vertex -8.021852399266194 269.20791169081775 7.5
    endloop
  endfacet
  facet normal 0 0 -1
    outer loop
      vertex -8.0864545423574 268.5932633569242 7.5
      vertex -8.190983005625053 269.58778525229246 7.5
      vertex -8.0864545423574 269.4067366430758 7.5
    endloop
  endfacet
  facet normal 0.7431448254773746 -0.6691306063588799 -1.5405925896196093e-19
    outer loop
      vertex -9.809016994374947 269.58778525229246 7.5
      vertex -9.66913060635886 269.7431448254774 -3
      vertex -9.66913060635886 269.7431448254774 7.5
    endloop
  endfacet
  facet normal 0.5877852522924792 -0.8090169943749431 1.3628749110496507e-19
    outer loop
      vertex -9.66913060635886 269.7431448254774 7.5
      vertex -9.5 269.8660254037844 -3
      vertex -9.5 269.8660254037844 7.5
    endloop
  endfacet
  facet normal 0.406736643075761 -0.9135454576426183 6.732427424072491e-19
    outer loop
      vertex -9.5 269.8660254037844 7.5
      vertex -9.309016994374947 269.9510565162951 -3
      vertex -9.309016994374947 269.9510565162951 7.5
    endloop
  endfacet
  facet normal 0.20791169081791946 -0.9781476007337717 -2.8015039640533277e-19
    outer loop
      vertex -9.309016994374947 269.9510565162951 7.5
      vertex -9.104528463267654 269.9945218953683 -3
      vertex -9.104528463267654 269.9945218953683 7.5
    endloop
  endfacet
  facet normal 0 -1 0
    outer loop
      vertex -9.104528463267654 269.9945218953683 7.5
      vertex -8.895471536732346 269.9945218953683 -3
      vertex -8.895471536732346 269.9945218953683 7.5
    endloop
  endfacet
  facet normal -0.20791169081791946 -0.9781476007337717 2.8015039640533277e-19
    outer loop
      vertex -8.895471536732346 269.9945218953683 7.5
      vertex -8.690983005625053 269.9510565162951 -3
      vertex -8.690983005625053 269.9510565162951 7.5
    endloop
  endfacet
  facet normal -0.406736643075761 -0.9135454576426183 -6.732427424072491e-19
    outer loop
      vertex -8.690983005625053 269.9510565162951 7.5
      vertex -8.5 269.8660254037844 -3
      vertex -8.5 269.8660254037844 7.5
    endloop
  endfacet
  facet normal -0.5877852522924792 -0.8090169943749431 0
    outer loop
      vertex -8.33086939364114 269.7431448254774 7.5
      vertex -8.5 269.8660254037844 7.5
      vertex -8.33086939364114 269.7431448254774 -3
    endloop
  endfacet
  facet normal -0.7431448254773746 -0.6691306063588799 1.5405925896196093e-19
    outer loop
      vertex -8.33086939364114 269.7431448254774 7.5
      vertex -8.190983005625053 269.58778525229246 -3
      vertex -8.190983005625053 269.58778525229246 7.5
    endloop
  endfacet
  facet normal 0 0 -1
    outer loop
      vertex -19.87550482749939 272.7350405305624 -3
      vertex -18.299999999999997 265.5515517234802 -3
      vertex -26.119379310607926 265.5515517234802 -3
    endloop
  endfacet
  facet normal 0 0 -1
    outer loop
      vertex -24.309016994374947 278.0489434837049 -3
      vertex -26.119379310607926 265.5515517234802 -3
      vertex -28.299999999999997 265.5515517234802 -3
    endloop
  endfacet
  facet normal 0 0 -1
    outer loop
      vertex -24.913545457642602 278.5932633569242 -3
      vertex -28.299999999999997 265.5515517234802 -3
      vertex -24.978147600733806 278.79208830918225 -3
    endloop
  endfacet
  facet normal 0 0 -1
    outer loop
      vertex -24.66913060635886 278.2568551745226 -3
      vertex -24.5 278.1339745962156 -3
      vertex -28.299999999999997 265.5515517234802 -3
    endloop
  endfacet
  facet normal 0 0 -1
    outer loop
      vertex -24.809016994374947 278.41221474770754 -3
      vertex -24.66913060635886 278.2568551745226 -3
      vertex -28.299999999999997 265.5515517234802 -3
    endloop
  endfacet
  facet normal 0 0 -1
    outer loop
      vertex -24.809016994374947 278.41221474770754 -3
      vertex -28.299999999999997 265.5515517234802 -3
      vertex -24.913545457642602 278.5932633569242 -3
    endloop
  endfacet
  facet normal 0 0 -1
    outer loop
      vertex -24.5 278.1339745962156 -3
      vertex -24.309016994374947 278.0489434837049 -3
      vertex -28.299999999999997 265.5515517234802 -3
    endloop
  endfacet
  facet normal 0 0 -1
    outer loop
      vertex -24.309016994374947 278.0489434837049 -3
      vertex -24.104528463267652 278.0054781046317 -3
      vertex -26.119379310607926 265.5515517234802 -3
    endloop
  endfacet
  facet normal 0 0 -1
    outer loop
      vertex -24.104528463267652 278.0054781046317 -3
      vertex -23.895471536732348 278.0054781046317 -3
      vertex -26.119379310607926 265.5515517234802 -3
    endloop
  endfacet
  facet normal 0 0 -1
    outer loop
      vertex -23.690983005625053 278.0489434837049 -3
      vertex -26.119379310607926 265.5515517234802 -3
      vertex -23.895471536732348 278.0054781046317 -3
    endloop
  endfacet
  facet normal 0 0 -1
    outer loop
      vertex -23.690983005625053 278.0489434837049 -3
      vertex -23.5 278.1339745962156 -3
      vertex -26.119379310607926 265.5515517234802 -3
    endloop
  endfacet
  facet normal 0 0 -1
    outer loop
      vertex -23.5 278.1339745962156 -3
      vertex -23.33086939364114 278.2568551745226 -3
      vertex -26.119379310607926 265.5515517234802 -3
    endloop
  endfacet
  facet normal 0 0 -1
    outer loop
      vertex -23.190983005625053 278.41221474770754 -3
      vertex -26.119379310607926 265.5515517234802 -3
      vertex -23.33086939364114 278.2568551745226 -3
    endloop
  endfacet
  facet normal 0 0 -1
    outer loop
      vertex -23.086454542357398 278.5932633569242 -3
      vertex -26.119379310607926 265.5515517234802 -3
      vertex -23.190983005625053 278.41221474770754 -3
    endloop
  endfacet
  facet normal 0 0 -1
    outer loop
      vertex -23.021852399266194 278.79208830918225 -3
      vertex -26.119379310607926 265.5515517234802 -3
      vertex -23.086454542357398 278.5932633569242 -3
    endloop
  endfacet
  facet normal 0 0 -1
    outer loop
      vertex -19.87550482749939 272.7350405305624 -3
      vertex -26.119379310607926 265.5515517234802 -3
      vertex -19.87550482749939 290.40925811752675 -3
    endloop
  endfacet
  facet normal 0 0 -1
    outer loop
      vertex -23.021852399266194 278.79208830918225 -3
      vertex -19.87550482749939 290.40925811752675 -3
      vertex -26.119379310607926 265.5515517234802 -3
    endloop
  endfacet
  facet normal -1 0 0
    outer loop
      vertex -28.299999999999997 265.5515517234802 -3
      vertex -28.299999999999997 265.5515517234802 9
      vertex -28.299999999999997 298.0243060819288 -3
    endloop
  endfacet
  facet normal 0 0 -1
    outer loop
      vertex -19.87550482749939 272.7350405305624 -3
      vertex -18.299999999999997 272.7350405305624 -3
      vertex -18.299999999999997 265.5515517234802 -3
    endloop
  endfacet
  facet normal 0 0 -1
    outer loop
      vertex -24.978147600733806 278.79208830918225 -3
      vertex -28.299999999999997 265.5515517234802 -3
      vertex -28.299999999999997 298.0243060819288 -3
    endloop
  endfacet
  facet normal 0 0 -1
    outer loop
      vertex -24.978147600733806 278.79208830918225 -3
      vertex -28.299999999999997 298.0243060819288 -3
      vertex -25 279 -3
    endloop
  endfacet
  facet normal 0 0 -1
    outer loop
      vertex -25 279 -3
      vertex -28.299999999999997 298.0243060819288 -3
      vertex -24.978147600733806 279.20791169081775 -3
    endloop
  endfacet
  facet normal 0 0 -1
    outer loop
      vertex -24.978147600733806 279.20791169081775 -3
      vertex -28.299999999999997 298.0243060819288 -3
      vertex -24.913545457642602 279.4067366430758 -3
    endloop
  endfacet
  facet normal 0 0 -1
    outer loop
      vertex -24.913545457642602 279.4067366430758 -3
      vertex -28.299999999999997 298.0243060819288 -3
      vertex -24.809016994374947 279.58778525229246 -3
    endloop
  endfacet
  facet normal 0 0 -1
    outer loop
      vertex -24.809016994374947 279.58778525229246 -3
      vertex -28.299999999999997 298.0243060819288 -3
      vertex -24.66913060635886 279.7431448254774 -3
    endloop
  endfacet
  facet normal 0 0 -1
    outer loop
      vertex -24.66913060635886 279.7431448254774 -3
      vertex -28.299999999999997 298.0243060819288 -3
      vertex -24.5 279.8660254037844 -3
    endloop
  endfacet
  facet normal 0 0 -1
    outer loop
      vertex -24.309016994374947 279.9510565162951 -3
      vertex -24.5 279.8660254037844 -3
      vertex -28.299999999999997 298.0243060819288 -3
    endloop
  endfacet
  facet normal 0 0 -1
    outer loop
      vertex -24.104528463267652 279.9945218953683 -3
      vertex -24.309016994374947 279.9510565162951 -3
      vertex -28.299999999999997 298.0243060819288 -3
    endloop
  endfacet
  facet normal 0 0 -1
    outer loop
      vertex -23.895471536732348 279.9945218953683 -3
      vertex -24.104528463267652 279.9945218953683 -3
      vertex -28.299999999999997 298.0243060819288 -3
    endloop
  endfacet
  facet normal 0 0 -1
    outer loop
      vertex -23.690983005625053 279.9510565162951 -3
      vertex -23.895471536732348 279.9945218953683 -3
      vertex -28.299999999999997 298.0243060819288 -3
    endloop
  endfacet
  facet normal 0 0 -1
    outer loop
      vertex -23.5 279.8660254037844 -3
      vertex -23.690983005625053 279.9510565162951 -3
      vertex -28.299999999999997 298.0243060819288 -3
    endloop
  endfacet
  facet normal 0 0 -1
    outer loop
      vertex -23.33086939364114 279.7431448254774 -3
      vertex -23.5 279.8660254037844 -3
      vertex -28.299999999999997 298.0243060819288 -3
    endloop
  endfacet
  facet normal 0 0 -1
    outer loop
      vertex -23 279 -3
      vertex -19.87550482749939 290.40925811752675 -3
      vertex -23.021852399266194 278.79208830918225 -3
    endloop
  endfacet
  facet normal 0 0 -1
    outer loop
      vertex -23.021852399266194 279.20791169081775 -3
      vertex -19.87550482749939 290.40925811752675 -3
      vertex -23 279 -3
    endloop
  endfacet
  facet normal 0 0 -1
    outer loop
      vertex -23.190983005625053 279.58778525229246 -3
      vertex -19.87550482749939 290.40925811752675 -3
      vertex -23.086454542357398 279.4067366430758 -3
    endloop
  endfacet
  facet normal 0 0 -1
    outer loop
      vertex -23.086454542357398 279.4067366430758 -3
      vertex -19.87550482749939 290.40925811752675 -3
      vertex -23.021852399266194 279.20791169081775 -3
    endloop
  endfacet
  facet normal 0 0 -1
    outer loop
      vertex -23.190983005625053 279.58778525229246 -3
      vertex -23.33086939364114 279.7431448254774 -3
      vertex -19.87550482749939 290.40925811752675 -3
    endloop
  endfacet
  facet normal 0 0 -1
    outer loop
      vertex -19.87550482749939 290.40925811752675 -3
      vertex -23.33086939364114 279.7431448254774 -3
      vertex -28.299999999999997 298.0243060819288 -3
    endloop
  endfacet
  facet normal -1 0 0
    outer loop
      vertex -28.299999999999997 298.0243060819288 9
      vertex -28.299999999999997 298.0243060819288 -3
      vertex -28.299999999999997 265.5515517234802 9
    endloop
  endfacet
  facet normal 0 0 -1
    outer loop
      vertex -12.523162359371781 265.5515517234802 -3
      vertex -18.299999999999997 265.5515517234802 -3
      vertex -18.299999999999997 272.7350405305624 -3
    endloop
  endfacet
  facet normal 0 0 -1
    outer loop
      vertex -9.9135454576426 268.5932633569242 -3
      vertex -12.523162359371781 265.5515517234802 -3
      vertex -12.642458222061396 272.7350405305624 -3
    endloop
  endfacet
  facet normal 0 0 -1
    outer loop
      vertex -9.66913060635886 268.2568551745226 -3
      vertex -12.523162359371781 265.5515517234802 -3
      vertex -9.809016994374947 268.41221474770754 -3
    endloop
  endfacet
  facet normal 0 0 -1
    outer loop
      vertex -9.809016994374947 268.41221474770754 -3
      vertex -12.523162359371781 265.5515517234802 -3
      vertex -9.9135454576426 268.5932633569242 -3
    endloop
  endfacet
  facet normal 0 0 -1
    outer loop
      vertex -9.66913060635886 268.2568551745226 -3
      vertex -9.5 268.1339745962156 -3
      vertex -12.523162359371781 265.5515517234802 -3
    endloop
  endfacet
  facet normal 0 0 -1
    outer loop
      vertex -9.5 268.1339745962156 -3
      vertex -9.309016994374947 268.0489434837049 -3
      vertex -12.523162359371781 265.5515517234802 -3
    endloop
  endfacet
  facet normal 0 0 -1
    outer loop
      vertex -18.299999999999997 272.7350405305624 -3
      vertex -12.642458222061396 272.7350405305624 -3
      vertex -12.523162359371781 265.5515517234802 -3
    endloop
  endfacet
  facet normal 0 0 -1
    outer loop
      vertex -9.9135454576426 268.5932633569242 -3
      vertex -12.642458222061396 272.7350405305624 -3
      vertex -9.978147600733806 268.79208830918225 -3
    endloop
  endfacet
  facet normal 0 0 -1
    outer loop
      vertex -9.978147600733806 268.79208830918225 -3
      vertex -12.642458222061396 272.7350405305624 -3
      vertex -10 269 -3
    endloop
  endfacet
  facet normal 0 0 -1
    outer loop
      vertex -10 269 -3
      vertex -12.642458222061396 272.7350405305624 -3
      vertex -9.978147600733806 269.20791169081775 -3
    endloop
  endfacet
  facet normal 0 0 -1
    outer loop
      vertex -9.978147600733806 269.20791169081775 -3
      vertex -12.642458222061396 272.7350405305624 -3
      vertex -9.9135454576426 269.4067366430758 -3
    endloop
  endfacet
  facet normal 0 0 -1
    outer loop
      vertex -9.9135454576426 269.4067366430758 -3
      vertex -12.642458222061396 272.7350405305624 -3
      vertex -9.809016994374947 269.58778525229246 -3
    endloop
  endfacet
  facet normal 0 0 -1
    outer loop
      vertex -9.809016994374947 269.58778525229246 -3
      vertex -12.642458222061396 272.7350405305624 -3
      vertex -9.66913060635886 269.7431448254774 -3
    endloop
  endfacet
  facet normal 0 0 -1
    outer loop
      vertex -9.66913060635886 269.7431448254774 -3
      vertex -12.642458222061396 272.7350405305624 -3
      vertex -9.5 269.8660254037844 -3
    endloop
  endfacet
  facet normal 0 0 -1
    outer loop
      vertex -9.309016994374947 269.9510565162951 -3
      vertex -9.5 269.8660254037844 -3
      vertex -12.642458222061396 272.7350405305624 -3
    endloop
  endfacet
  facet normal 0 0 -1
    outer loop
      vertex -12.642458222061396 272.7350405305624 -3
      vertex -12.642458222061396 283.8706911660731 -3
      vertex -6.063788614422084 277.92397420704367 -3
    endloop
  endfacet
  facet normal 0 0 -1
    outer loop
      vertex -6.063788614422084 265.5515517234802 -3
      vertex -6.063788614422084 260.1 -3
      vertex -12.523162359371781 260.1 -3
    endloop
  endfacet
  facet normal 0 0 -1
    outer loop
      vertex -6.063788614422084 265.5515517234802 -3
      vertex -12.523162359371781 260.1 -3
      vertex -12.523162359371781 265.5515517234802 -3
    endloop
  endfacet
  facet normal 0 0 -1
    outer loop
      vertex -6.063788614422084 265.5515517234802 -3
      vertex -12.523162359371781 265.5515517234802 -3
      vertex -9.309016994374947 268.0489434837049 -3
    endloop
  endfacet
  facet normal 0 0 -1
    outer loop
      vertex -9.309016994374947 268.0489434837049 -3
      vertex -9.104528463267654 268.0054781046317 -3
      vertex -6.063788614422084 265.5515517234802 -3
    endloop
  endfacet
  facet normal 0 0 -1
    outer loop
      vertex -9.104528463267654 268.0054781046317 -3
      vertex -8.895471536732346 268.0054781046317 -3
      vertex -6.063788614422084 265.5515517234802 -3
    endloop
  endfacet
  facet normal 0 0 -1
    outer loop
      vertex -8.895471536732346 268.0054781046317 -3
      vertex -8.690983005625053 268.0489434837049 -3
      vertex -6.063788614422084 265.5515517234802 -3
    endloop
  endfacet
  facet normal 0 0 -1
    outer loop
      vertex -8.690983005625053 268.0489434837049 -3
      vertex -8.5 268.1339745962156 -3
      vertex -6.063788614422084 265.5515517234802 -3
    endloop
  endfacet
  facet normal 0 0 -1
    outer loop
      vertex -8.5 268.1339745962156 -3
      vertex -8.33086939364114 268.2568551745226 -3
      vertex -6.063788614422084 265.5515517234802 -3
    endloop
  endfacet
  facet normal 0 0 -1
    outer loop
      vertex -8.190983005625053 268.41221474770754 -3
      vertex -6.063788614422084 265.5515517234802 -3
      vertex -8.33086939364114 268.2568551745226 -3
    endloop
  endfacet
  facet normal 0 0 -1
    outer loop
      vertex -6.063788614422084 265.5515517234802 -3
      vertex -8.190983005625053 268.41221474770754 -3
      vertex -0.32367616631090645 272.7350405305624 -3
    endloop
  endfacet
  facet normal 0 -1 0
    outer loop
      vertex -12.523162359371781 260.1 -3
      vertex -6.063788614422084 260.1 -3
      vertex -6.063788614422084 260.1 9
    endloop
  endfacet
  facet normal 0 0 -1
    outer loop
      vertex -9.104528463267654 269.9945218953683 -3
      vertex -9.309016994374947 269.9510565162951 -3
      vertex -12.642458222061396 272.7350405305624 -3
    endloop
  endfacet
  facet normal 0 0 -1
    outer loop
      vertex -8.895471536732346 269.9945218953683 -3
      vertex -9.104528463267654 269.9945218953683 -3
      vertex -12.642458222061396 272.7350405305624 -3
    endloop
  endfacet
  facet normal 0 0 -1
    outer loop
      vertex -8.690983005625053 269.9510565162951 -3
      vertex -8.895471536732346 269.9945218953683 -3
      vertex -12.642458222061396 272.7350405305624 -3
    endloop
  endfacet
  facet normal 0 0 -1
    outer loop
      vertex -8.690983005625053 269.9510565162951 -3
      vertex -12.642458222061396 272.7350405305624 -3
      vertex -6.063788614422084 272.7350405305624 -3
    endloop
  endfacet
  facet normal 0 0 -1
    outer loop
      vertex -8.021852399266194 268.79208830918225 -3
      vertex -6.063788614422084 272.7350405305624 -3
      vertex -8.0864545423574 268.5932633569242 -3
    endloop
  endfacet
  facet normal 0 0 -1
    outer loop
      vertex -8 269 -3
      vertex -6.063788614422084 272.7350405305624 -3
      vertex -8.021852399266194 268.79208830918225 -3
    endloop
  endfacet
  facet normal 0 0 -1
    outer loop
      vertex -8.021852399266194 269.20791169081775 -3
      vertex -6.063788614422084 272.7350405305624 -3
      vertex -8 269 -3
    endloop
  endfacet
  facet normal 0 0 -1
    outer loop
      vertex -8.0864545423574 269.4067366430758 -3
      vertex -6.063788614422084 272.7350405305624 -3
      vertex -8.021852399266194 269.20791169081775 -3
    endloop
  endfacet
  facet normal 0 0 -1
    outer loop
      vertex -8.190983005625053 269.58778525229246 -3
      vertex -6.063788614422084 272.7350405305624 -3
      vertex -8.0864545423574 269.4067366430758 -3
    endloop
  endfacet
  facet normal 0 0 -1
    outer loop
      vertex -8.33086939364114 269.7431448254774 -3
      vertex -6.063788614422084 272.7350405305624 -3
      vertex -8.190983005625053 269.58778525229246 -3
    endloop
  endfacet
  facet normal 0 0 -1
    outer loop
      vertex -8.5 269.8660254037844 -3
      vertex -8.690983005625053 269.9510565162951 -3
      vertex -6.063788614422084 272.7350405305624 -3
    endloop
  endfacet
  facet normal 0 0 -1
    outer loop
      vertex -8.33086939364114 269.7431448254774 -3
      vertex -8.5 269.8660254037844 -3
      vertex -6.063788614422084 272.7350405305624 -3
    endloop
  endfacet
  facet normal 0 0 -1
    outer loop
      vertex -6.063788614422084 277.92397420704367 -3
      vertex -6.063788614422084 272.7350405305624 -3
      vertex -12.642458222061396 272.7350405305624 -3
    endloop
  endfacet
  facet normal 0 0 -1
    outer loop
      vertex -8.0864545423574 268.5932633569242 -3
      vertex -0.32367616631090645 272.7350405305624 -3
      vertex -8.190983005625053 268.41221474770754 -3
    endloop
  endfacet
  facet normal 0 0 -1
    outer loop
      vertex -0.32367616631090645 272.7350405305624 -3
      vertex -8.0864545423574 268.5932633569242 -3
      vertex -6.063788614422084 272.7350405305624 -3
    endloop
  endfacet
  facet normal 0 0 -1
    outer loop
      vertex -6.063788614422084 265.5515517234802 -3
      vertex -0.32367616631090645 272.7350405305624 -3
      vertex 7.550000000000001 265.5515517234802 -3
    endloop
  endfacet
  facet normal 0 0 -1
    outer loop
      vertex -0.32367616631090645 272.7350405305624 -3
      vertex 7.550000000000001 265.617585779325 -3
      vertex 7.550000000000001 265.5515517234802 -3
    endloop
  endfacet
  facet normal 1 0 0
    outer loop
      vertex 7.550000000000001 265.617585779325 -3
      vertex 7.550000000000001 265.617585779325 9
      vertex 7.550000000000001 265.5515517234802 -3
    endloop
  endfacet
  facet normal 0 -1 0
    outer loop
      vertex -12.523162359371781 260.1 9
      vertex -12.523162359371781 260.1 -3
      vertex -6.063788614422084 260.1 9
    endloop
  endfacet
  facet normal 1 0 0
    outer loop
      vertex 7.550000000000001 265.617585779325 9
      vertex 7.550000000000001 265.5515517234802 9
      vertex 7.550000000000001 265.5515517234802 -3
    endloop
  endfacet
endsolid OpenSCAD_Model
