%TF.GenerationSoftware,KiCad,Pcbnew,9.0.5*%
%TF.CreationDate,2025-10-26T10:57:22+01:00*%
%TF.ProjectId,BaseBoard,42617365-426f-4617-9264-2e6b69636164,v0.1*%
%TF.SameCoordinates,Original*%
%TF.FileFunction,Soldermask,Top*%
%TF.FilePolarity,Negative*%
%FSLAX46Y46*%
G04 Gerber Fmt 4.6, Leading zero omitted, Abs format (unit mm)*
G04 Created by KiCad (PCBNEW 9.0.5) date 2025-10-26 10:57:22*
%MOMM*%
%LPD*%
G01*
G04 APERTURE LIST*
G04 Aperture macros list*
%AMRoundRect*
0 Rectangle with rounded corners*
0 $1 Rounding radius*
0 $2 $3 $4 $5 $6 $7 $8 $9 X,Y pos of 4 corners*
0 Add a 4 corners polygon primitive as box body*
4,1,4,$2,$3,$4,$5,$6,$7,$8,$9,$2,$3,0*
0 Add four circle primitives for the rounded corners*
1,1,$1+$1,$2,$3*
1,1,$1+$1,$4,$5*
1,1,$1+$1,$6,$7*
1,1,$1+$1,$8,$9*
0 Add four rect primitives between the rounded corners*
20,1,$1+$1,$2,$3,$4,$5,0*
20,1,$1+$1,$4,$5,$6,$7,0*
20,1,$1+$1,$6,$7,$8,$9,0*
20,1,$1+$1,$8,$9,$2,$3,0*%
G04 Aperture macros list end*
%ADD10C,0.200000*%
%ADD11C,0.000000*%
%ADD12C,1.600000*%
%ADD13RoundRect,0.250000X0.550000X-0.550000X0.550000X0.550000X-0.550000X0.550000X-0.550000X-0.550000X0*%
%ADD14R,1.700000X1.700000*%
%ADD15C,1.700000*%
%ADD16RoundRect,0.150000X-0.150000X0.587500X-0.150000X-0.587500X0.150000X-0.587500X0.150000X0.587500X0*%
%ADD17O,2.000000X2.500000*%
%ADD18O,1.850000X2.500000*%
%ADD19RoundRect,0.375000X-0.625000X-0.375000X0.625000X-0.375000X0.625000X0.375000X-0.625000X0.375000X0*%
%ADD20RoundRect,0.500000X-0.500000X-1.400000X0.500000X-1.400000X0.500000X1.400000X-0.500000X1.400000X0*%
%ADD21R,1.050000X1.500000*%
%ADD22O,1.050000X1.500000*%
%ADD23RoundRect,0.150000X0.150000X-0.587500X0.150000X0.587500X-0.150000X0.587500X-0.150000X-0.587500X0*%
G04 APERTURE END LIST*
D10*
X132733998Y-73885011D02*
X132667331Y-73951678D01*
X132667331Y-73951678D02*
X132467331Y-74018344D01*
X132467331Y-74018344D02*
X132333998Y-74018344D01*
X132333998Y-74018344D02*
X132133998Y-73951678D01*
X132133998Y-73951678D02*
X132000665Y-73818344D01*
X132000665Y-73818344D02*
X131933998Y-73685011D01*
X131933998Y-73685011D02*
X131867331Y-73418344D01*
X131867331Y-73418344D02*
X131867331Y-73218344D01*
X131867331Y-73218344D02*
X131933998Y-72951678D01*
X131933998Y-72951678D02*
X132000665Y-72818344D01*
X132000665Y-72818344D02*
X132133998Y-72685011D01*
X132133998Y-72685011D02*
X132333998Y-72618344D01*
X132333998Y-72618344D02*
X132467331Y-72618344D01*
X132467331Y-72618344D02*
X132667331Y-72685011D01*
X132667331Y-72685011D02*
X132733998Y-72751678D01*
X133600665Y-72618344D02*
X133867331Y-72618344D01*
X133867331Y-72618344D02*
X134000665Y-72685011D01*
X134000665Y-72685011D02*
X134133998Y-72818344D01*
X134133998Y-72818344D02*
X134200665Y-73085011D01*
X134200665Y-73085011D02*
X134200665Y-73551678D01*
X134200665Y-73551678D02*
X134133998Y-73818344D01*
X134133998Y-73818344D02*
X134000665Y-73951678D01*
X134000665Y-73951678D02*
X133867331Y-74018344D01*
X133867331Y-74018344D02*
X133600665Y-74018344D01*
X133600665Y-74018344D02*
X133467331Y-73951678D01*
X133467331Y-73951678D02*
X133333998Y-73818344D01*
X133333998Y-73818344D02*
X133267331Y-73551678D01*
X133267331Y-73551678D02*
X133267331Y-73085011D01*
X133267331Y-73085011D02*
X133333998Y-72818344D01*
X133333998Y-72818344D02*
X133467331Y-72685011D01*
X133467331Y-72685011D02*
X133600665Y-72618344D01*
X134800665Y-74018344D02*
X134800665Y-72618344D01*
X134800665Y-72618344D02*
X135267332Y-73618344D01*
X135267332Y-73618344D02*
X135733998Y-72618344D01*
X135733998Y-72618344D02*
X135733998Y-74018344D01*
X137200665Y-73885011D02*
X137133998Y-73951678D01*
X137133998Y-73951678D02*
X136933998Y-74018344D01*
X136933998Y-74018344D02*
X136800665Y-74018344D01*
X136800665Y-74018344D02*
X136600665Y-73951678D01*
X136600665Y-73951678D02*
X136467332Y-73818344D01*
X136467332Y-73818344D02*
X136400665Y-73685011D01*
X136400665Y-73685011D02*
X136333998Y-73418344D01*
X136333998Y-73418344D02*
X136333998Y-73218344D01*
X136333998Y-73218344D02*
X136400665Y-72951678D01*
X136400665Y-72951678D02*
X136467332Y-72818344D01*
X136467332Y-72818344D02*
X136600665Y-72685011D01*
X136600665Y-72685011D02*
X136800665Y-72618344D01*
X136800665Y-72618344D02*
X136933998Y-72618344D01*
X136933998Y-72618344D02*
X137133998Y-72685011D01*
X137133998Y-72685011D02*
X137200665Y-72751678D01*
X137800665Y-74018344D02*
X137800665Y-72618344D01*
X138400665Y-74018344D02*
X138400665Y-73285011D01*
X138400665Y-73285011D02*
X138333998Y-73151678D01*
X138333998Y-73151678D02*
X138200665Y-73085011D01*
X138200665Y-73085011D02*
X138000665Y-73085011D01*
X138000665Y-73085011D02*
X137867332Y-73151678D01*
X137867332Y-73151678D02*
X137800665Y-73218344D01*
X139667332Y-74018344D02*
X139667332Y-73285011D01*
X139667332Y-73285011D02*
X139600665Y-73151678D01*
X139600665Y-73151678D02*
X139467332Y-73085011D01*
X139467332Y-73085011D02*
X139200665Y-73085011D01*
X139200665Y-73085011D02*
X139067332Y-73151678D01*
X139667332Y-73951678D02*
X139533999Y-74018344D01*
X139533999Y-74018344D02*
X139200665Y-74018344D01*
X139200665Y-74018344D02*
X139067332Y-73951678D01*
X139067332Y-73951678D02*
X139000665Y-73818344D01*
X139000665Y-73818344D02*
X139000665Y-73685011D01*
X139000665Y-73685011D02*
X139067332Y-73551678D01*
X139067332Y-73551678D02*
X139200665Y-73485011D01*
X139200665Y-73485011D02*
X139533999Y-73485011D01*
X139533999Y-73485011D02*
X139667332Y-73418344D01*
X140533999Y-74018344D02*
X140400666Y-73951678D01*
X140400666Y-73951678D02*
X140333999Y-73818344D01*
X140333999Y-73818344D02*
X140333999Y-72618344D01*
X141267332Y-74018344D02*
X141133999Y-73951678D01*
X141133999Y-73951678D02*
X141067332Y-73818344D01*
X141067332Y-73818344D02*
X141067332Y-72618344D01*
X142400665Y-74018344D02*
X142400665Y-73285011D01*
X142400665Y-73285011D02*
X142333998Y-73151678D01*
X142333998Y-73151678D02*
X142200665Y-73085011D01*
X142200665Y-73085011D02*
X141933998Y-73085011D01*
X141933998Y-73085011D02*
X141800665Y-73151678D01*
X142400665Y-73951678D02*
X142267332Y-74018344D01*
X142267332Y-74018344D02*
X141933998Y-74018344D01*
X141933998Y-74018344D02*
X141800665Y-73951678D01*
X141800665Y-73951678D02*
X141733998Y-73818344D01*
X141733998Y-73818344D02*
X141733998Y-73685011D01*
X141733998Y-73685011D02*
X141800665Y-73551678D01*
X141800665Y-73551678D02*
X141933998Y-73485011D01*
X141933998Y-73485011D02*
X142267332Y-73485011D01*
X142267332Y-73485011D02*
X142400665Y-73418344D01*
X143067332Y-73085011D02*
X143067332Y-74018344D01*
X143067332Y-73218344D02*
X143133999Y-73151678D01*
X143133999Y-73151678D02*
X143267332Y-73085011D01*
X143267332Y-73085011D02*
X143467332Y-73085011D01*
X143467332Y-73085011D02*
X143600665Y-73151678D01*
X143600665Y-73151678D02*
X143667332Y-73285011D01*
X143667332Y-73285011D02*
X143667332Y-74018344D01*
X144933999Y-73085011D02*
X144933999Y-74218344D01*
X144933999Y-74218344D02*
X144867332Y-74351678D01*
X144867332Y-74351678D02*
X144800666Y-74418344D01*
X144800666Y-74418344D02*
X144667332Y-74485011D01*
X144667332Y-74485011D02*
X144467332Y-74485011D01*
X144467332Y-74485011D02*
X144333999Y-74418344D01*
X144933999Y-73951678D02*
X144800666Y-74018344D01*
X144800666Y-74018344D02*
X144533999Y-74018344D01*
X144533999Y-74018344D02*
X144400666Y-73951678D01*
X144400666Y-73951678D02*
X144333999Y-73885011D01*
X144333999Y-73885011D02*
X144267332Y-73751678D01*
X144267332Y-73751678D02*
X144267332Y-73351678D01*
X144267332Y-73351678D02*
X144333999Y-73218344D01*
X144333999Y-73218344D02*
X144400666Y-73151678D01*
X144400666Y-73151678D02*
X144533999Y-73085011D01*
X144533999Y-73085011D02*
X144800666Y-73085011D01*
X144800666Y-73085011D02*
X144933999Y-73151678D01*
X146133999Y-73951678D02*
X146000666Y-74018344D01*
X146000666Y-74018344D02*
X145733999Y-74018344D01*
X145733999Y-74018344D02*
X145600666Y-73951678D01*
X145600666Y-73951678D02*
X145533999Y-73818344D01*
X145533999Y-73818344D02*
X145533999Y-73285011D01*
X145533999Y-73285011D02*
X145600666Y-73151678D01*
X145600666Y-73151678D02*
X145733999Y-73085011D01*
X145733999Y-73085011D02*
X146000666Y-73085011D01*
X146000666Y-73085011D02*
X146133999Y-73151678D01*
X146133999Y-73151678D02*
X146200666Y-73285011D01*
X146200666Y-73285011D02*
X146200666Y-73418344D01*
X146200666Y-73418344D02*
X145533999Y-73551678D01*
X148334000Y-73285011D02*
X148534000Y-73351678D01*
X148534000Y-73351678D02*
X148600666Y-73418344D01*
X148600666Y-73418344D02*
X148667333Y-73551678D01*
X148667333Y-73551678D02*
X148667333Y-73751678D01*
X148667333Y-73751678D02*
X148600666Y-73885011D01*
X148600666Y-73885011D02*
X148534000Y-73951678D01*
X148534000Y-73951678D02*
X148400666Y-74018344D01*
X148400666Y-74018344D02*
X147867333Y-74018344D01*
X147867333Y-74018344D02*
X147867333Y-72618344D01*
X147867333Y-72618344D02*
X148334000Y-72618344D01*
X148334000Y-72618344D02*
X148467333Y-72685011D01*
X148467333Y-72685011D02*
X148534000Y-72751678D01*
X148534000Y-72751678D02*
X148600666Y-72885011D01*
X148600666Y-72885011D02*
X148600666Y-73018344D01*
X148600666Y-73018344D02*
X148534000Y-73151678D01*
X148534000Y-73151678D02*
X148467333Y-73218344D01*
X148467333Y-73218344D02*
X148334000Y-73285011D01*
X148334000Y-73285011D02*
X147867333Y-73285011D01*
X149867333Y-74018344D02*
X149867333Y-73285011D01*
X149867333Y-73285011D02*
X149800666Y-73151678D01*
X149800666Y-73151678D02*
X149667333Y-73085011D01*
X149667333Y-73085011D02*
X149400666Y-73085011D01*
X149400666Y-73085011D02*
X149267333Y-73151678D01*
X149867333Y-73951678D02*
X149734000Y-74018344D01*
X149734000Y-74018344D02*
X149400666Y-74018344D01*
X149400666Y-74018344D02*
X149267333Y-73951678D01*
X149267333Y-73951678D02*
X149200666Y-73818344D01*
X149200666Y-73818344D02*
X149200666Y-73685011D01*
X149200666Y-73685011D02*
X149267333Y-73551678D01*
X149267333Y-73551678D02*
X149400666Y-73485011D01*
X149400666Y-73485011D02*
X149734000Y-73485011D01*
X149734000Y-73485011D02*
X149867333Y-73418344D01*
X150467333Y-73951678D02*
X150600667Y-74018344D01*
X150600667Y-74018344D02*
X150867333Y-74018344D01*
X150867333Y-74018344D02*
X151000667Y-73951678D01*
X151000667Y-73951678D02*
X151067333Y-73818344D01*
X151067333Y-73818344D02*
X151067333Y-73751678D01*
X151067333Y-73751678D02*
X151000667Y-73618344D01*
X151000667Y-73618344D02*
X150867333Y-73551678D01*
X150867333Y-73551678D02*
X150667333Y-73551678D01*
X150667333Y-73551678D02*
X150534000Y-73485011D01*
X150534000Y-73485011D02*
X150467333Y-73351678D01*
X150467333Y-73351678D02*
X150467333Y-73285011D01*
X150467333Y-73285011D02*
X150534000Y-73151678D01*
X150534000Y-73151678D02*
X150667333Y-73085011D01*
X150667333Y-73085011D02*
X150867333Y-73085011D01*
X150867333Y-73085011D02*
X151000667Y-73151678D01*
X152200666Y-73951678D02*
X152067333Y-74018344D01*
X152067333Y-74018344D02*
X151800666Y-74018344D01*
X151800666Y-74018344D02*
X151667333Y-73951678D01*
X151667333Y-73951678D02*
X151600666Y-73818344D01*
X151600666Y-73818344D02*
X151600666Y-73285011D01*
X151600666Y-73285011D02*
X151667333Y-73151678D01*
X151667333Y-73151678D02*
X151800666Y-73085011D01*
X151800666Y-73085011D02*
X152067333Y-73085011D01*
X152067333Y-73085011D02*
X152200666Y-73151678D01*
X152200666Y-73151678D02*
X152267333Y-73285011D01*
X152267333Y-73285011D02*
X152267333Y-73418344D01*
X152267333Y-73418344D02*
X151600666Y-73551678D01*
X152867333Y-74018344D02*
X152867333Y-72618344D01*
X152867333Y-73151678D02*
X153000666Y-73085011D01*
X153000666Y-73085011D02*
X153267333Y-73085011D01*
X153267333Y-73085011D02*
X153400666Y-73151678D01*
X153400666Y-73151678D02*
X153467333Y-73218344D01*
X153467333Y-73218344D02*
X153534000Y-73351678D01*
X153534000Y-73351678D02*
X153534000Y-73751678D01*
X153534000Y-73751678D02*
X153467333Y-73885011D01*
X153467333Y-73885011D02*
X153400666Y-73951678D01*
X153400666Y-73951678D02*
X153267333Y-74018344D01*
X153267333Y-74018344D02*
X153000666Y-74018344D01*
X153000666Y-74018344D02*
X152867333Y-73951678D01*
X154334000Y-74018344D02*
X154200667Y-73951678D01*
X154200667Y-73951678D02*
X154134000Y-73885011D01*
X154134000Y-73885011D02*
X154067333Y-73751678D01*
X154067333Y-73751678D02*
X154067333Y-73351678D01*
X154067333Y-73351678D02*
X154134000Y-73218344D01*
X154134000Y-73218344D02*
X154200667Y-73151678D01*
X154200667Y-73151678D02*
X154334000Y-73085011D01*
X154334000Y-73085011D02*
X154534000Y-73085011D01*
X154534000Y-73085011D02*
X154667333Y-73151678D01*
X154667333Y-73151678D02*
X154734000Y-73218344D01*
X154734000Y-73218344D02*
X154800667Y-73351678D01*
X154800667Y-73351678D02*
X154800667Y-73751678D01*
X154800667Y-73751678D02*
X154734000Y-73885011D01*
X154734000Y-73885011D02*
X154667333Y-73951678D01*
X154667333Y-73951678D02*
X154534000Y-74018344D01*
X154534000Y-74018344D02*
X154334000Y-74018344D01*
X156000667Y-74018344D02*
X156000667Y-73285011D01*
X156000667Y-73285011D02*
X155934000Y-73151678D01*
X155934000Y-73151678D02*
X155800667Y-73085011D01*
X155800667Y-73085011D02*
X155534000Y-73085011D01*
X155534000Y-73085011D02*
X155400667Y-73151678D01*
X156000667Y-73951678D02*
X155867334Y-74018344D01*
X155867334Y-74018344D02*
X155534000Y-74018344D01*
X155534000Y-74018344D02*
X155400667Y-73951678D01*
X155400667Y-73951678D02*
X155334000Y-73818344D01*
X155334000Y-73818344D02*
X155334000Y-73685011D01*
X155334000Y-73685011D02*
X155400667Y-73551678D01*
X155400667Y-73551678D02*
X155534000Y-73485011D01*
X155534000Y-73485011D02*
X155867334Y-73485011D01*
X155867334Y-73485011D02*
X156000667Y-73418344D01*
X156667334Y-74018344D02*
X156667334Y-73085011D01*
X156667334Y-73351678D02*
X156734001Y-73218344D01*
X156734001Y-73218344D02*
X156800667Y-73151678D01*
X156800667Y-73151678D02*
X156934001Y-73085011D01*
X156934001Y-73085011D02*
X157067334Y-73085011D01*
X158134001Y-74018344D02*
X158134001Y-72618344D01*
X158134001Y-73951678D02*
X158000668Y-74018344D01*
X158000668Y-74018344D02*
X157734001Y-74018344D01*
X157734001Y-74018344D02*
X157600668Y-73951678D01*
X157600668Y-73951678D02*
X157534001Y-73885011D01*
X157534001Y-73885011D02*
X157467334Y-73751678D01*
X157467334Y-73751678D02*
X157467334Y-73351678D01*
X157467334Y-73351678D02*
X157534001Y-73218344D01*
X157534001Y-73218344D02*
X157600668Y-73151678D01*
X157600668Y-73151678D02*
X157734001Y-73085011D01*
X157734001Y-73085011D02*
X158000668Y-73085011D01*
X158000668Y-73085011D02*
X158134001Y-73151678D01*
X130300664Y-75338933D02*
X130633997Y-76272266D01*
X130633997Y-76272266D02*
X130967330Y-75338933D01*
X132233997Y-76272266D02*
X131433997Y-76272266D01*
X131833997Y-76272266D02*
X131833997Y-74872266D01*
X131833997Y-74872266D02*
X131700664Y-75072266D01*
X131700664Y-75072266D02*
X131567331Y-75205600D01*
X131567331Y-75205600D02*
X131433997Y-75272266D01*
X132833997Y-76138933D02*
X132900664Y-76205600D01*
X132900664Y-76205600D02*
X132833997Y-76272266D01*
X132833997Y-76272266D02*
X132767330Y-76205600D01*
X132767330Y-76205600D02*
X132833997Y-76138933D01*
X132833997Y-76138933D02*
X132833997Y-76272266D01*
X133767331Y-74872266D02*
X133900664Y-74872266D01*
X133900664Y-74872266D02*
X134033997Y-74938933D01*
X134033997Y-74938933D02*
X134100664Y-75005600D01*
X134100664Y-75005600D02*
X134167331Y-75138933D01*
X134167331Y-75138933D02*
X134233997Y-75405600D01*
X134233997Y-75405600D02*
X134233997Y-75738933D01*
X134233997Y-75738933D02*
X134167331Y-76005600D01*
X134167331Y-76005600D02*
X134100664Y-76138933D01*
X134100664Y-76138933D02*
X134033997Y-76205600D01*
X134033997Y-76205600D02*
X133900664Y-76272266D01*
X133900664Y-76272266D02*
X133767331Y-76272266D01*
X133767331Y-76272266D02*
X133633997Y-76205600D01*
X133633997Y-76205600D02*
X133567331Y-76138933D01*
X133567331Y-76138933D02*
X133500664Y-76005600D01*
X133500664Y-76005600D02*
X133433997Y-75738933D01*
X133433997Y-75738933D02*
X133433997Y-75405600D01*
X133433997Y-75405600D02*
X133500664Y-75138933D01*
X133500664Y-75138933D02*
X133567331Y-75005600D01*
X133567331Y-75005600D02*
X133633997Y-74938933D01*
X133633997Y-74938933D02*
X133767331Y-74872266D01*
X135900664Y-75738933D02*
X136967331Y-75738933D01*
X139300664Y-75338933D02*
X139300664Y-76472266D01*
X139300664Y-76472266D02*
X139233997Y-76605600D01*
X139233997Y-76605600D02*
X139167331Y-76672266D01*
X139167331Y-76672266D02*
X139033997Y-76738933D01*
X139033997Y-76738933D02*
X138833997Y-76738933D01*
X138833997Y-76738933D02*
X138700664Y-76672266D01*
X139300664Y-76205600D02*
X139167331Y-76272266D01*
X139167331Y-76272266D02*
X138900664Y-76272266D01*
X138900664Y-76272266D02*
X138767331Y-76205600D01*
X138767331Y-76205600D02*
X138700664Y-76138933D01*
X138700664Y-76138933D02*
X138633997Y-76005600D01*
X138633997Y-76005600D02*
X138633997Y-75605600D01*
X138633997Y-75605600D02*
X138700664Y-75472266D01*
X138700664Y-75472266D02*
X138767331Y-75405600D01*
X138767331Y-75405600D02*
X138900664Y-75338933D01*
X138900664Y-75338933D02*
X139167331Y-75338933D01*
X139167331Y-75338933D02*
X139300664Y-75405600D01*
X139967331Y-76272266D02*
X139967331Y-75338933D01*
X139967331Y-74872266D02*
X139900664Y-74938933D01*
X139900664Y-74938933D02*
X139967331Y-75005600D01*
X139967331Y-75005600D02*
X140033998Y-74938933D01*
X140033998Y-74938933D02*
X139967331Y-74872266D01*
X139967331Y-74872266D02*
X139967331Y-75005600D01*
X140433998Y-75338933D02*
X140967331Y-75338933D01*
X140633998Y-74872266D02*
X140633998Y-76072266D01*
X140633998Y-76072266D02*
X140700665Y-76205600D01*
X140700665Y-76205600D02*
X140833998Y-76272266D01*
X140833998Y-76272266D02*
X140967331Y-76272266D01*
X141433998Y-76272266D02*
X141433998Y-74872266D01*
X142033998Y-76272266D02*
X142033998Y-75538933D01*
X142033998Y-75538933D02*
X141967331Y-75405600D01*
X141967331Y-75405600D02*
X141833998Y-75338933D01*
X141833998Y-75338933D02*
X141633998Y-75338933D01*
X141633998Y-75338933D02*
X141500665Y-75405600D01*
X141500665Y-75405600D02*
X141433998Y-75472266D01*
X143300665Y-75338933D02*
X143300665Y-76272266D01*
X142700665Y-75338933D02*
X142700665Y-76072266D01*
X142700665Y-76072266D02*
X142767332Y-76205600D01*
X142767332Y-76205600D02*
X142900665Y-76272266D01*
X142900665Y-76272266D02*
X143100665Y-76272266D01*
X143100665Y-76272266D02*
X143233998Y-76205600D01*
X143233998Y-76205600D02*
X143300665Y-76138933D01*
X143967332Y-76272266D02*
X143967332Y-74872266D01*
X143967332Y-75405600D02*
X144100665Y-75338933D01*
X144100665Y-75338933D02*
X144367332Y-75338933D01*
X144367332Y-75338933D02*
X144500665Y-75405600D01*
X144500665Y-75405600D02*
X144567332Y-75472266D01*
X144567332Y-75472266D02*
X144633999Y-75605600D01*
X144633999Y-75605600D02*
X144633999Y-76005600D01*
X144633999Y-76005600D02*
X144567332Y-76138933D01*
X144567332Y-76138933D02*
X144500665Y-76205600D01*
X144500665Y-76205600D02*
X144367332Y-76272266D01*
X144367332Y-76272266D02*
X144100665Y-76272266D01*
X144100665Y-76272266D02*
X143967332Y-76205600D01*
X145233999Y-76138933D02*
X145300666Y-76205600D01*
X145300666Y-76205600D02*
X145233999Y-76272266D01*
X145233999Y-76272266D02*
X145167332Y-76205600D01*
X145167332Y-76205600D02*
X145233999Y-76138933D01*
X145233999Y-76138933D02*
X145233999Y-76272266D01*
X146500666Y-76205600D02*
X146367333Y-76272266D01*
X146367333Y-76272266D02*
X146100666Y-76272266D01*
X146100666Y-76272266D02*
X145967333Y-76205600D01*
X145967333Y-76205600D02*
X145900666Y-76138933D01*
X145900666Y-76138933D02*
X145833999Y-76005600D01*
X145833999Y-76005600D02*
X145833999Y-75605600D01*
X145833999Y-75605600D02*
X145900666Y-75472266D01*
X145900666Y-75472266D02*
X145967333Y-75405600D01*
X145967333Y-75405600D02*
X146100666Y-75338933D01*
X146100666Y-75338933D02*
X146367333Y-75338933D01*
X146367333Y-75338933D02*
X146500666Y-75405600D01*
X147300666Y-76272266D02*
X147167333Y-76205600D01*
X147167333Y-76205600D02*
X147100666Y-76138933D01*
X147100666Y-76138933D02*
X147033999Y-76005600D01*
X147033999Y-76005600D02*
X147033999Y-75605600D01*
X147033999Y-75605600D02*
X147100666Y-75472266D01*
X147100666Y-75472266D02*
X147167333Y-75405600D01*
X147167333Y-75405600D02*
X147300666Y-75338933D01*
X147300666Y-75338933D02*
X147500666Y-75338933D01*
X147500666Y-75338933D02*
X147633999Y-75405600D01*
X147633999Y-75405600D02*
X147700666Y-75472266D01*
X147700666Y-75472266D02*
X147767333Y-75605600D01*
X147767333Y-75605600D02*
X147767333Y-76005600D01*
X147767333Y-76005600D02*
X147700666Y-76138933D01*
X147700666Y-76138933D02*
X147633999Y-76205600D01*
X147633999Y-76205600D02*
X147500666Y-76272266D01*
X147500666Y-76272266D02*
X147300666Y-76272266D01*
X148367333Y-76272266D02*
X148367333Y-75338933D01*
X148367333Y-75472266D02*
X148434000Y-75405600D01*
X148434000Y-75405600D02*
X148567333Y-75338933D01*
X148567333Y-75338933D02*
X148767333Y-75338933D01*
X148767333Y-75338933D02*
X148900666Y-75405600D01*
X148900666Y-75405600D02*
X148967333Y-75538933D01*
X148967333Y-75538933D02*
X148967333Y-76272266D01*
X148967333Y-75538933D02*
X149034000Y-75405600D01*
X149034000Y-75405600D02*
X149167333Y-75338933D01*
X149167333Y-75338933D02*
X149367333Y-75338933D01*
X149367333Y-75338933D02*
X149500666Y-75405600D01*
X149500666Y-75405600D02*
X149567333Y-75538933D01*
X149567333Y-75538933D02*
X149567333Y-76272266D01*
X151234000Y-74805600D02*
X150034000Y-76605600D01*
X151700667Y-76272266D02*
X151700667Y-75338933D01*
X151700667Y-75605600D02*
X151767334Y-75472266D01*
X151767334Y-75472266D02*
X151834000Y-75405600D01*
X151834000Y-75405600D02*
X151967334Y-75338933D01*
X151967334Y-75338933D02*
X152100667Y-75338933D01*
X153167334Y-76272266D02*
X153167334Y-75538933D01*
X153167334Y-75538933D02*
X153100667Y-75405600D01*
X153100667Y-75405600D02*
X152967334Y-75338933D01*
X152967334Y-75338933D02*
X152700667Y-75338933D01*
X152700667Y-75338933D02*
X152567334Y-75405600D01*
X153167334Y-76205600D02*
X153034001Y-76272266D01*
X153034001Y-76272266D02*
X152700667Y-76272266D01*
X152700667Y-76272266D02*
X152567334Y-76205600D01*
X152567334Y-76205600D02*
X152500667Y-76072266D01*
X152500667Y-76072266D02*
X152500667Y-75938933D01*
X152500667Y-75938933D02*
X152567334Y-75805600D01*
X152567334Y-75805600D02*
X152700667Y-75738933D01*
X152700667Y-75738933D02*
X153034001Y-75738933D01*
X153034001Y-75738933D02*
X153167334Y-75672266D01*
X153834001Y-75338933D02*
X153834001Y-76738933D01*
X153834001Y-75405600D02*
X153967334Y-75338933D01*
X153967334Y-75338933D02*
X154234001Y-75338933D01*
X154234001Y-75338933D02*
X154367334Y-75405600D01*
X154367334Y-75405600D02*
X154434001Y-75472266D01*
X154434001Y-75472266D02*
X154500668Y-75605600D01*
X154500668Y-75605600D02*
X154500668Y-76005600D01*
X154500668Y-76005600D02*
X154434001Y-76138933D01*
X154434001Y-76138933D02*
X154367334Y-76205600D01*
X154367334Y-76205600D02*
X154234001Y-76272266D01*
X154234001Y-76272266D02*
X153967334Y-76272266D01*
X153967334Y-76272266D02*
X153834001Y-76205600D01*
X155100668Y-76272266D02*
X155100668Y-74872266D01*
X155700668Y-76272266D02*
X155700668Y-75538933D01*
X155700668Y-75538933D02*
X155634001Y-75405600D01*
X155634001Y-75405600D02*
X155500668Y-75338933D01*
X155500668Y-75338933D02*
X155300668Y-75338933D01*
X155300668Y-75338933D02*
X155167335Y-75405600D01*
X155167335Y-75405600D02*
X155100668Y-75472266D01*
X156234002Y-75338933D02*
X156500668Y-76272266D01*
X156500668Y-76272266D02*
X156767335Y-75605600D01*
X156767335Y-75605600D02*
X157034002Y-76272266D01*
X157034002Y-76272266D02*
X157300668Y-75338933D01*
X158367335Y-76205600D02*
X158234002Y-76272266D01*
X158234002Y-76272266D02*
X157967335Y-76272266D01*
X157967335Y-76272266D02*
X157834002Y-76205600D01*
X157834002Y-76205600D02*
X157767335Y-76072266D01*
X157767335Y-76072266D02*
X157767335Y-75538933D01*
X157767335Y-75538933D02*
X157834002Y-75405600D01*
X157834002Y-75405600D02*
X157967335Y-75338933D01*
X157967335Y-75338933D02*
X158234002Y-75338933D01*
X158234002Y-75338933D02*
X158367335Y-75405600D01*
X158367335Y-75405600D02*
X158434002Y-75538933D01*
X158434002Y-75538933D02*
X158434002Y-75672266D01*
X158434002Y-75672266D02*
X157767335Y-75805600D01*
X159034002Y-76272266D02*
X159034002Y-74872266D01*
X159034002Y-75405600D02*
X159167335Y-75338933D01*
X159167335Y-75338933D02*
X159434002Y-75338933D01*
X159434002Y-75338933D02*
X159567335Y-75405600D01*
X159567335Y-75405600D02*
X159634002Y-75472266D01*
X159634002Y-75472266D02*
X159700669Y-75605600D01*
X159700669Y-75605600D02*
X159700669Y-76005600D01*
X159700669Y-76005600D02*
X159634002Y-76138933D01*
X159634002Y-76138933D02*
X159567335Y-76205600D01*
X159567335Y-76205600D02*
X159434002Y-76272266D01*
X159434002Y-76272266D02*
X159167335Y-76272266D01*
X159167335Y-76272266D02*
X159034002Y-76205600D01*
D11*
G36*
X190366038Y-64909860D02*
G01*
X190478624Y-64917929D01*
X190590792Y-64931378D01*
X190702332Y-64950206D01*
X190813037Y-64974414D01*
X190922697Y-65004001D01*
X191031103Y-65038968D01*
X191138047Y-65079315D01*
X191243320Y-65125040D01*
X191346713Y-65176146D01*
X191448018Y-65232631D01*
X191547025Y-65294495D01*
X191643525Y-65361739D01*
X191737311Y-65434363D01*
X191828172Y-65512366D01*
X191915901Y-65595748D01*
X191999284Y-65683478D01*
X192077287Y-65774340D01*
X192149910Y-65868127D01*
X192217154Y-65964629D01*
X192279018Y-66063638D01*
X192335503Y-66164944D01*
X192386609Y-66268338D01*
X192432334Y-66373613D01*
X192472681Y-66480558D01*
X192507648Y-66588965D01*
X192537235Y-66698625D01*
X192561443Y-66809329D01*
X192580271Y-66920868D01*
X192593720Y-67033033D01*
X192601789Y-67145616D01*
X192604479Y-67258406D01*
X192601789Y-67371196D01*
X192593720Y-67483777D01*
X192580271Y-67595939D01*
X192561443Y-67707473D01*
X192537235Y-67818172D01*
X192507648Y-67927824D01*
X192472681Y-68036223D01*
X192432334Y-68143159D01*
X192386609Y-68248422D01*
X192335503Y-68351805D01*
X192279018Y-68453097D01*
X192217154Y-68552091D01*
X192149910Y-68648577D01*
X192077287Y-68742346D01*
X191999284Y-68833190D01*
X191915901Y-68920899D01*
X191828172Y-69004301D01*
X191737310Y-69082323D01*
X191643524Y-69154964D01*
X191547023Y-69222224D01*
X191448015Y-69284104D01*
X191346709Y-69340602D01*
X191243315Y-69391720D01*
X191138042Y-69437457D01*
X191031097Y-69477813D01*
X190922690Y-69512788D01*
X190813030Y-69542382D01*
X190702326Y-69566596D01*
X190590786Y-69585429D01*
X190478620Y-69598881D01*
X190366036Y-69606952D01*
X190253243Y-69609643D01*
X190140450Y-69606952D01*
X190027866Y-69598881D01*
X189915699Y-69585429D01*
X189804160Y-69566596D01*
X189693455Y-69542382D01*
X189583795Y-69512788D01*
X189475389Y-69477813D01*
X189368444Y-69437457D01*
X189263170Y-69391720D01*
X189159776Y-69340602D01*
X189058471Y-69284104D01*
X188959463Y-69222224D01*
X188862961Y-69154964D01*
X188769175Y-69082323D01*
X188678313Y-69004301D01*
X188590584Y-68920899D01*
X188507202Y-68833190D01*
X188429199Y-68742346D01*
X188356575Y-68648577D01*
X188289331Y-68552091D01*
X188227467Y-68453097D01*
X188170982Y-68351804D01*
X188143185Y-68295573D01*
X188119877Y-68248422D01*
X188074151Y-68143158D01*
X188033805Y-68036223D01*
X187998838Y-67927824D01*
X187969251Y-67818171D01*
X187945043Y-67707473D01*
X187926215Y-67595939D01*
X187912766Y-67483777D01*
X187904697Y-67371196D01*
X187902007Y-67258406D01*
X187904697Y-67145616D01*
X187912766Y-67033033D01*
X187926215Y-66920868D01*
X187945043Y-66809329D01*
X187969251Y-66698625D01*
X187998838Y-66588965D01*
X188033805Y-66480558D01*
X188074151Y-66373613D01*
X188119877Y-66268338D01*
X188143156Y-66221240D01*
X189584756Y-66221240D01*
X189584756Y-68295573D01*
X190921729Y-68295573D01*
X190921729Y-66221240D01*
X189584756Y-66221240D01*
X188143156Y-66221240D01*
X188170982Y-66164944D01*
X188227467Y-66063637D01*
X188289331Y-65964629D01*
X188356575Y-65868127D01*
X188429199Y-65774340D01*
X188507202Y-65683477D01*
X188590584Y-65595748D01*
X188678313Y-65512366D01*
X188769175Y-65434363D01*
X188862960Y-65361739D01*
X188959461Y-65294495D01*
X189058468Y-65232631D01*
X189159772Y-65176146D01*
X189263165Y-65125040D01*
X189368438Y-65079315D01*
X189475382Y-65038968D01*
X189583789Y-65004001D01*
X189693449Y-64974414D01*
X189804153Y-64950206D01*
X189915694Y-64931378D01*
X190027861Y-64917929D01*
X190140447Y-64909860D01*
X190253243Y-64907170D01*
X190366038Y-64909860D01*
G37*
G36*
X195660665Y-69586409D02*
G01*
X195678936Y-69609642D01*
X195660665Y-69609642D01*
X194688321Y-69609642D01*
X193892173Y-69609642D01*
X193892173Y-68081508D01*
X193034922Y-68081508D01*
X193034922Y-69609642D01*
X191976590Y-69609642D01*
X191976590Y-64907170D01*
X194688321Y-68351466D01*
X194688321Y-64907170D01*
X195660665Y-64907170D01*
X195660665Y-69586409D01*
G37*
G36*
X188196463Y-66829781D02*
G01*
X187224119Y-66829781D01*
X187224119Y-67687031D01*
X188196463Y-67687031D01*
X188196463Y-69609642D01*
X186773831Y-69609642D01*
X186773831Y-67900434D01*
X185916580Y-67900434D01*
X185916580Y-69609642D01*
X184494004Y-69609642D01*
X184494004Y-66835073D01*
X184494004Y-65977823D01*
X185916580Y-65977823D01*
X185916580Y-66835073D01*
X186773831Y-66835073D01*
X186773831Y-65977823D01*
X185916580Y-65977823D01*
X184494004Y-65977823D01*
X184494004Y-64907170D01*
X188196463Y-64907170D01*
X188196463Y-66829781D01*
G37*
G36*
X185423980Y-66040000D02*
G01*
X182636922Y-66040000D01*
X182636922Y-69609642D01*
X181356000Y-69609642D01*
X181356000Y-66040000D01*
X179512896Y-66040000D01*
X179512896Y-64907170D01*
X185423980Y-64907170D01*
X185423980Y-66040000D01*
G37*
G36*
X178100053Y-65854498D02*
G01*
X178100053Y-68029786D01*
X178957303Y-68029786D01*
X178957303Y-66659244D01*
X179736996Y-67391148D01*
X179736996Y-68029786D01*
X180417306Y-68029786D01*
X181359140Y-68913907D01*
X179736996Y-68913907D01*
X179736996Y-69610258D01*
X178971441Y-69610258D01*
X178971441Y-68913907D01*
X177091412Y-68913907D01*
X177091412Y-64907703D01*
X178100053Y-65854498D01*
G37*
G36*
X177091932Y-69610258D02*
G01*
X176969313Y-69610258D01*
X176124218Y-69610258D01*
X174773272Y-69610258D01*
X174773272Y-67908491D01*
X173916022Y-67908491D01*
X173916022Y-69610258D01*
X172965341Y-69610258D01*
X172965341Y-64907703D01*
X176124218Y-68617739D01*
X176124218Y-64907703D01*
X177091932Y-64907703D01*
X177091932Y-69610258D01*
G37*
G36*
X173476814Y-69610258D02*
G01*
X171554203Y-69610258D01*
X171554203Y-67899231D01*
X170696953Y-67899231D01*
X170696953Y-69610258D01*
X168774342Y-69610258D01*
X171125578Y-64907703D01*
X173476814Y-69610258D01*
G37*
G36*
X167696512Y-64910393D02*
G01*
X167809098Y-64918462D01*
X167921265Y-64931911D01*
X168032806Y-64950739D01*
X168143510Y-64974947D01*
X168253170Y-65004534D01*
X168361576Y-65039501D01*
X168468521Y-65079847D01*
X168573794Y-65125573D01*
X168677187Y-65176679D01*
X168778491Y-65233164D01*
X168877498Y-65295028D01*
X168973999Y-65362272D01*
X169067784Y-65434895D01*
X169158646Y-65512898D01*
X169246375Y-65596281D01*
X169310351Y-65662790D01*
X169371201Y-65731147D01*
X169428927Y-65801257D01*
X169483528Y-65873030D01*
X169535006Y-65946373D01*
X169583362Y-66021193D01*
X169628598Y-66097397D01*
X169670713Y-66174895D01*
X169709709Y-66253592D01*
X169745587Y-66333397D01*
X169778348Y-66414217D01*
X169807993Y-66495960D01*
X169834522Y-66578534D01*
X169857938Y-66661846D01*
X169878240Y-66745803D01*
X169895431Y-66830314D01*
X168252203Y-66830314D01*
X168252203Y-66221772D01*
X166915148Y-66221772D01*
X166915148Y-68296106D01*
X168252203Y-68296106D01*
X168252203Y-67687564D01*
X169895431Y-67687564D01*
X169878242Y-67772080D01*
X169857942Y-67856043D01*
X169834528Y-67939360D01*
X169808000Y-68021940D01*
X169778357Y-68103688D01*
X169745597Y-68184514D01*
X169709720Y-68264325D01*
X169670724Y-68343028D01*
X169628609Y-68420530D01*
X169583374Y-68496740D01*
X169535017Y-68571565D01*
X169483538Y-68644913D01*
X169428935Y-68716690D01*
X169371207Y-68786806D01*
X169310354Y-68855166D01*
X169246375Y-68921680D01*
X169158645Y-69005062D01*
X169067783Y-69083065D01*
X168973995Y-69155689D01*
X168877493Y-69222933D01*
X168778483Y-69284797D01*
X168677175Y-69341282D01*
X168573779Y-69392387D01*
X168468502Y-69438113D01*
X168361555Y-69478460D01*
X168253145Y-69513427D01*
X168143481Y-69543014D01*
X168032774Y-69567222D01*
X167921230Y-69586050D01*
X167809060Y-69599499D01*
X167696472Y-69607568D01*
X167583675Y-69610258D01*
X167470879Y-69607568D01*
X167358291Y-69599499D01*
X167246121Y-69586050D01*
X167134577Y-69567222D01*
X167023869Y-69543014D01*
X166914206Y-69513427D01*
X166805796Y-69478460D01*
X166698848Y-69438113D01*
X166593572Y-69392387D01*
X166490175Y-69341282D01*
X166388868Y-69284797D01*
X166289858Y-69222933D01*
X166193355Y-69155689D01*
X166099568Y-69083065D01*
X166008705Y-69005062D01*
X165920976Y-68921680D01*
X165837594Y-68833950D01*
X165759591Y-68743088D01*
X165686967Y-68649300D01*
X165619723Y-68552798D01*
X165557859Y-68453788D01*
X165501374Y-68352480D01*
X165450268Y-68249084D01*
X165404543Y-68143807D01*
X165364196Y-68036860D01*
X165329229Y-67928450D01*
X165299642Y-67818786D01*
X165275434Y-67708079D01*
X165256606Y-67596535D01*
X165243157Y-67484365D01*
X165235088Y-67371777D01*
X165232398Y-67258980D01*
X165235088Y-67146184D01*
X165243157Y-67033596D01*
X165256606Y-66921426D01*
X165275434Y-66809882D01*
X165299642Y-66699174D01*
X165329229Y-66589511D01*
X165364196Y-66481101D01*
X165404543Y-66374153D01*
X165450268Y-66268877D01*
X165501374Y-66165480D01*
X165557859Y-66064173D01*
X165619723Y-65965163D01*
X165686967Y-65868660D01*
X165759591Y-65774873D01*
X165837594Y-65684010D01*
X165920976Y-65596281D01*
X166008706Y-65512898D01*
X166099570Y-65434895D01*
X166193360Y-65362272D01*
X166289866Y-65295028D01*
X166388879Y-65233164D01*
X166490190Y-65176679D01*
X166593591Y-65125573D01*
X166698872Y-65079847D01*
X166805824Y-65039501D01*
X166914237Y-65004534D01*
X167023904Y-64974947D01*
X167134615Y-64950739D01*
X167246161Y-64931911D01*
X167358332Y-64918462D01*
X167470921Y-64910393D01*
X167583717Y-64907703D01*
X167696512Y-64910393D01*
G37*
D12*
%TO.C,C1*%
X170180000Y-73700000D03*
D13*
X170180000Y-76200000D03*
%TD*%
D12*
%TO.C,C2*%
X190500000Y-73700000D03*
D13*
X190500000Y-76200000D03*
%TD*%
D14*
%TO.C,J5-BUS6*%
X147320000Y-27940000D03*
D15*
X144780000Y-27940000D03*
%TD*%
D14*
%TO.C,J5-BUS5*%
X124460000Y-27940000D03*
D15*
X121920000Y-27940000D03*
%TD*%
D12*
%TO.C,R1-ESP5*%
X121920000Y-58420000D03*
X129540000Y-58420000D03*
%TD*%
%TO.C,R1-ESP4*%
X124460000Y-86360000D03*
X116840000Y-86360000D03*
%TD*%
D16*
%TO.C,Q2-ESP6*%
X143190000Y-42575000D03*
X141290000Y-42575000D03*
X142240000Y-44450000D03*
%TD*%
D14*
%TO.C,J2-ESP2*%
X160020000Y-114300000D03*
D15*
X160020000Y-111760000D03*
X160020000Y-109220000D03*
X160020000Y-106680000D03*
X160020000Y-104140000D03*
X160020000Y-101600000D03*
X160020000Y-99060000D03*
X160020000Y-96520000D03*
%TD*%
D12*
%TO.C,R1-ESP1*%
X193040000Y-86360000D03*
X185420000Y-86360000D03*
%TD*%
D17*
%TO.C,SW-ESP1*%
X195380000Y-89820000D03*
D18*
X198120000Y-89820000D03*
D17*
X200860000Y-89820000D03*
X200860000Y-83820000D03*
D18*
X198120000Y-83820000D03*
D17*
X195380000Y-83820000D03*
%TD*%
D14*
%TO.C,COM_PWR_IN1*%
X116840000Y-76200000D03*
D15*
X116840000Y-73660000D03*
X116840000Y-71120000D03*
X116840000Y-68580000D03*
%TD*%
D19*
%TO.C,U1*%
X176580000Y-73900000D03*
X176580000Y-76200000D03*
D20*
X182880000Y-76200000D03*
D19*
X176580000Y-78500000D03*
%TD*%
D12*
%TO.C,R1-ESP3*%
X147320000Y-86360000D03*
X139700000Y-86360000D03*
%TD*%
D14*
%TO.C,J2-ESP8*%
X200660000Y-30480000D03*
D15*
X200660000Y-33020000D03*
X200660000Y-35560000D03*
X200660000Y-38100000D03*
X200660000Y-40640000D03*
X200660000Y-43180000D03*
X200660000Y-45720000D03*
X200660000Y-48260000D03*
%TD*%
D14*
%TO.C,J3-BUS2*%
X172720000Y-93980000D03*
D15*
X170180000Y-93980000D03*
X167640000Y-93980000D03*
X165100000Y-93980000D03*
%TD*%
D17*
%TO.C,SW-ESP2*%
X172520000Y-89820000D03*
D18*
X175260000Y-89820000D03*
D17*
X178000000Y-89820000D03*
X178000000Y-83820000D03*
D18*
X175260000Y-83820000D03*
D17*
X172520000Y-83820000D03*
%TD*%
D14*
%TO.C,J1-ESP2*%
X177800000Y-114300000D03*
D15*
X177800000Y-111760000D03*
X177800000Y-109220000D03*
X177800000Y-106680000D03*
X177800000Y-104140000D03*
X177800000Y-101600000D03*
X177800000Y-99060000D03*
X177800000Y-96520000D03*
%TD*%
D17*
%TO.C,SW-ESP5*%
X119580000Y-54960000D03*
D18*
X116840000Y-54960000D03*
D17*
X114100000Y-54960000D03*
X114100000Y-60960000D03*
D18*
X116840000Y-60960000D03*
D17*
X119580000Y-60960000D03*
%TD*%
D21*
%TO.C,Q1-ESP8*%
X195580000Y-43180000D03*
D22*
X194310000Y-43180000D03*
X193040000Y-43180000D03*
%TD*%
D14*
%TO.C,J4-BUS6*%
X142240000Y-48260000D03*
D15*
X144780000Y-48260000D03*
X147320000Y-48260000D03*
X149860000Y-48260000D03*
%TD*%
D14*
%TO.C,J4-BUS1*%
X195580000Y-96520000D03*
D15*
X193040000Y-96520000D03*
X190500000Y-96520000D03*
X187960000Y-96520000D03*
%TD*%
D14*
%TO.C,J1*%
X162560000Y-76200000D03*
D15*
X162560000Y-73660000D03*
X162560000Y-71120000D03*
X162560000Y-68580000D03*
%TD*%
D14*
%TO.C,BUS_IN2*%
X116840000Y-25400000D03*
D15*
X116840000Y-22860000D03*
%TD*%
D16*
%TO.C,Q2-ESP5*%
X120330000Y-42575000D03*
X118430000Y-42575000D03*
X119380000Y-44450000D03*
%TD*%
D17*
%TO.C,SW-ESP8*%
X188160000Y-54960000D03*
D18*
X185420000Y-54960000D03*
D17*
X182680000Y-54960000D03*
X182680000Y-60960000D03*
D18*
X185420000Y-60960000D03*
D17*
X188160000Y-60960000D03*
%TD*%
D14*
%TO.C,J2*%
X154940000Y-78740000D03*
D15*
X152400000Y-78740000D03*
X149860000Y-78740000D03*
X147320000Y-78740000D03*
X144780000Y-78740000D03*
X142240000Y-78740000D03*
X139700000Y-78740000D03*
X137160000Y-78740000D03*
X134620000Y-78740000D03*
%TD*%
D14*
%TO.C,J5-BUS7*%
X170180000Y-27940000D03*
D15*
X167640000Y-27940000D03*
%TD*%
D14*
%TO.C,J2-ESP6*%
X154940000Y-30480000D03*
D15*
X154940000Y-33020000D03*
X154940000Y-35560000D03*
X154940000Y-38100000D03*
X154940000Y-40640000D03*
X154940000Y-43180000D03*
X154940000Y-45720000D03*
X154940000Y-48260000D03*
%TD*%
D14*
%TO.C,BUS_OUT2*%
X198120000Y-25400000D03*
D15*
X198120000Y-22860000D03*
%TD*%
D12*
%TO.C,R2-ESP8*%
X187960000Y-31750000D03*
X187960000Y-39370000D03*
%TD*%
D14*
%TO.C,J1-ESP1*%
X200660000Y-114300000D03*
D15*
X200660000Y-111760000D03*
X200660000Y-109220000D03*
X200660000Y-106680000D03*
X200660000Y-104140000D03*
X200660000Y-101600000D03*
X200660000Y-99060000D03*
X200660000Y-96520000D03*
%TD*%
D17*
%TO.C,SW-ESP6*%
X142440000Y-54960000D03*
D18*
X139700000Y-54960000D03*
D17*
X136960000Y-54960000D03*
X136960000Y-60960000D03*
D18*
X139700000Y-60960000D03*
D17*
X142440000Y-60960000D03*
%TD*%
D12*
%TO.C,R2-ESP7*%
X165100000Y-31750000D03*
X165100000Y-39370000D03*
%TD*%
D21*
%TO.C,Q1-ESP1*%
X187960000Y-101600000D03*
D22*
X189230000Y-101600000D03*
X190500000Y-101600000D03*
%TD*%
D14*
%TO.C,COM_PWR_OUT1*%
X198120000Y-76200000D03*
D15*
X198120000Y-73660000D03*
X198120000Y-71120000D03*
X198120000Y-68580000D03*
%TD*%
D12*
%TO.C,R2-ESP2*%
X172720000Y-113030000D03*
X172720000Y-105410000D03*
%TD*%
D14*
%TO.C,J5-BUS3*%
X144780000Y-116840000D03*
D15*
X147320000Y-116840000D03*
%TD*%
D14*
%TO.C,J5-BUS1*%
X190500000Y-116840000D03*
D15*
X193040000Y-116840000D03*
%TD*%
D14*
%TO.C,J1-ESP7*%
X160020000Y-30480000D03*
D15*
X160020000Y-33020000D03*
X160020000Y-35560000D03*
X160020000Y-38100000D03*
X160020000Y-40640000D03*
X160020000Y-43180000D03*
X160020000Y-45720000D03*
X160020000Y-48260000D03*
%TD*%
D14*
%TO.C,J4-BUS4*%
X127000000Y-96520000D03*
D15*
X124460000Y-96520000D03*
X121920000Y-96520000D03*
X119380000Y-96520000D03*
%TD*%
D14*
%TO.C,J2-ESP1*%
X182880000Y-114300000D03*
D15*
X182880000Y-111760000D03*
X182880000Y-109220000D03*
X182880000Y-106680000D03*
X182880000Y-104140000D03*
X182880000Y-101600000D03*
X182880000Y-99060000D03*
X182880000Y-96520000D03*
%TD*%
D14*
%TO.C,J2-ESP5*%
X132080000Y-30480000D03*
D15*
X132080000Y-33020000D03*
X132080000Y-35560000D03*
X132080000Y-38100000D03*
X132080000Y-40640000D03*
X132080000Y-43180000D03*
X132080000Y-45720000D03*
X132080000Y-48260000D03*
%TD*%
D14*
%TO.C,BUS_OUT1*%
X116840000Y-119380000D03*
D15*
X116840000Y-121920000D03*
%TD*%
D14*
%TO.C,J1-ESP5*%
X114300000Y-30480000D03*
D15*
X114300000Y-33020000D03*
X114300000Y-35560000D03*
X114300000Y-38100000D03*
X114300000Y-40640000D03*
X114300000Y-43180000D03*
X114300000Y-45720000D03*
X114300000Y-48260000D03*
%TD*%
D14*
%TO.C,J1-ESP8*%
X182880000Y-30480000D03*
D15*
X182880000Y-33020000D03*
X182880000Y-35560000D03*
X182880000Y-38100000D03*
X182880000Y-40640000D03*
X182880000Y-43180000D03*
X182880000Y-45720000D03*
X182880000Y-48260000D03*
%TD*%
D14*
%TO.C,J2-ESP3*%
X137160000Y-114300000D03*
D15*
X137160000Y-111760000D03*
X137160000Y-109220000D03*
X137160000Y-106680000D03*
X137160000Y-104140000D03*
X137160000Y-101600000D03*
X137160000Y-99060000D03*
X137160000Y-96520000D03*
%TD*%
D14*
%TO.C,BUS_IN1*%
X198120000Y-119380000D03*
D15*
X198120000Y-121920000D03*
%TD*%
D23*
%TO.C,Q2-ESP1*%
X194630000Y-102205000D03*
X196530000Y-102205000D03*
X195580000Y-100330000D03*
%TD*%
D14*
%TO.C,J1-ESP3*%
X154940000Y-114300000D03*
D15*
X154940000Y-111760000D03*
X154940000Y-109220000D03*
X154940000Y-106680000D03*
X154940000Y-104140000D03*
X154940000Y-101600000D03*
X154940000Y-99060000D03*
X154940000Y-96520000D03*
%TD*%
D12*
%TO.C,R1-ESP2*%
X170180000Y-86360000D03*
X162560000Y-86360000D03*
%TD*%
D14*
%TO.C,J3-BUS4*%
X127000000Y-93980000D03*
D15*
X124460000Y-93980000D03*
X121920000Y-93980000D03*
X119380000Y-93980000D03*
%TD*%
D12*
%TO.C,R2-ESP5*%
X119380000Y-31750000D03*
X119380000Y-39370000D03*
%TD*%
%TO.C,R1-ESP8*%
X190500000Y-58420000D03*
X198120000Y-58420000D03*
%TD*%
D14*
%TO.C,J3-BUS7*%
X165100000Y-50800000D03*
D15*
X167640000Y-50800000D03*
X170180000Y-50800000D03*
X172720000Y-50800000D03*
%TD*%
D12*
%TO.C,R1-ESP6*%
X144780000Y-58420000D03*
X152400000Y-58420000D03*
%TD*%
D14*
%TO.C,J4-BUS2*%
X172720000Y-96520000D03*
D15*
X170180000Y-96520000D03*
X167640000Y-96520000D03*
X165100000Y-96520000D03*
%TD*%
D14*
%TO.C,J3-BUS3*%
X149860000Y-93980000D03*
D15*
X147320000Y-93980000D03*
X144780000Y-93980000D03*
X142240000Y-93980000D03*
%TD*%
D23*
%TO.C,Q2-ESP4*%
X126050000Y-102205000D03*
X127950000Y-102205000D03*
X127000000Y-100330000D03*
%TD*%
D17*
%TO.C,SW-ESP4*%
X126800000Y-89820000D03*
D18*
X129540000Y-89820000D03*
D17*
X132280000Y-89820000D03*
X132280000Y-83820000D03*
D18*
X129540000Y-83820000D03*
D17*
X126800000Y-83820000D03*
%TD*%
D14*
%TO.C,J1-ESP4*%
X132080000Y-114300000D03*
D15*
X132080000Y-111760000D03*
X132080000Y-109220000D03*
X132080000Y-106680000D03*
X132080000Y-104140000D03*
X132080000Y-101600000D03*
X132080000Y-99060000D03*
X132080000Y-96520000D03*
%TD*%
D14*
%TO.C,J1-ESP6*%
X137160000Y-30480000D03*
D15*
X137160000Y-33020000D03*
X137160000Y-35560000D03*
X137160000Y-38100000D03*
X137160000Y-40640000D03*
X137160000Y-43180000D03*
X137160000Y-45720000D03*
X137160000Y-48260000D03*
%TD*%
D12*
%TO.C,R2-ESP4*%
X127000000Y-113030000D03*
X127000000Y-105410000D03*
%TD*%
D21*
%TO.C,Q1-ESP3*%
X142240000Y-101600000D03*
D22*
X143510000Y-101600000D03*
X144780000Y-101600000D03*
%TD*%
D21*
%TO.C,Q1-ESP6*%
X149860000Y-43180000D03*
D22*
X148590000Y-43180000D03*
X147320000Y-43180000D03*
%TD*%
D12*
%TO.C,R1-ESP7*%
X167640000Y-58420000D03*
X175260000Y-58420000D03*
%TD*%
D14*
%TO.C,J5-BUS8*%
X193040000Y-27940000D03*
D15*
X190500000Y-27940000D03*
%TD*%
D12*
%TO.C,R2-ESP3*%
X149860000Y-113030000D03*
X149860000Y-105410000D03*
%TD*%
D21*
%TO.C,Q1-ESP4*%
X119380000Y-101600000D03*
D22*
X120650000Y-101600000D03*
X121920000Y-101600000D03*
%TD*%
D14*
%TO.C,J3-BUS8*%
X187960000Y-50800000D03*
D15*
X190500000Y-50800000D03*
X193040000Y-50800000D03*
X195580000Y-50800000D03*
%TD*%
D14*
%TO.C,J2-ESP4*%
X114300000Y-114300000D03*
D15*
X114300000Y-111760000D03*
X114300000Y-109220000D03*
X114300000Y-106680000D03*
X114300000Y-104140000D03*
X114300000Y-101600000D03*
X114300000Y-99060000D03*
X114300000Y-96520000D03*
%TD*%
D21*
%TO.C,Q1-ESP2*%
X165100000Y-101600000D03*
D22*
X166370000Y-101600000D03*
X167640000Y-101600000D03*
%TD*%
D16*
%TO.C,Q2-ESP7*%
X166050000Y-42575000D03*
X164150000Y-42575000D03*
X165100000Y-44450000D03*
%TD*%
D14*
%TO.C,J4-BUS5*%
X119380000Y-48260000D03*
D15*
X121920000Y-48260000D03*
X124460000Y-48260000D03*
X127000000Y-48260000D03*
%TD*%
D14*
%TO.C,J4-BUS7*%
X165100000Y-48260000D03*
D15*
X167640000Y-48260000D03*
X170180000Y-48260000D03*
X172720000Y-48260000D03*
%TD*%
D17*
%TO.C,SW-ESP7*%
X165300000Y-54960000D03*
D18*
X162560000Y-54960000D03*
D17*
X159820000Y-54960000D03*
X159820000Y-60960000D03*
D18*
X162560000Y-60960000D03*
D17*
X165300000Y-60960000D03*
%TD*%
D21*
%TO.C,Q1-ESP7*%
X172720000Y-43180000D03*
D22*
X171450000Y-43180000D03*
X170180000Y-43180000D03*
%TD*%
D14*
%TO.C,J3-BUS6*%
X142240000Y-50800000D03*
D15*
X144780000Y-50800000D03*
X147320000Y-50800000D03*
X149860000Y-50800000D03*
%TD*%
D14*
%TO.C,J5-BUS2*%
X167640000Y-116840000D03*
D15*
X170180000Y-116840000D03*
%TD*%
D23*
%TO.C,Q2-ESP2*%
X171770000Y-102205000D03*
X173670000Y-102205000D03*
X172720000Y-100330000D03*
%TD*%
D14*
%TO.C,J3-BUS5*%
X119380000Y-50800000D03*
D15*
X121920000Y-50800000D03*
X124460000Y-50800000D03*
X127000000Y-50800000D03*
%TD*%
D14*
%TO.C,J5-BUS4*%
X121920000Y-116840000D03*
D15*
X124460000Y-116840000D03*
%TD*%
D23*
%TO.C,Q2-ESP3*%
X148910000Y-102205000D03*
X150810000Y-102205000D03*
X149860000Y-100330000D03*
%TD*%
D12*
%TO.C,R2-ESP6*%
X142240000Y-31750000D03*
X142240000Y-39370000D03*
%TD*%
D16*
%TO.C,Q2-ESP8*%
X188910000Y-42575000D03*
X187010000Y-42575000D03*
X187960000Y-44450000D03*
%TD*%
D12*
%TO.C,R2-ESP1*%
X195580000Y-113030000D03*
X195580000Y-105410000D03*
%TD*%
D21*
%TO.C,Q1-ESP5*%
X127000000Y-43180000D03*
D22*
X125730000Y-43180000D03*
X124460000Y-43180000D03*
%TD*%
D14*
%TO.C,J3-BUS1*%
X195580000Y-93980000D03*
D15*
X193040000Y-93980000D03*
X190500000Y-93980000D03*
X187960000Y-93980000D03*
%TD*%
D14*
%TO.C,J4-BUS8*%
X187960000Y-48260000D03*
D15*
X190500000Y-48260000D03*
X193040000Y-48260000D03*
X195580000Y-48260000D03*
%TD*%
D17*
%TO.C,SW-ESP3*%
X149660000Y-89820000D03*
D18*
X152400000Y-89820000D03*
D17*
X155140000Y-89820000D03*
X155140000Y-83820000D03*
D18*
X152400000Y-83820000D03*
D17*
X149660000Y-83820000D03*
%TD*%
D14*
%TO.C,J4-BUS3*%
X149860000Y-96520000D03*
D15*
X147320000Y-96520000D03*
X144780000Y-96520000D03*
X142240000Y-96520000D03*
%TD*%
D14*
%TO.C,J2-ESP7*%
X177800000Y-30480000D03*
D15*
X177800000Y-33020000D03*
X177800000Y-35560000D03*
X177800000Y-38100000D03*
X177800000Y-40640000D03*
X177800000Y-43180000D03*
X177800000Y-45720000D03*
X177800000Y-48260000D03*
%TD*%
M02*
