M48
; DRILL file {KiCad 9.0.5} date 2025-11-11T22:24:32+0100
; FORMAT={-:-/ absolute / metric / decimal}
; #@! TF.CreationDate,2025-11-11T22:24:32+01:00
; #@! TF.GenerationSoftware,Kicad,Pcbnew,9.0.5
; #@! TF.FileFunction,Plated,1,2,PTH
FMAT,2
METRIC
; #@! TA.AperFunction,Plated,PTH,ViaDrill
T1C0.300
; #@! TA.AperFunction,Plated,PTH,ComponentDrill
T2C0.750
; #@! TA.AperFunction,Plated,PTH,ComponentDrill
T3C0.800
; #@! TA.AperFunction,Plated,PTH,ComponentDrill
T4C1.000
; #@! TA.AperFunction,Plated,PTH,ViaDrill
T5C3.500
%
G90
G05
T1
X130.81Y-24.13
X130.81Y-26.67
X130.81Y-118.11
X130.81Y-120.65
X133.35Y-24.13
X133.35Y-26.67
X133.35Y-118.11
X133.35Y-120.65
X135.89Y-24.13
X135.89Y-26.67
X135.89Y-118.11
X135.89Y-120.65
X138.43Y-24.13
X138.43Y-26.67
X138.43Y-118.11
X138.43Y-120.65
X140.97Y-24.13
X140.97Y-26.67
X140.97Y-118.11
X140.97Y-120.65
X143.51Y-24.13
X143.51Y-26.67
X143.51Y-118.11
X143.51Y-120.65
X146.05Y-24.13
X146.05Y-26.67
X146.05Y-118.11
X146.05Y-120.65
X148.59Y-24.13
X148.59Y-26.67
X148.59Y-118.11
X148.59Y-120.65
X151.13Y-24.13
X151.13Y-26.67
X151.13Y-118.11
X151.13Y-120.65
X153.67Y-24.13
X153.67Y-26.67
X153.67Y-118.11
X153.67Y-120.65
X156.21Y-24.13
X156.21Y-26.67
X156.21Y-118.11
X156.21Y-120.65
X158.75Y-24.13
X158.75Y-26.67
X158.75Y-118.11
X158.75Y-120.65
X161.29Y-24.13
X161.29Y-26.67
X161.29Y-118.11
X161.29Y-120.65
X163.83Y-24.13
X163.83Y-26.67
X163.83Y-118.11
X163.83Y-120.65
X166.37Y-24.13
X166.37Y-26.67
X166.37Y-118.11
X166.37Y-120.65
X168.91Y-24.13
X168.91Y-26.67
X168.91Y-118.11
X168.91Y-120.65
X171.45Y-24.13
X171.45Y-26.67
X171.45Y-118.11
X171.45Y-120.65
X173.99Y-24.13
X173.99Y-26.67
X173.99Y-118.11
X173.99Y-120.65
X176.53Y-24.13
X176.53Y-26.67
X176.53Y-118.11
X176.53Y-120.65
X179.07Y-24.13
X179.07Y-26.67
X179.07Y-118.11
X179.07Y-120.65
X181.61Y-24.13
X181.61Y-26.67
X181.61Y-118.11
X181.61Y-120.65
X184.15Y-24.13
X184.15Y-26.67
X184.15Y-118.11
X184.15Y-120.65
X186.69Y-24.13
X186.69Y-26.67
X186.69Y-118.11
X186.69Y-120.65
X189.23Y-24.13
X189.23Y-26.67
X189.23Y-118.11
X189.23Y-120.65
X191.77Y-24.13
X191.77Y-26.67
X191.77Y-118.11
X191.77Y-120.65
X194.31Y-24.13
X194.31Y-26.67
X194.31Y-118.11
X194.31Y-120.65
T2
X128.27Y-101.6
X129.54Y-101.6
X130.81Y-101.6
X133.35Y-43.18
X134.62Y-43.18
X135.89Y-43.18
X148.59Y-101.6
X149.86Y-101.6
X151.13Y-101.6
X153.67Y-43.18
X154.94Y-43.18
X156.21Y-43.18
X168.91Y-101.6
X170.18Y-101.6
X171.45Y-101.6
X173.99Y-43.18
X175.26Y-43.18
X176.53Y-43.18
X189.23Y-101.6
X190.5Y-101.6
X191.77Y-101.6
X194.31Y-43.18
X195.58Y-43.18
X196.85Y-43.18
T3
X125.73Y-55.88
X125.73Y-61.88
X128.27Y-55.88
X128.27Y-61.88
X129.54Y-32.512
X129.54Y-40.132
X129.54Y-82.55
X129.54Y-90.17
X130.81Y-55.88
X130.81Y-61.88
X133.35Y-82.9
X133.35Y-88.9
X134.62Y-54.61
X134.62Y-62.23
X134.62Y-104.648
X134.62Y-112.268
X135.89Y-82.9
X135.89Y-88.9
X138.43Y-82.9
X138.43Y-88.9
X146.05Y-55.88
X146.05Y-61.88
X148.59Y-55.88
X148.59Y-61.88
X149.86Y-32.512
X149.86Y-40.132
X149.86Y-82.55
X149.86Y-90.17
X151.13Y-55.88
X151.13Y-61.88
X153.67Y-82.9
X153.67Y-88.9
X154.94Y-54.61
X154.94Y-62.23
X154.94Y-104.648
X154.94Y-112.268
X156.21Y-82.9
X156.21Y-88.9
X158.75Y-82.9
X158.75Y-88.9
X166.37Y-55.88
X166.37Y-61.88
X168.91Y-55.88
X168.91Y-61.88
X170.18Y-32.512
X170.18Y-40.132
X170.18Y-82.55
X170.18Y-90.17
X171.45Y-55.88
X171.45Y-61.88
X173.99Y-73.66
X173.99Y-76.16
X173.99Y-82.9
X173.99Y-88.9
X175.26Y-54.61
X175.26Y-62.23
X175.26Y-104.648
X175.26Y-112.268
X176.53Y-82.9
X176.53Y-88.9
X179.07Y-82.9
X179.07Y-88.9
X186.69Y-55.88
X186.69Y-61.88
X189.23Y-55.88
X189.23Y-61.88
X190.5Y-32.512
X190.5Y-40.132
X190.5Y-73.66
X190.5Y-76.16
X190.5Y-82.55
X190.5Y-90.17
X191.77Y-55.88
X191.77Y-61.88
X194.31Y-82.9
X194.31Y-88.9
X195.58Y-54.61
X195.58Y-62.23
X195.58Y-104.648
X195.58Y-112.268
X196.85Y-82.9
X196.85Y-88.9
X199.39Y-82.9
X199.39Y-88.9
T4
X124.46Y-30.48
X124.46Y-33.02
X124.46Y-35.56
X124.46Y-38.1
X124.46Y-40.64
X124.46Y-43.18
X124.46Y-45.72
X124.46Y-48.26
X124.46Y-96.52
X124.46Y-99.06
X124.46Y-101.6
X124.46Y-104.14
X124.46Y-106.68
X124.46Y-109.22
X124.46Y-111.76
X124.46Y-114.3
X127.0Y-24.13
X127.0Y-26.67
X127.0Y-68.58
X127.0Y-71.12
X127.0Y-73.66
X127.0Y-76.2
X127.0Y-118.11
X127.0Y-120.65
X128.27Y-48.26
X128.27Y-50.8
X128.27Y-93.98
X128.27Y-96.52
X130.81Y-29.21
X130.81Y-48.26
X130.81Y-50.8
X130.81Y-93.98
X130.81Y-96.52
X130.81Y-115.57
X133.35Y-29.21
X133.35Y-48.26
X133.35Y-50.8
X133.35Y-93.98
X133.35Y-96.52
X133.35Y-115.57
X135.89Y-48.26
X135.89Y-50.8
X135.89Y-93.98
X135.89Y-96.52
X139.7Y-30.48
X139.7Y-33.02
X139.7Y-35.56
X139.7Y-38.1
X139.7Y-40.64
X139.7Y-43.18
X139.7Y-45.72
X139.7Y-48.26
X139.7Y-78.74
X139.7Y-96.52
X139.7Y-99.06
X139.7Y-101.6
X139.7Y-104.14
X139.7Y-106.68
X139.7Y-109.22
X139.7Y-111.76
X139.7Y-114.3
X142.24Y-78.74
X144.755Y-96.505
X144.755Y-99.045
X144.755Y-101.585
X144.755Y-104.125
X144.755Y-106.665
X144.755Y-109.205
X144.755Y-111.745
X144.755Y-114.285
X144.78Y-30.48
X144.78Y-33.02
X144.78Y-35.56
X144.78Y-38.1
X144.78Y-40.64
X144.78Y-43.18
X144.78Y-45.72
X144.78Y-48.26
X144.78Y-78.74
X147.32Y-78.74
X148.59Y-48.26
X148.59Y-50.8
X148.59Y-93.98
X148.59Y-96.52
X149.86Y-78.74
X151.13Y-29.21
X151.13Y-48.26
X151.13Y-50.8
X151.13Y-93.98
X151.13Y-96.52
X151.13Y-115.57
X152.4Y-78.74
X153.67Y-29.21
X153.67Y-48.26
X153.67Y-50.8
X153.67Y-93.98
X153.67Y-96.52
X153.67Y-115.57
X154.94Y-78.74
X156.21Y-48.26
X156.21Y-50.8
X156.21Y-93.98
X156.21Y-96.52
X157.48Y-78.74
X160.02Y-30.48
X160.02Y-33.02
X160.02Y-35.56
X160.02Y-38.1
X160.02Y-40.64
X160.02Y-43.18
X160.02Y-45.72
X160.02Y-48.26
X160.02Y-78.74
X160.02Y-96.52
X160.02Y-99.06
X160.02Y-101.6
X160.02Y-104.14
X160.02Y-106.68
X160.02Y-109.22
X160.02Y-111.76
X160.02Y-114.3
X165.075Y-96.52
X165.075Y-99.06
X165.075Y-101.6
X165.075Y-104.14
X165.075Y-106.68
X165.075Y-109.22
X165.075Y-111.76
X165.075Y-114.3
X165.1Y-30.48
X165.1Y-33.02
X165.1Y-35.56
X165.1Y-38.1
X165.1Y-40.64
X165.1Y-43.18
X165.1Y-45.72
X165.1Y-48.26
X167.64Y-68.58
X167.64Y-71.12
X167.64Y-73.66
X167.64Y-76.2
X168.91Y-48.26
X168.91Y-50.8
X168.91Y-93.98
X168.91Y-96.52
X171.45Y-29.21
X171.45Y-48.26
X171.45Y-50.8
X171.45Y-93.98
X171.45Y-96.52
X171.45Y-115.57
X173.99Y-29.21
X173.99Y-48.26
X173.99Y-50.8
X173.99Y-93.98
X173.99Y-96.52
X173.99Y-115.57
X176.53Y-48.26
X176.53Y-50.8
X176.53Y-93.98
X176.53Y-96.52
X180.34Y-30.48
X180.34Y-33.02
X180.34Y-35.56
X180.34Y-38.1
X180.34Y-40.64
X180.34Y-43.18
X180.34Y-45.72
X180.34Y-48.26
X180.34Y-96.52
X180.34Y-99.06
X180.34Y-101.6
X180.34Y-104.14
X180.34Y-106.68
X180.34Y-109.22
X180.34Y-111.76
X180.34Y-114.3
X185.42Y-30.48
X185.42Y-33.02
X185.42Y-35.56
X185.42Y-38.1
X185.42Y-40.64
X185.42Y-43.18
X185.42Y-45.72
X185.42Y-48.26
X185.42Y-96.52
X185.42Y-99.06
X185.42Y-101.6
X185.42Y-104.14
X185.42Y-106.68
X185.42Y-109.22
X185.42Y-111.76
X185.42Y-114.3
X189.23Y-48.26
X189.23Y-50.8
X189.23Y-93.98
X189.23Y-96.52
X191.77Y-29.21
X191.77Y-48.26
X191.77Y-50.8
X191.77Y-93.98
X191.77Y-96.52
X191.77Y-115.57
X194.31Y-29.21
X194.31Y-48.26
X194.31Y-50.8
X194.31Y-93.98
X194.31Y-96.52
X194.31Y-115.57
X196.85Y-48.26
X196.85Y-50.8
X196.85Y-93.98
X196.85Y-96.52
X198.12Y-24.13
X198.12Y-26.67
X198.12Y-68.58
X198.12Y-71.12
X198.12Y-73.66
X198.12Y-76.2
X198.12Y-118.11
X198.12Y-120.65
X200.66Y-30.48
X200.66Y-33.02
X200.66Y-35.56
X200.66Y-38.1
X200.66Y-40.64
X200.66Y-43.18
X200.66Y-45.72
X200.66Y-48.26
X200.66Y-96.52
X200.66Y-99.06
X200.66Y-101.6
X200.66Y-104.14
X200.66Y-106.68
X200.66Y-109.22
X200.66Y-111.76
X200.66Y-114.3
T5
X129.54Y-110.49
X134.62Y-34.29
X161.29Y-55.88
X163.83Y-88.9
X190.5Y-110.49
X195.58Y-34.29
M30
