M48
; DRILL file {KiCad 9.0.5} date 2025-10-26T18:57:57+0100
; FORMAT={-:-/ absolute / metric / decimal}
; #@! TF.CreationDate,2025-10-26T18:57:57+01:00
; #@! TF.GenerationSoftware,Kicad,Pcbnew,9.0.5
; #@! TF.FileFunction,Plated,1,2,PTH
FMAT,2
METRIC
; #@! TA.AperFunction,Plated,PTH,ViaDrill
T1C0.300
; #@! TA.AperFunction,Plated,PTH,ComponentDrill
T2C0.750
; #@! TA.AperFunction,Plated,PTH,ComponentDrill
T3C0.800
; #@! TA.AperFunction,Plated,PTH,ComponentDrill
T4C1.000
; #@! TA.AperFunction,Plated,PTH,ViaDrill
T5C3.500
%
G90
G05
T1
X130.81Y-22.86
X130.81Y-25.4
X130.81Y-119.38
X130.81Y-121.92
X133.35Y-22.86
X133.35Y-25.4
X133.35Y-119.38
X133.35Y-121.92
X135.89Y-22.86
X135.89Y-25.4
X135.89Y-119.38
X135.89Y-121.92
X138.43Y-22.86
X138.43Y-25.4
X138.43Y-119.38
X138.43Y-121.92
X140.97Y-22.86
X140.97Y-25.4
X140.97Y-119.38
X140.97Y-121.92
X142.24Y-69.596
X143.002Y-68.834
X143.51Y-22.86
X143.51Y-25.4
X143.51Y-119.38
X143.51Y-121.92
X143.764Y-68.072
X146.05Y-22.86
X146.05Y-25.4
X146.05Y-119.38
X146.05Y-121.92
X148.59Y-22.86
X148.59Y-25.4
X148.59Y-119.38
X148.59Y-121.92
X149.098Y-68.072
X149.606Y-68.834
X150.114Y-69.596
X151.13Y-22.86
X151.13Y-25.4
X151.13Y-119.38
X151.13Y-121.92
X153.67Y-22.86
X153.67Y-25.4
X153.67Y-119.38
X153.67Y-121.92
X156.21Y-22.86
X156.21Y-25.4
X156.21Y-119.38
X156.21Y-121.92
X158.75Y-22.86
X158.75Y-25.4
X158.75Y-119.38
X158.75Y-121.92
X161.29Y-22.86
X161.29Y-25.4
X161.29Y-119.38
X161.29Y-121.92
X163.83Y-22.86
X163.83Y-25.4
X163.83Y-119.38
X163.83Y-121.92
X166.37Y-22.86
X166.37Y-25.4
X166.37Y-119.38
X166.37Y-121.92
X168.91Y-22.86
X168.91Y-25.4
X168.91Y-119.38
X168.91Y-121.92
X171.45Y-22.86
X171.45Y-25.4
X171.45Y-119.38
X171.45Y-121.92
X173.99Y-22.86
X173.99Y-25.4
X173.99Y-119.38
X173.99Y-121.92
X176.53Y-22.86
X176.53Y-25.4
X176.53Y-119.38
X176.53Y-121.92
X179.07Y-22.86
X179.07Y-25.4
X179.07Y-119.38
X179.07Y-121.92
X181.61Y-22.86
X181.61Y-25.4
X181.61Y-119.38
X181.61Y-121.92
X184.15Y-22.86
X184.15Y-25.4
X184.15Y-119.38
X184.15Y-121.92
X186.69Y-22.86
X186.69Y-25.4
X186.69Y-119.38
X186.69Y-121.92
X189.23Y-22.86
X189.23Y-25.4
X189.23Y-119.38
X189.23Y-121.92
X191.77Y-22.86
X191.77Y-25.4
X191.77Y-119.38
X191.77Y-121.92
X194.31Y-22.86
X194.31Y-25.4
X194.31Y-119.38
X194.31Y-121.92
T2
X128.27Y-101.6
X129.54Y-101.6
X130.81Y-101.6
X133.35Y-43.18
X134.62Y-43.18
X135.89Y-43.18
X148.59Y-101.6
X149.86Y-101.6
X151.13Y-101.6
X153.67Y-43.18
X154.94Y-43.18
X156.21Y-43.18
X168.91Y-101.6
X170.18Y-101.6
X171.45Y-101.6
X173.99Y-43.18
X175.26Y-43.18
X176.53Y-43.18
X189.23Y-101.6
X190.5Y-101.6
X191.77Y-101.6
X194.31Y-43.18
X195.58Y-43.18
X196.85Y-43.18
T3
X125.73Y-55.88
X125.73Y-61.88
X128.27Y-55.88
X128.27Y-61.88
X129.54Y-31.75
X129.54Y-39.37
X129.54Y-82.55
X129.54Y-90.17
X130.81Y-55.88
X130.81Y-61.88
X133.35Y-82.9
X133.35Y-88.9
X134.62Y-54.61
X134.62Y-62.23
X134.62Y-105.41
X134.62Y-113.03
X135.89Y-82.9
X135.89Y-88.9
X138.43Y-82.9
X138.43Y-88.9
X146.05Y-55.88
X146.05Y-61.88
X148.59Y-55.88
X148.59Y-61.88
X149.86Y-31.75
X149.86Y-39.37
X149.86Y-82.55
X149.86Y-90.17
X151.13Y-55.88
X151.13Y-61.88
X153.67Y-82.9
X153.67Y-88.9
X154.94Y-54.61
X154.94Y-62.23
X154.94Y-105.41
X154.94Y-113.03
X156.21Y-82.9
X156.21Y-88.9
X158.75Y-82.9
X158.75Y-88.9
X166.37Y-55.88
X166.37Y-61.88
X168.91Y-55.88
X168.91Y-61.88
X170.18Y-31.75
X170.18Y-39.37
X170.18Y-82.55
X170.18Y-90.17
X171.45Y-55.88
X171.45Y-61.88
X173.99Y-73.66
X173.99Y-76.16
X173.99Y-82.9
X173.99Y-88.9
X175.26Y-54.61
X175.26Y-62.23
X175.26Y-105.41
X175.26Y-113.03
X176.53Y-82.9
X176.53Y-88.9
X179.07Y-82.9
X179.07Y-88.9
X186.69Y-55.88
X186.69Y-61.88
X189.23Y-55.88
X189.23Y-61.88
X190.5Y-31.75
X190.5Y-39.37
X190.5Y-73.66
X190.5Y-76.16
X190.5Y-82.55
X190.5Y-90.17
X191.77Y-55.88
X191.77Y-61.88
X194.31Y-82.9
X194.31Y-88.9
X195.58Y-54.61
X195.58Y-62.23
X195.58Y-105.41
X195.58Y-113.03
X196.85Y-82.9
X196.85Y-88.9
X199.39Y-82.9
X199.39Y-88.9
T4
X124.46Y-30.48
X124.46Y-33.02
X124.46Y-35.56
X124.46Y-38.1
X124.46Y-40.64
X124.46Y-43.18
X124.46Y-45.72
X124.46Y-48.26
X124.46Y-96.52
X124.46Y-99.06
X124.46Y-101.6
X124.46Y-104.14
X124.46Y-106.68
X124.46Y-109.22
X124.46Y-111.76
X124.46Y-114.3
X127.0Y-22.86
X127.0Y-25.4
X127.0Y-68.58
X127.0Y-71.12
X127.0Y-73.66
X127.0Y-76.2
X127.0Y-119.38
X127.0Y-121.92
X128.27Y-48.26
X128.27Y-50.8
X128.27Y-93.98
X128.27Y-96.52
X130.81Y-27.94
X130.81Y-48.26
X130.81Y-50.8
X130.81Y-93.98
X130.81Y-96.52
X130.81Y-116.84
X133.35Y-27.94
X133.35Y-48.26
X133.35Y-50.8
X133.35Y-93.98
X133.35Y-96.52
X133.35Y-116.84
X135.89Y-48.26
X135.89Y-50.8
X135.89Y-93.98
X135.89Y-96.52
X139.7Y-30.48
X139.7Y-33.02
X139.7Y-35.56
X139.7Y-38.1
X139.7Y-40.64
X139.7Y-43.18
X139.7Y-45.72
X139.7Y-48.26
X139.7Y-78.74
X139.7Y-96.52
X139.7Y-99.06
X139.7Y-101.6
X139.7Y-104.14
X139.7Y-106.68
X139.7Y-109.22
X139.7Y-111.76
X139.7Y-114.3
X142.24Y-78.74
X144.78Y-30.48
X144.78Y-33.02
X144.78Y-35.56
X144.78Y-38.1
X144.78Y-40.64
X144.78Y-43.18
X144.78Y-45.72
X144.78Y-48.26
X144.78Y-78.74
X144.78Y-96.52
X144.78Y-99.06
X144.78Y-101.6
X144.78Y-104.14
X144.78Y-106.68
X144.78Y-109.22
X144.78Y-111.76
X144.78Y-114.3
X147.32Y-78.74
X148.59Y-48.26
X148.59Y-50.8
X148.59Y-93.98
X148.59Y-96.52
X149.86Y-78.74
X151.13Y-27.94
X151.13Y-48.26
X151.13Y-50.8
X151.13Y-93.98
X151.13Y-96.52
X151.13Y-116.84
X152.4Y-78.74
X153.67Y-27.94
X153.67Y-48.26
X153.67Y-50.8
X153.67Y-93.98
X153.67Y-96.52
X153.67Y-116.84
X154.94Y-78.74
X156.21Y-48.26
X156.21Y-50.8
X156.21Y-93.98
X156.21Y-96.52
X157.48Y-78.74
X160.02Y-30.48
X160.02Y-33.02
X160.02Y-35.56
X160.02Y-38.1
X160.02Y-40.64
X160.02Y-43.18
X160.02Y-45.72
X160.02Y-48.26
X160.02Y-78.74
X160.02Y-96.52
X160.02Y-99.06
X160.02Y-101.6
X160.02Y-104.14
X160.02Y-106.68
X160.02Y-109.22
X160.02Y-111.76
X160.02Y-114.3
X165.1Y-30.48
X165.1Y-33.02
X165.1Y-35.56
X165.1Y-38.1
X165.1Y-40.64
X165.1Y-43.18
X165.1Y-45.72
X165.1Y-48.26
X165.1Y-96.52
X165.1Y-99.06
X165.1Y-101.6
X165.1Y-104.14
X165.1Y-106.68
X165.1Y-109.22
X165.1Y-111.76
X165.1Y-114.3
X167.64Y-68.58
X167.64Y-71.12
X167.64Y-73.66
X167.64Y-76.2
X168.91Y-48.26
X168.91Y-50.8
X168.91Y-93.98
X168.91Y-96.52
X171.45Y-27.94
X171.45Y-48.26
X171.45Y-50.8
X171.45Y-93.98
X171.45Y-96.52
X171.45Y-116.84
X173.99Y-27.94
X173.99Y-48.26
X173.99Y-50.8
X173.99Y-93.98
X173.99Y-96.52
X173.99Y-116.84
X176.53Y-48.26
X176.53Y-50.8
X176.53Y-93.98
X176.53Y-96.52
X180.34Y-30.48
X180.34Y-33.02
X180.34Y-35.56
X180.34Y-38.1
X180.34Y-40.64
X180.34Y-43.18
X180.34Y-45.72
X180.34Y-48.26
X180.34Y-96.52
X180.34Y-99.06
X180.34Y-101.6
X180.34Y-104.14
X180.34Y-106.68
X180.34Y-109.22
X180.34Y-111.76
X180.34Y-114.3
X185.42Y-30.48
X185.42Y-33.02
X185.42Y-35.56
X185.42Y-38.1
X185.42Y-40.64
X185.42Y-43.18
X185.42Y-45.72
X185.42Y-48.26
X185.42Y-96.52
X185.42Y-99.06
X185.42Y-101.6
X185.42Y-104.14
X185.42Y-106.68
X185.42Y-109.22
X185.42Y-111.76
X185.42Y-114.3
X189.23Y-48.26
X189.23Y-50.8
X189.23Y-93.98
X189.23Y-96.52
X191.77Y-27.94
X191.77Y-48.26
X191.77Y-50.8
X191.77Y-93.98
X191.77Y-96.52
X191.77Y-116.84
X194.31Y-27.94
X194.31Y-48.26
X194.31Y-50.8
X194.31Y-93.98
X194.31Y-96.52
X194.31Y-116.84
X196.85Y-48.26
X196.85Y-50.8
X196.85Y-93.98
X196.85Y-96.52
X198.12Y-22.86
X198.12Y-25.4
X198.12Y-68.58
X198.12Y-71.12
X198.12Y-73.66
X198.12Y-76.2
X198.12Y-119.38
X198.12Y-121.92
X200.66Y-30.48
X200.66Y-33.02
X200.66Y-35.56
X200.66Y-38.1
X200.66Y-40.64
X200.66Y-43.18
X200.66Y-45.72
X200.66Y-48.26
X200.66Y-96.52
X200.66Y-99.06
X200.66Y-101.6
X200.66Y-104.14
X200.66Y-106.68
X200.66Y-109.22
X200.66Y-111.76
X200.66Y-114.3
T5
X129.54Y-111.76
X134.62Y-33.02
X161.29Y-55.88
X163.83Y-88.9
X190.5Y-111.76
X195.58Y-33.02
M30
