%TF.GenerationSoftware,KiCad,Pcbnew,9.0.5*%
%TF.CreationDate,2025-11-11T22:24:23+01:00*%
%TF.ProjectId,BaseBoard,42617365-426f-4617-9264-2e6b69636164,v1.0*%
%TF.SameCoordinates,Original*%
%TF.FileFunction,Soldermask,Bot*%
%TF.FilePolarity,Negative*%
%FSLAX46Y46*%
G04 Gerber Fmt 4.6, Leading zero omitted, Abs format (unit mm)*
G04 Created by KiCad (PCBNEW 9.0.5) date 2025-11-11 22:24:23*
%MOMM*%
%LPD*%
G01*
G04 APERTURE LIST*
G04 Aperture macros list*
%AMRoundRect*
0 Rectangle with rounded corners*
0 $1 Rounding radius*
0 $2 $3 $4 $5 $6 $7 $8 $9 X,Y pos of 4 corners*
0 Add a 4 corners polygon primitive as box body*
4,1,4,$2,$3,$4,$5,$6,$7,$8,$9,$2,$3,0*
0 Add four circle primitives for the rounded corners*
1,1,$1+$1,$2,$3*
1,1,$1+$1,$4,$5*
1,1,$1+$1,$6,$7*
1,1,$1+$1,$8,$9*
0 Add four rect primitives between the rounded corners*
20,1,$1+$1,$2,$3,$4,$5,0*
20,1,$1+$1,$4,$5,$6,$7,0*
20,1,$1+$1,$6,$7,$8,$9,0*
20,1,$1+$1,$8,$9,$2,$3,0*%
G04 Aperture macros list end*
%ADD10C,1.600000*%
%ADD11R,1.050000X1.500000*%
%ADD12O,1.050000X1.500000*%
%ADD13R,1.700000X1.700000*%
%ADD14C,1.700000*%
%ADD15O,2.000000X2.500000*%
%ADD16O,1.850000X2.500000*%
%ADD17RoundRect,0.250000X0.550000X-0.550000X0.550000X0.550000X-0.550000X0.550000X-0.550000X-0.550000X0*%
G04 APERTURE END LIST*
D10*
%TO.C,R82*%
X190500000Y-32512000D03*
X190500000Y-40132000D03*
%TD*%
%TO.C,R81*%
X195580000Y-54610000D03*
X195580000Y-62230000D03*
%TD*%
D11*
%TO.C,Q81*%
X196850000Y-43180000D03*
D12*
X195580000Y-43180000D03*
X194310000Y-43180000D03*
%TD*%
D13*
%TO.C,J4-BUS8*%
X194310000Y-29210000D03*
D14*
X191770000Y-29210000D03*
%TD*%
D13*
%TO.C,J3-BUS8*%
X189230000Y-48260000D03*
D14*
X189230000Y-50800000D03*
X191770000Y-48260000D03*
X191770000Y-50800000D03*
X194310000Y-48260000D03*
X194310000Y-50800000D03*
X196850000Y-48260000D03*
X196850000Y-50800000D03*
%TD*%
D13*
%TO.C,J2-ESP8*%
X200660000Y-30480000D03*
D14*
X200660000Y-33020000D03*
X200660000Y-35560000D03*
X200660000Y-38100000D03*
X200660000Y-40640000D03*
X200660000Y-43180000D03*
X200660000Y-45720000D03*
X200660000Y-48260000D03*
%TD*%
D13*
%TO.C,J1-ESP8*%
X185420000Y-30480000D03*
D14*
X185420000Y-33020000D03*
X185420000Y-35560000D03*
X185420000Y-38100000D03*
X185420000Y-40640000D03*
X185420000Y-43180000D03*
X185420000Y-45720000D03*
X185420000Y-48260000D03*
%TD*%
D15*
%TO.C,ESP8*%
X191970000Y-55880000D03*
D16*
X189230000Y-55880000D03*
D15*
X186490000Y-55880000D03*
X186490000Y-61880000D03*
D16*
X189230000Y-61880000D03*
D15*
X191970000Y-61880000D03*
%TD*%
D10*
%TO.C,R72*%
X170180000Y-32512000D03*
X170180000Y-40132000D03*
%TD*%
%TO.C,R71*%
X175260000Y-54610000D03*
X175260000Y-62230000D03*
%TD*%
D11*
%TO.C,Q71*%
X176530000Y-43180000D03*
D12*
X175260000Y-43180000D03*
X173990000Y-43180000D03*
%TD*%
D13*
%TO.C,J4-BUS7*%
X173990000Y-29210000D03*
D14*
X171450000Y-29210000D03*
%TD*%
D13*
%TO.C,J3-BUS7*%
X168910000Y-48260000D03*
D14*
X168910000Y-50800000D03*
X171450000Y-48260000D03*
X171450000Y-50800000D03*
X173990000Y-48260000D03*
X173990000Y-50800000D03*
X176530000Y-48260000D03*
X176530000Y-50800000D03*
%TD*%
D13*
%TO.C,J2-ESP7*%
X180340000Y-30480000D03*
D14*
X180340000Y-33020000D03*
X180340000Y-35560000D03*
X180340000Y-38100000D03*
X180340000Y-40640000D03*
X180340000Y-43180000D03*
X180340000Y-45720000D03*
X180340000Y-48260000D03*
%TD*%
D13*
%TO.C,J1-ESP7*%
X165100000Y-30480000D03*
D14*
X165100000Y-33020000D03*
X165100000Y-35560000D03*
X165100000Y-38100000D03*
X165100000Y-40640000D03*
X165100000Y-43180000D03*
X165100000Y-45720000D03*
X165100000Y-48260000D03*
%TD*%
D15*
%TO.C,ESP7*%
X171650000Y-55880000D03*
D16*
X168910000Y-55880000D03*
D15*
X166170000Y-55880000D03*
X166170000Y-61880000D03*
D16*
X168910000Y-61880000D03*
D15*
X171650000Y-61880000D03*
%TD*%
D10*
%TO.C,R62*%
X149860000Y-32512000D03*
X149860000Y-40132000D03*
%TD*%
%TO.C,R61*%
X154940000Y-54610000D03*
X154940000Y-62230000D03*
%TD*%
D11*
%TO.C,Q61*%
X156210000Y-43180000D03*
D12*
X154940000Y-43180000D03*
X153670000Y-43180000D03*
%TD*%
D13*
%TO.C,J4-BUS6*%
X153670000Y-29210000D03*
D14*
X151130000Y-29210000D03*
%TD*%
D13*
%TO.C,J3-BUS6*%
X148590000Y-48260000D03*
D14*
X148590000Y-50800000D03*
X151130000Y-48260000D03*
X151130000Y-50800000D03*
X153670000Y-48260000D03*
X153670000Y-50800000D03*
X156210000Y-48260000D03*
X156210000Y-50800000D03*
%TD*%
D13*
%TO.C,J2-ESP6*%
X160020000Y-30480000D03*
D14*
X160020000Y-33020000D03*
X160020000Y-35560000D03*
X160020000Y-38100000D03*
X160020000Y-40640000D03*
X160020000Y-43180000D03*
X160020000Y-45720000D03*
X160020000Y-48260000D03*
%TD*%
D13*
%TO.C,J1-ESP6*%
X144780000Y-30480000D03*
D14*
X144780000Y-33020000D03*
X144780000Y-35560000D03*
X144780000Y-38100000D03*
X144780000Y-40640000D03*
X144780000Y-43180000D03*
X144780000Y-45720000D03*
X144780000Y-48260000D03*
%TD*%
D15*
%TO.C,ESP6*%
X151330000Y-55880000D03*
D16*
X148590000Y-55880000D03*
D15*
X145850000Y-55880000D03*
X145850000Y-61880000D03*
D16*
X148590000Y-61880000D03*
D15*
X151330000Y-61880000D03*
%TD*%
D10*
%TO.C,R42*%
X134620000Y-112268000D03*
X134620000Y-104648000D03*
%TD*%
%TO.C,R41*%
X129540000Y-90170000D03*
X129540000Y-82550000D03*
%TD*%
D11*
%TO.C,Q41*%
X128270000Y-101600000D03*
D12*
X129540000Y-101600000D03*
X130810000Y-101600000D03*
%TD*%
D13*
%TO.C,J4-BUS4*%
X130810000Y-115570000D03*
D14*
X133350000Y-115570000D03*
%TD*%
D13*
%TO.C,J3-BUS4*%
X135890000Y-96520000D03*
D14*
X135890000Y-93980000D03*
X133350000Y-96520000D03*
X133350000Y-93980000D03*
X130810000Y-96520000D03*
X130810000Y-93980000D03*
X128270000Y-96520000D03*
X128270000Y-93980000D03*
%TD*%
D13*
%TO.C,J2-ESP4*%
X124460000Y-114300000D03*
D14*
X124460000Y-111760000D03*
X124460000Y-109220000D03*
X124460000Y-106680000D03*
X124460000Y-104140000D03*
X124460000Y-101600000D03*
X124460000Y-99060000D03*
X124460000Y-96520000D03*
%TD*%
D13*
%TO.C,J1-ESP4*%
X139700000Y-114300000D03*
D14*
X139700000Y-111760000D03*
X139700000Y-109220000D03*
X139700000Y-106680000D03*
X139700000Y-104140000D03*
X139700000Y-101600000D03*
X139700000Y-99060000D03*
X139700000Y-96520000D03*
%TD*%
D15*
%TO.C,ESP4*%
X133150000Y-88900000D03*
D16*
X135890000Y-88900000D03*
D15*
X138630000Y-88900000D03*
X138630000Y-82900000D03*
D16*
X135890000Y-82900000D03*
D15*
X133150000Y-82900000D03*
%TD*%
D10*
%TO.C,R32*%
X154940000Y-112268000D03*
X154940000Y-104648000D03*
%TD*%
%TO.C,R31*%
X149860000Y-90170000D03*
X149860000Y-82550000D03*
%TD*%
D11*
%TO.C,Q31*%
X148590000Y-101600000D03*
D12*
X149860000Y-101600000D03*
X151130000Y-101600000D03*
%TD*%
D13*
%TO.C,J4-BUS3*%
X151130000Y-115570000D03*
D14*
X153670000Y-115570000D03*
%TD*%
D13*
%TO.C,J3-BUS3*%
X156210000Y-96520000D03*
D14*
X156210000Y-93980000D03*
X153670000Y-96520000D03*
X153670000Y-93980000D03*
X151130000Y-96520000D03*
X151130000Y-93980000D03*
X148590000Y-96520000D03*
X148590000Y-93980000D03*
%TD*%
D13*
%TO.C,J2-ESP3*%
X144755000Y-114285000D03*
D14*
X144755000Y-111745000D03*
X144755000Y-109205000D03*
X144755000Y-106665000D03*
X144755000Y-104125000D03*
X144755000Y-101585000D03*
X144755000Y-99045000D03*
X144755000Y-96505000D03*
%TD*%
D13*
%TO.C,J1-ESP3*%
X160020000Y-114300000D03*
D14*
X160020000Y-111760000D03*
X160020000Y-109220000D03*
X160020000Y-106680000D03*
X160020000Y-104140000D03*
X160020000Y-101600000D03*
X160020000Y-99060000D03*
X160020000Y-96520000D03*
%TD*%
D15*
%TO.C,ESP3*%
X153470000Y-88900000D03*
D16*
X156210000Y-88900000D03*
D15*
X158950000Y-88900000D03*
X158950000Y-82900000D03*
D16*
X156210000Y-82900000D03*
D15*
X153470000Y-82900000D03*
%TD*%
D10*
%TO.C,R22*%
X175260000Y-112268000D03*
X175260000Y-104648000D03*
%TD*%
%TO.C,R21*%
X170180000Y-90170000D03*
X170180000Y-82550000D03*
%TD*%
D11*
%TO.C,Q21*%
X168910000Y-101600000D03*
D12*
X170180000Y-101600000D03*
X171450000Y-101600000D03*
%TD*%
D13*
%TO.C,J4-BUS2*%
X171450000Y-115570000D03*
D14*
X173990000Y-115570000D03*
%TD*%
D13*
%TO.C,J3-BUS2*%
X176530000Y-96520000D03*
D14*
X176530000Y-93980000D03*
X173990000Y-96520000D03*
X173990000Y-93980000D03*
X171450000Y-96520000D03*
X171450000Y-93980000D03*
X168910000Y-96520000D03*
X168910000Y-93980000D03*
%TD*%
D13*
%TO.C,J2-ESP2*%
X165075000Y-114300000D03*
D14*
X165075000Y-111760000D03*
X165075000Y-109220000D03*
X165075000Y-106680000D03*
X165075000Y-104140000D03*
X165075000Y-101600000D03*
X165075000Y-99060000D03*
X165075000Y-96520000D03*
%TD*%
D13*
%TO.C,J1-ESP2*%
X180340000Y-114300000D03*
D14*
X180340000Y-111760000D03*
X180340000Y-109220000D03*
X180340000Y-106680000D03*
X180340000Y-104140000D03*
X180340000Y-101600000D03*
X180340000Y-99060000D03*
X180340000Y-96520000D03*
%TD*%
D15*
%TO.C,ESP2*%
X173790000Y-88900000D03*
D16*
X176530000Y-88900000D03*
D15*
X179270000Y-88900000D03*
X179270000Y-82900000D03*
D16*
X176530000Y-82900000D03*
D15*
X173790000Y-82900000D03*
%TD*%
D13*
%TO.C,J3-BUS5*%
X128270000Y-48260000D03*
D14*
X128270000Y-50800000D03*
X130810000Y-48260000D03*
X130810000Y-50800000D03*
X133350000Y-48260000D03*
X133350000Y-50800000D03*
X135890000Y-48260000D03*
X135890000Y-50800000D03*
%TD*%
D13*
%TO.C,J3-BUS1*%
X196850000Y-96520000D03*
D14*
X196850000Y-93980000D03*
X194310000Y-96520000D03*
X194310000Y-93980000D03*
X191770000Y-96520000D03*
X191770000Y-93980000D03*
X189230000Y-96520000D03*
X189230000Y-93980000D03*
%TD*%
D13*
%TO.C,J4-BUS5*%
X133350000Y-29210000D03*
D14*
X130810000Y-29210000D03*
%TD*%
D10*
%TO.C,R51*%
X134620000Y-54610000D03*
X134620000Y-62230000D03*
%TD*%
%TO.C,R11*%
X190500000Y-90170000D03*
X190500000Y-82550000D03*
%TD*%
D15*
%TO.C,ESP1*%
X194110000Y-88900000D03*
D16*
X196850000Y-88900000D03*
D15*
X199590000Y-88900000D03*
X199590000Y-82900000D03*
D16*
X196850000Y-82900000D03*
D15*
X194110000Y-82900000D03*
%TD*%
D13*
%TO.C,COM_PWR_IN1*%
X127000000Y-76200000D03*
D14*
X127000000Y-73660000D03*
X127000000Y-71120000D03*
X127000000Y-68580000D03*
%TD*%
D15*
%TO.C,ESP5*%
X131010000Y-55880000D03*
D16*
X128270000Y-55880000D03*
D15*
X125530000Y-55880000D03*
X125530000Y-61880000D03*
D16*
X128270000Y-61880000D03*
D15*
X131010000Y-61880000D03*
%TD*%
D13*
%TO.C,J1*%
X167640000Y-76200000D03*
D14*
X167640000Y-73660000D03*
X167640000Y-71120000D03*
X167640000Y-68580000D03*
%TD*%
D17*
%TO.C,C2*%
X190500000Y-76160000D03*
D10*
X190500000Y-73660000D03*
%TD*%
D13*
%TO.C,BUS_IN2*%
X127000000Y-26670000D03*
D14*
X127000000Y-24130000D03*
%TD*%
D13*
%TO.C,J2*%
X160020000Y-78740000D03*
D14*
X157480000Y-78740000D03*
X154940000Y-78740000D03*
X152400000Y-78740000D03*
X149860000Y-78740000D03*
X147320000Y-78740000D03*
X144780000Y-78740000D03*
X142240000Y-78740000D03*
X139700000Y-78740000D03*
%TD*%
D13*
%TO.C,BUS_OUT2*%
X198120000Y-26670000D03*
D14*
X198120000Y-24130000D03*
%TD*%
D13*
%TO.C,J1-ESP1*%
X200660000Y-114300000D03*
D14*
X200660000Y-111760000D03*
X200660000Y-109220000D03*
X200660000Y-106680000D03*
X200660000Y-104140000D03*
X200660000Y-101600000D03*
X200660000Y-99060000D03*
X200660000Y-96520000D03*
%TD*%
D11*
%TO.C,Q11*%
X189230000Y-101600000D03*
D12*
X190500000Y-101600000D03*
X191770000Y-101600000D03*
%TD*%
D13*
%TO.C,COM_PWR_OUT1*%
X198120000Y-76200000D03*
D14*
X198120000Y-73660000D03*
X198120000Y-71120000D03*
X198120000Y-68580000D03*
%TD*%
D13*
%TO.C,J4-BUS1*%
X191770000Y-115570000D03*
D14*
X194310000Y-115570000D03*
%TD*%
D13*
%TO.C,J2-ESP1*%
X185420000Y-114300000D03*
D14*
X185420000Y-111760000D03*
X185420000Y-109220000D03*
X185420000Y-106680000D03*
X185420000Y-104140000D03*
X185420000Y-101600000D03*
X185420000Y-99060000D03*
X185420000Y-96520000D03*
%TD*%
D17*
%TO.C,C1*%
X173990000Y-76160000D03*
D10*
X173990000Y-73660000D03*
%TD*%
D13*
%TO.C,J2-ESP5*%
X139700000Y-30480000D03*
D14*
X139700000Y-33020000D03*
X139700000Y-35560000D03*
X139700000Y-38100000D03*
X139700000Y-40640000D03*
X139700000Y-43180000D03*
X139700000Y-45720000D03*
X139700000Y-48260000D03*
%TD*%
D13*
%TO.C,BUS_OUT1*%
X127000000Y-118110000D03*
D14*
X127000000Y-120650000D03*
%TD*%
D13*
%TO.C,J1-ESP5*%
X124460000Y-30480000D03*
D14*
X124460000Y-33020000D03*
X124460000Y-35560000D03*
X124460000Y-38100000D03*
X124460000Y-40640000D03*
X124460000Y-43180000D03*
X124460000Y-45720000D03*
X124460000Y-48260000D03*
%TD*%
D13*
%TO.C,BUS_IN1*%
X198120000Y-118110000D03*
D14*
X198120000Y-120650000D03*
%TD*%
D10*
%TO.C,R52*%
X129540000Y-32512000D03*
X129540000Y-40132000D03*
%TD*%
%TO.C,R12*%
X195580000Y-112268000D03*
X195580000Y-104648000D03*
%TD*%
D11*
%TO.C,Q51*%
X135890000Y-43180000D03*
D12*
X134620000Y-43180000D03*
X133350000Y-43180000D03*
%TD*%
M02*
