%TF.GenerationSoftware,KiCad,Pcbnew,9.0.5*%
%TF.CreationDate,2025-10-26T10:57:22+01:00*%
%TF.ProjectId,BaseBoard,42617365-426f-4617-9264-2e6b69636164,v0.1*%
%TF.SameCoordinates,Original*%
%TF.FileFunction,Soldermask,Bot*%
%TF.FilePolarity,Negative*%
%FSLAX46Y46*%
G04 Gerber Fmt 4.6, Leading zero omitted, Abs format (unit mm)*
G04 Created by KiCad (PCBNEW 9.0.5) date 2025-10-26 10:57:22*
%MOMM*%
%LPD*%
G01*
G04 APERTURE LIST*
G04 Aperture macros list*
%AMRoundRect*
0 Rectangle with rounded corners*
0 $1 Rounding radius*
0 $2 $3 $4 $5 $6 $7 $8 $9 X,Y pos of 4 corners*
0 Add a 4 corners polygon primitive as box body*
4,1,4,$2,$3,$4,$5,$6,$7,$8,$9,$2,$3,0*
0 Add four circle primitives for the rounded corners*
1,1,$1+$1,$2,$3*
1,1,$1+$1,$4,$5*
1,1,$1+$1,$6,$7*
1,1,$1+$1,$8,$9*
0 Add four rect primitives between the rounded corners*
20,1,$1+$1,$2,$3,$4,$5,0*
20,1,$1+$1,$4,$5,$6,$7,0*
20,1,$1+$1,$6,$7,$8,$9,0*
20,1,$1+$1,$8,$9,$2,$3,0*%
G04 Aperture macros list end*
%ADD10C,1.600000*%
%ADD11RoundRect,0.250000X0.550000X-0.550000X0.550000X0.550000X-0.550000X0.550000X-0.550000X-0.550000X0*%
%ADD12R,1.700000X1.700000*%
%ADD13C,1.700000*%
%ADD14O,2.000000X2.500000*%
%ADD15O,1.850000X2.500000*%
%ADD16R,1.050000X1.500000*%
%ADD17O,1.050000X1.500000*%
G04 APERTURE END LIST*
D10*
%TO.C,C1*%
X170180000Y-73700000D03*
D11*
X170180000Y-76200000D03*
%TD*%
D10*
%TO.C,C2*%
X190500000Y-73700000D03*
D11*
X190500000Y-76200000D03*
%TD*%
D12*
%TO.C,J5-BUS6*%
X147320000Y-27940000D03*
D13*
X144780000Y-27940000D03*
%TD*%
D12*
%TO.C,J5-BUS5*%
X124460000Y-27940000D03*
D13*
X121920000Y-27940000D03*
%TD*%
D10*
%TO.C,R1-ESP5*%
X121920000Y-58420000D03*
X129540000Y-58420000D03*
%TD*%
%TO.C,R1-ESP4*%
X124460000Y-86360000D03*
X116840000Y-86360000D03*
%TD*%
D12*
%TO.C,J2-ESP2*%
X160020000Y-114300000D03*
D13*
X160020000Y-111760000D03*
X160020000Y-109220000D03*
X160020000Y-106680000D03*
X160020000Y-104140000D03*
X160020000Y-101600000D03*
X160020000Y-99060000D03*
X160020000Y-96520000D03*
%TD*%
D10*
%TO.C,R1-ESP1*%
X193040000Y-86360000D03*
X185420000Y-86360000D03*
%TD*%
D14*
%TO.C,SW-ESP1*%
X195380000Y-89820000D03*
D15*
X198120000Y-89820000D03*
D14*
X200860000Y-89820000D03*
X200860000Y-83820000D03*
D15*
X198120000Y-83820000D03*
D14*
X195380000Y-83820000D03*
%TD*%
D12*
%TO.C,COM_PWR_IN1*%
X116840000Y-76200000D03*
D13*
X116840000Y-73660000D03*
X116840000Y-71120000D03*
X116840000Y-68580000D03*
%TD*%
D10*
%TO.C,R1-ESP3*%
X147320000Y-86360000D03*
X139700000Y-86360000D03*
%TD*%
D12*
%TO.C,J2-ESP8*%
X200660000Y-30480000D03*
D13*
X200660000Y-33020000D03*
X200660000Y-35560000D03*
X200660000Y-38100000D03*
X200660000Y-40640000D03*
X200660000Y-43180000D03*
X200660000Y-45720000D03*
X200660000Y-48260000D03*
%TD*%
D12*
%TO.C,J3-BUS2*%
X172720000Y-93980000D03*
D13*
X170180000Y-93980000D03*
X167640000Y-93980000D03*
X165100000Y-93980000D03*
%TD*%
D14*
%TO.C,SW-ESP2*%
X172520000Y-89820000D03*
D15*
X175260000Y-89820000D03*
D14*
X178000000Y-89820000D03*
X178000000Y-83820000D03*
D15*
X175260000Y-83820000D03*
D14*
X172520000Y-83820000D03*
%TD*%
D12*
%TO.C,J1-ESP2*%
X177800000Y-114300000D03*
D13*
X177800000Y-111760000D03*
X177800000Y-109220000D03*
X177800000Y-106680000D03*
X177800000Y-104140000D03*
X177800000Y-101600000D03*
X177800000Y-99060000D03*
X177800000Y-96520000D03*
%TD*%
D14*
%TO.C,SW-ESP5*%
X119580000Y-54960000D03*
D15*
X116840000Y-54960000D03*
D14*
X114100000Y-54960000D03*
X114100000Y-60960000D03*
D15*
X116840000Y-60960000D03*
D14*
X119580000Y-60960000D03*
%TD*%
D16*
%TO.C,Q1-ESP8*%
X195580000Y-43180000D03*
D17*
X194310000Y-43180000D03*
X193040000Y-43180000D03*
%TD*%
D12*
%TO.C,J4-BUS6*%
X142240000Y-48260000D03*
D13*
X144780000Y-48260000D03*
X147320000Y-48260000D03*
X149860000Y-48260000D03*
%TD*%
D12*
%TO.C,J4-BUS1*%
X195580000Y-96520000D03*
D13*
X193040000Y-96520000D03*
X190500000Y-96520000D03*
X187960000Y-96520000D03*
%TD*%
D12*
%TO.C,J1*%
X162560000Y-76200000D03*
D13*
X162560000Y-73660000D03*
X162560000Y-71120000D03*
X162560000Y-68580000D03*
%TD*%
D12*
%TO.C,BUS_IN2*%
X116840000Y-25400000D03*
D13*
X116840000Y-22860000D03*
%TD*%
D14*
%TO.C,SW-ESP8*%
X188160000Y-54960000D03*
D15*
X185420000Y-54960000D03*
D14*
X182680000Y-54960000D03*
X182680000Y-60960000D03*
D15*
X185420000Y-60960000D03*
D14*
X188160000Y-60960000D03*
%TD*%
D12*
%TO.C,J2*%
X154940000Y-78740000D03*
D13*
X152400000Y-78740000D03*
X149860000Y-78740000D03*
X147320000Y-78740000D03*
X144780000Y-78740000D03*
X142240000Y-78740000D03*
X139700000Y-78740000D03*
X137160000Y-78740000D03*
X134620000Y-78740000D03*
%TD*%
D12*
%TO.C,J5-BUS7*%
X170180000Y-27940000D03*
D13*
X167640000Y-27940000D03*
%TD*%
D12*
%TO.C,J2-ESP6*%
X154940000Y-30480000D03*
D13*
X154940000Y-33020000D03*
X154940000Y-35560000D03*
X154940000Y-38100000D03*
X154940000Y-40640000D03*
X154940000Y-43180000D03*
X154940000Y-45720000D03*
X154940000Y-48260000D03*
%TD*%
D12*
%TO.C,BUS_OUT2*%
X198120000Y-25400000D03*
D13*
X198120000Y-22860000D03*
%TD*%
D10*
%TO.C,R2-ESP8*%
X187960000Y-31750000D03*
X187960000Y-39370000D03*
%TD*%
D12*
%TO.C,J1-ESP1*%
X200660000Y-114300000D03*
D13*
X200660000Y-111760000D03*
X200660000Y-109220000D03*
X200660000Y-106680000D03*
X200660000Y-104140000D03*
X200660000Y-101600000D03*
X200660000Y-99060000D03*
X200660000Y-96520000D03*
%TD*%
D14*
%TO.C,SW-ESP6*%
X142440000Y-54960000D03*
D15*
X139700000Y-54960000D03*
D14*
X136960000Y-54960000D03*
X136960000Y-60960000D03*
D15*
X139700000Y-60960000D03*
D14*
X142440000Y-60960000D03*
%TD*%
D10*
%TO.C,R2-ESP7*%
X165100000Y-31750000D03*
X165100000Y-39370000D03*
%TD*%
D16*
%TO.C,Q1-ESP1*%
X187960000Y-101600000D03*
D17*
X189230000Y-101600000D03*
X190500000Y-101600000D03*
%TD*%
D12*
%TO.C,COM_PWR_OUT1*%
X198120000Y-76200000D03*
D13*
X198120000Y-73660000D03*
X198120000Y-71120000D03*
X198120000Y-68580000D03*
%TD*%
D10*
%TO.C,R2-ESP2*%
X172720000Y-113030000D03*
X172720000Y-105410000D03*
%TD*%
D12*
%TO.C,J5-BUS3*%
X144780000Y-116840000D03*
D13*
X147320000Y-116840000D03*
%TD*%
D12*
%TO.C,J5-BUS1*%
X190500000Y-116840000D03*
D13*
X193040000Y-116840000D03*
%TD*%
D12*
%TO.C,J1-ESP7*%
X160020000Y-30480000D03*
D13*
X160020000Y-33020000D03*
X160020000Y-35560000D03*
X160020000Y-38100000D03*
X160020000Y-40640000D03*
X160020000Y-43180000D03*
X160020000Y-45720000D03*
X160020000Y-48260000D03*
%TD*%
D12*
%TO.C,J4-BUS4*%
X127000000Y-96520000D03*
D13*
X124460000Y-96520000D03*
X121920000Y-96520000D03*
X119380000Y-96520000D03*
%TD*%
D12*
%TO.C,J2-ESP1*%
X182880000Y-114300000D03*
D13*
X182880000Y-111760000D03*
X182880000Y-109220000D03*
X182880000Y-106680000D03*
X182880000Y-104140000D03*
X182880000Y-101600000D03*
X182880000Y-99060000D03*
X182880000Y-96520000D03*
%TD*%
D12*
%TO.C,J2-ESP5*%
X132080000Y-30480000D03*
D13*
X132080000Y-33020000D03*
X132080000Y-35560000D03*
X132080000Y-38100000D03*
X132080000Y-40640000D03*
X132080000Y-43180000D03*
X132080000Y-45720000D03*
X132080000Y-48260000D03*
%TD*%
D12*
%TO.C,BUS_OUT1*%
X116840000Y-119380000D03*
D13*
X116840000Y-121920000D03*
%TD*%
D12*
%TO.C,J1-ESP5*%
X114300000Y-30480000D03*
D13*
X114300000Y-33020000D03*
X114300000Y-35560000D03*
X114300000Y-38100000D03*
X114300000Y-40640000D03*
X114300000Y-43180000D03*
X114300000Y-45720000D03*
X114300000Y-48260000D03*
%TD*%
D12*
%TO.C,J1-ESP8*%
X182880000Y-30480000D03*
D13*
X182880000Y-33020000D03*
X182880000Y-35560000D03*
X182880000Y-38100000D03*
X182880000Y-40640000D03*
X182880000Y-43180000D03*
X182880000Y-45720000D03*
X182880000Y-48260000D03*
%TD*%
D12*
%TO.C,J2-ESP3*%
X137160000Y-114300000D03*
D13*
X137160000Y-111760000D03*
X137160000Y-109220000D03*
X137160000Y-106680000D03*
X137160000Y-104140000D03*
X137160000Y-101600000D03*
X137160000Y-99060000D03*
X137160000Y-96520000D03*
%TD*%
D12*
%TO.C,BUS_IN1*%
X198120000Y-119380000D03*
D13*
X198120000Y-121920000D03*
%TD*%
D12*
%TO.C,J1-ESP3*%
X154940000Y-114300000D03*
D13*
X154940000Y-111760000D03*
X154940000Y-109220000D03*
X154940000Y-106680000D03*
X154940000Y-104140000D03*
X154940000Y-101600000D03*
X154940000Y-99060000D03*
X154940000Y-96520000D03*
%TD*%
D10*
%TO.C,R1-ESP2*%
X170180000Y-86360000D03*
X162560000Y-86360000D03*
%TD*%
D12*
%TO.C,J3-BUS4*%
X127000000Y-93980000D03*
D13*
X124460000Y-93980000D03*
X121920000Y-93980000D03*
X119380000Y-93980000D03*
%TD*%
D10*
%TO.C,R2-ESP5*%
X119380000Y-31750000D03*
X119380000Y-39370000D03*
%TD*%
%TO.C,R1-ESP8*%
X190500000Y-58420000D03*
X198120000Y-58420000D03*
%TD*%
D12*
%TO.C,J3-BUS7*%
X165100000Y-50800000D03*
D13*
X167640000Y-50800000D03*
X170180000Y-50800000D03*
X172720000Y-50800000D03*
%TD*%
D10*
%TO.C,R1-ESP6*%
X144780000Y-58420000D03*
X152400000Y-58420000D03*
%TD*%
D12*
%TO.C,J4-BUS2*%
X172720000Y-96520000D03*
D13*
X170180000Y-96520000D03*
X167640000Y-96520000D03*
X165100000Y-96520000D03*
%TD*%
D12*
%TO.C,J3-BUS3*%
X149860000Y-93980000D03*
D13*
X147320000Y-93980000D03*
X144780000Y-93980000D03*
X142240000Y-93980000D03*
%TD*%
D14*
%TO.C,SW-ESP4*%
X126800000Y-89820000D03*
D15*
X129540000Y-89820000D03*
D14*
X132280000Y-89820000D03*
X132280000Y-83820000D03*
D15*
X129540000Y-83820000D03*
D14*
X126800000Y-83820000D03*
%TD*%
D12*
%TO.C,J1-ESP4*%
X132080000Y-114300000D03*
D13*
X132080000Y-111760000D03*
X132080000Y-109220000D03*
X132080000Y-106680000D03*
X132080000Y-104140000D03*
X132080000Y-101600000D03*
X132080000Y-99060000D03*
X132080000Y-96520000D03*
%TD*%
D12*
%TO.C,J1-ESP6*%
X137160000Y-30480000D03*
D13*
X137160000Y-33020000D03*
X137160000Y-35560000D03*
X137160000Y-38100000D03*
X137160000Y-40640000D03*
X137160000Y-43180000D03*
X137160000Y-45720000D03*
X137160000Y-48260000D03*
%TD*%
D10*
%TO.C,R2-ESP4*%
X127000000Y-113030000D03*
X127000000Y-105410000D03*
%TD*%
D16*
%TO.C,Q1-ESP3*%
X142240000Y-101600000D03*
D17*
X143510000Y-101600000D03*
X144780000Y-101600000D03*
%TD*%
D16*
%TO.C,Q1-ESP6*%
X149860000Y-43180000D03*
D17*
X148590000Y-43180000D03*
X147320000Y-43180000D03*
%TD*%
D10*
%TO.C,R1-ESP7*%
X167640000Y-58420000D03*
X175260000Y-58420000D03*
%TD*%
D12*
%TO.C,J5-BUS8*%
X193040000Y-27940000D03*
D13*
X190500000Y-27940000D03*
%TD*%
D10*
%TO.C,R2-ESP3*%
X149860000Y-113030000D03*
X149860000Y-105410000D03*
%TD*%
D16*
%TO.C,Q1-ESP4*%
X119380000Y-101600000D03*
D17*
X120650000Y-101600000D03*
X121920000Y-101600000D03*
%TD*%
D12*
%TO.C,J3-BUS8*%
X187960000Y-50800000D03*
D13*
X190500000Y-50800000D03*
X193040000Y-50800000D03*
X195580000Y-50800000D03*
%TD*%
D12*
%TO.C,J2-ESP4*%
X114300000Y-114300000D03*
D13*
X114300000Y-111760000D03*
X114300000Y-109220000D03*
X114300000Y-106680000D03*
X114300000Y-104140000D03*
X114300000Y-101600000D03*
X114300000Y-99060000D03*
X114300000Y-96520000D03*
%TD*%
D16*
%TO.C,Q1-ESP2*%
X165100000Y-101600000D03*
D17*
X166370000Y-101600000D03*
X167640000Y-101600000D03*
%TD*%
D12*
%TO.C,J4-BUS5*%
X119380000Y-48260000D03*
D13*
X121920000Y-48260000D03*
X124460000Y-48260000D03*
X127000000Y-48260000D03*
%TD*%
D12*
%TO.C,J4-BUS7*%
X165100000Y-48260000D03*
D13*
X167640000Y-48260000D03*
X170180000Y-48260000D03*
X172720000Y-48260000D03*
%TD*%
D14*
%TO.C,SW-ESP7*%
X165300000Y-54960000D03*
D15*
X162560000Y-54960000D03*
D14*
X159820000Y-54960000D03*
X159820000Y-60960000D03*
D15*
X162560000Y-60960000D03*
D14*
X165300000Y-60960000D03*
%TD*%
D16*
%TO.C,Q1-ESP7*%
X172720000Y-43180000D03*
D17*
X171450000Y-43180000D03*
X170180000Y-43180000D03*
%TD*%
D12*
%TO.C,J3-BUS6*%
X142240000Y-50800000D03*
D13*
X144780000Y-50800000D03*
X147320000Y-50800000D03*
X149860000Y-50800000D03*
%TD*%
D12*
%TO.C,J5-BUS2*%
X167640000Y-116840000D03*
D13*
X170180000Y-116840000D03*
%TD*%
D12*
%TO.C,J3-BUS5*%
X119380000Y-50800000D03*
D13*
X121920000Y-50800000D03*
X124460000Y-50800000D03*
X127000000Y-50800000D03*
%TD*%
D12*
%TO.C,J5-BUS4*%
X121920000Y-116840000D03*
D13*
X124460000Y-116840000D03*
%TD*%
D10*
%TO.C,R2-ESP6*%
X142240000Y-31750000D03*
X142240000Y-39370000D03*
%TD*%
%TO.C,R2-ESP1*%
X195580000Y-113030000D03*
X195580000Y-105410000D03*
%TD*%
D16*
%TO.C,Q1-ESP5*%
X127000000Y-43180000D03*
D17*
X125730000Y-43180000D03*
X124460000Y-43180000D03*
%TD*%
D12*
%TO.C,J3-BUS1*%
X195580000Y-93980000D03*
D13*
X193040000Y-93980000D03*
X190500000Y-93980000D03*
X187960000Y-93980000D03*
%TD*%
D12*
%TO.C,J4-BUS8*%
X187960000Y-48260000D03*
D13*
X190500000Y-48260000D03*
X193040000Y-48260000D03*
X195580000Y-48260000D03*
%TD*%
D14*
%TO.C,SW-ESP3*%
X149660000Y-89820000D03*
D15*
X152400000Y-89820000D03*
D14*
X155140000Y-89820000D03*
X155140000Y-83820000D03*
D15*
X152400000Y-83820000D03*
D14*
X149660000Y-83820000D03*
%TD*%
D12*
%TO.C,J4-BUS3*%
X149860000Y-96520000D03*
D13*
X147320000Y-96520000D03*
X144780000Y-96520000D03*
X142240000Y-96520000D03*
%TD*%
D12*
%TO.C,J2-ESP7*%
X177800000Y-30480000D03*
D13*
X177800000Y-33020000D03*
X177800000Y-35560000D03*
X177800000Y-38100000D03*
X177800000Y-40640000D03*
X177800000Y-43180000D03*
X177800000Y-45720000D03*
X177800000Y-48260000D03*
%TD*%
M02*
