%TF.GenerationSoftware,KiCad,Pcbnew,9.0.5*%
%TF.CreationDate,2025-10-26T10:57:22+01:00*%
%TF.ProjectId,BaseBoard,42617365-426f-4617-9264-2e6b69636164,v0.1*%
%TF.SameCoordinates,Original*%
%TF.FileFunction,Profile,NP*%
%FSLAX46Y46*%
G04 Gerber Fmt 4.6, Leading zero omitted, Abs format (unit mm)*
G04 Created by KiCad (PCBNEW 9.0.5) date 2025-10-26 10:57:22*
%MOMM*%
%LPD*%
G01*
G04 APERTURE LIST*
%TA.AperFunction,Profile*%
%ADD10C,0.050000*%
%TD*%
G04 APERTURE END LIST*
D10*
X113300000Y-81280000D02*
G75*
G02*
X114300000Y-82280000I0J-1000000D01*
G01*
X114300000Y-90440000D02*
G75*
G02*
X113300000Y-91440000I-1000000J0D01*
G01*
X112760000Y-81280000D02*
G75*
G02*
X111760000Y-80280000I0J1000000D01*
G01*
X111760000Y-92440000D02*
G75*
G02*
X112760000Y-91440000I1000000J0D01*
G01*
X114300000Y-90440000D02*
X114300000Y-82280000D01*
X112760000Y-91440000D02*
X113300000Y-91440000D01*
X113300000Y-81280000D02*
X112760000Y-81280000D01*
X111760000Y-80280000D02*
X111760000Y-21780000D01*
X201660000Y-63500000D02*
G75*
G02*
X200660000Y-62500000I0J1000000D01*
G01*
X200660000Y-54340000D02*
G75*
G02*
X201660000Y-53340000I1000000J0D01*
G01*
X202200000Y-63500000D02*
G75*
G02*
X203200000Y-64500000I0J-1000000D01*
G01*
X203200000Y-52340000D02*
G75*
G02*
X202200000Y-53340000I-1000000J0D01*
G01*
X200660000Y-54340000D02*
X200660000Y-62500000D01*
X202200000Y-53340000D02*
X201660000Y-53340000D01*
X201660000Y-63500000D02*
X202200000Y-63500000D01*
X203200000Y-64500000D02*
X203200000Y-123000000D01*
X169180000Y-124460000D02*
G75*
G02*
X170180000Y-125460000I0J-1000000D01*
G01*
X171180000Y-127000000D02*
G75*
G02*
X170180000Y-126000000I0J1000000D01*
G01*
X144780000Y-125460000D02*
G75*
G02*
X145780000Y-124460000I1000000J0D01*
G01*
X144780000Y-126000000D02*
G75*
G02*
X143780000Y-127000000I-1000000J0D01*
G01*
X169180000Y-124460000D02*
X145780000Y-124460000D01*
X170180000Y-126000000D02*
X170180000Y-125460000D01*
X144780000Y-125460000D02*
X144780000Y-126000000D01*
X143780000Y-127000000D02*
X115760000Y-127000000D01*
X170180000Y-19320000D02*
G75*
G02*
X169180000Y-20320000I-1000000J0D01*
G01*
X145780000Y-20320000D02*
G75*
G02*
X144780000Y-19320000I0J1000000D01*
G01*
X170180000Y-18780000D02*
G75*
G02*
X171180000Y-17780000I1000000J0D01*
G01*
X143780000Y-17780000D02*
G75*
G02*
X144780000Y-18780000I0J-1000000D01*
G01*
X145780000Y-20320000D02*
X169180000Y-20320000D01*
X144780000Y-18780000D02*
X144780000Y-19320000D01*
X170180000Y-19320000D02*
X170180000Y-18780000D01*
X171180000Y-17780000D02*
X199200000Y-17780000D01*
X115760000Y-17780000D02*
X143780000Y-17780000D01*
X111760000Y-123000000D02*
X111760000Y-92440000D01*
X203200000Y-21780000D02*
X203200000Y-52340000D01*
X115760000Y-127000000D02*
G75*
G02*
X111760000Y-123000000I0J4000000D01*
G01*
X111760000Y-21780000D02*
G75*
G02*
X115760000Y-17780000I4000000J0D01*
G01*
X199200000Y-127000000D02*
X171180000Y-127000000D01*
X199200000Y-17780000D02*
G75*
G02*
X203200000Y-21780000I0J-4000000D01*
G01*
X203200000Y-123000000D02*
G75*
G02*
X199200000Y-127000000I-4000000J0D01*
G01*
M02*
