M48
; DRILL file {KiCad 9.0.5} date 2025-10-26T11:02:03+0100
; FORMAT={-:-/ absolute / metric / decimal}
; #@! TF.CreationDate,2025-10-26T11:02:03+01:00
; #@! TF.GenerationSoftware,Kicad,Pcbnew,9.0.5
; #@! TF.FileFunction,Plated,1,2,PTH
FMAT,2
METRIC
; #@! TA.AperFunction,Plated,PTH,ViaDrill
T1C0.300
; #@! TA.AperFunction,Plated,PTH,ComponentDrill
T2C0.750
; #@! TA.AperFunction,Plated,PTH,ComponentDrill
T3C0.800
; #@! TA.AperFunction,Plated,PTH,ComponentDrill
T4C1.000
; #@! TA.AperFunction,Plated,PTH,ViaDrill
T5C3.500
%
G90
G05
T1
X119.38Y-22.86
X119.38Y-25.4
X121.92Y-22.86
X121.92Y-25.4
X121.92Y-119.38
X121.92Y-121.92
X124.46Y-22.86
X124.46Y-25.4
X124.46Y-119.38
X124.46Y-121.92
X127.0Y-22.86
X127.0Y-25.4
X127.0Y-119.38
X127.0Y-121.92
X129.54Y-22.86
X129.54Y-25.4
X129.54Y-119.38
X129.54Y-121.92
X132.08Y-22.86
X132.08Y-25.4
X132.08Y-119.38
X132.08Y-121.92
X137.16Y-22.86
X137.16Y-25.4
X137.16Y-119.38
X137.16Y-121.92
X139.7Y-22.86
X139.7Y-25.4
X139.7Y-119.38
X139.7Y-121.92
X142.24Y-22.86
X142.24Y-25.4
X142.24Y-119.38
X142.24Y-121.92
X142.494Y-69.596
X143.256Y-68.834
X144.018Y-68.072
X144.78Y-22.86
X144.78Y-25.4
X144.78Y-119.38
X144.78Y-121.92
X147.32Y-22.86
X147.32Y-25.4
X147.32Y-119.38
X147.32Y-121.92
X148.844Y-68.072
X149.352Y-68.834
X149.86Y-22.86
X149.86Y-25.4
X149.86Y-69.596
X149.86Y-119.38
X149.86Y-121.92
X152.4Y-22.86
X152.4Y-25.4
X152.4Y-119.38
X152.4Y-121.92
X154.94Y-22.86
X154.94Y-25.4
X154.94Y-119.38
X154.94Y-121.92
X160.02Y-22.86
X160.02Y-25.4
X160.02Y-119.38
X160.02Y-121.92
X162.56Y-22.86
X162.56Y-25.4
X162.56Y-119.38
X162.56Y-121.92
X165.1Y-22.86
X165.1Y-25.4
X165.1Y-119.38
X165.1Y-121.92
X167.64Y-22.86
X167.64Y-25.4
X167.64Y-119.38
X167.64Y-121.92
X170.18Y-22.86
X170.18Y-25.4
X170.18Y-119.38
X170.18Y-121.92
X172.72Y-22.86
X172.72Y-25.4
X172.72Y-119.38
X172.72Y-121.92
X175.26Y-22.86
X175.26Y-25.4
X175.26Y-119.38
X175.26Y-121.92
X177.8Y-22.86
X177.8Y-25.4
X177.8Y-119.38
X177.8Y-121.92
X182.88Y-22.86
X182.88Y-25.4
X182.88Y-119.38
X182.88Y-121.92
X185.42Y-22.86
X185.42Y-25.4
X185.42Y-119.38
X185.42Y-121.92
X187.96Y-22.86
X187.96Y-25.4
X187.96Y-119.38
X187.96Y-121.92
X190.5Y-22.86
X190.5Y-25.4
X190.5Y-119.38
X190.5Y-121.92
X193.04Y-22.86
X193.04Y-25.4
X193.04Y-119.38
X193.04Y-121.92
X195.58Y-119.38
X195.58Y-121.92
T2
X119.38Y-101.6
X120.65Y-101.6
X121.92Y-101.6
X124.46Y-43.18
X125.73Y-43.18
X127.0Y-43.18
X142.24Y-101.6
X143.51Y-101.6
X144.78Y-101.6
X147.32Y-43.18
X148.59Y-43.18
X149.86Y-43.18
X165.1Y-101.6
X166.37Y-101.6
X167.64Y-101.6
X170.18Y-43.18
X171.45Y-43.18
X172.72Y-43.18
X187.96Y-101.6
X189.23Y-101.6
X190.5Y-101.6
X193.04Y-43.18
X194.31Y-43.18
X195.58Y-43.18
T3
X114.3Y-54.96
X114.3Y-60.96
X116.84Y-54.96
X116.84Y-60.96
X116.84Y-86.36
X119.38Y-31.75
X119.38Y-39.37
X119.38Y-54.96
X119.38Y-60.96
X121.92Y-58.42
X124.46Y-86.36
X127.0Y-83.82
X127.0Y-89.82
X127.0Y-105.41
X127.0Y-113.03
X129.54Y-58.42
X129.54Y-83.82
X129.54Y-89.82
X132.08Y-83.82
X132.08Y-89.82
X137.16Y-54.96
X137.16Y-60.96
X139.7Y-54.96
X139.7Y-60.96
X139.7Y-86.36
X142.24Y-31.75
X142.24Y-39.37
X142.24Y-54.96
X142.24Y-60.96
X144.78Y-58.42
X147.32Y-86.36
X149.86Y-83.82
X149.86Y-89.82
X149.86Y-105.41
X149.86Y-113.03
X152.4Y-58.42
X152.4Y-83.82
X152.4Y-89.82
X154.94Y-83.82
X154.94Y-89.82
X160.02Y-54.96
X160.02Y-60.96
X162.56Y-54.96
X162.56Y-60.96
X162.56Y-86.36
X165.1Y-31.75
X165.1Y-39.37
X165.1Y-54.96
X165.1Y-60.96
X167.64Y-58.42
X170.18Y-73.7
X170.18Y-76.2
X170.18Y-86.36
X172.72Y-83.82
X172.72Y-89.82
X172.72Y-105.41
X172.72Y-113.03
X175.26Y-58.42
X175.26Y-83.82
X175.26Y-89.82
X177.8Y-83.82
X177.8Y-89.82
X182.88Y-54.96
X182.88Y-60.96
X185.42Y-54.96
X185.42Y-60.96
X185.42Y-86.36
X187.96Y-31.75
X187.96Y-39.37
X187.96Y-54.96
X187.96Y-60.96
X190.5Y-58.42
X190.5Y-73.7
X190.5Y-76.2
X193.04Y-86.36
X195.58Y-83.82
X195.58Y-89.82
X195.58Y-105.41
X195.58Y-113.03
X198.12Y-58.42
X198.12Y-83.82
X198.12Y-89.82
X200.66Y-83.82
X200.66Y-89.82
T4
X114.3Y-30.48
X114.3Y-33.02
X114.3Y-35.56
X114.3Y-38.1
X114.3Y-40.64
X114.3Y-43.18
X114.3Y-45.72
X114.3Y-48.26
X114.3Y-96.52
X114.3Y-99.06
X114.3Y-101.6
X114.3Y-104.14
X114.3Y-106.68
X114.3Y-109.22
X114.3Y-111.76
X114.3Y-114.3
X116.84Y-22.86
X116.84Y-25.4
X116.84Y-68.58
X116.84Y-71.12
X116.84Y-73.66
X116.84Y-76.2
X116.84Y-119.38
X116.84Y-121.92
X119.38Y-48.26
X119.38Y-50.8
X119.38Y-93.98
X119.38Y-96.52
X121.92Y-27.94
X121.92Y-48.26
X121.92Y-50.8
X121.92Y-93.98
X121.92Y-96.52
X121.92Y-116.84
X124.46Y-27.94
X124.46Y-48.26
X124.46Y-50.8
X124.46Y-93.98
X124.46Y-96.52
X124.46Y-116.84
X127.0Y-48.26
X127.0Y-50.8
X127.0Y-93.98
X127.0Y-96.52
X132.08Y-30.48
X132.08Y-33.02
X132.08Y-35.56
X132.08Y-38.1
X132.08Y-40.64
X132.08Y-43.18
X132.08Y-45.72
X132.08Y-48.26
X132.08Y-96.52
X132.08Y-99.06
X132.08Y-101.6
X132.08Y-104.14
X132.08Y-106.68
X132.08Y-109.22
X132.08Y-111.76
X132.08Y-114.3
X134.62Y-78.74
X137.16Y-30.48
X137.16Y-33.02
X137.16Y-35.56
X137.16Y-38.1
X137.16Y-40.64
X137.16Y-43.18
X137.16Y-45.72
X137.16Y-48.26
X137.16Y-78.74
X137.16Y-96.52
X137.16Y-99.06
X137.16Y-101.6
X137.16Y-104.14
X137.16Y-106.68
X137.16Y-109.22
X137.16Y-111.76
X137.16Y-114.3
X139.7Y-78.74
X142.24Y-48.26
X142.24Y-50.8
X142.24Y-78.74
X142.24Y-93.98
X142.24Y-96.52
X144.78Y-27.94
X144.78Y-48.26
X144.78Y-50.8
X144.78Y-78.74
X144.78Y-93.98
X144.78Y-96.52
X144.78Y-116.84
X147.32Y-27.94
X147.32Y-48.26
X147.32Y-50.8
X147.32Y-78.74
X147.32Y-93.98
X147.32Y-96.52
X147.32Y-116.84
X149.86Y-48.26
X149.86Y-50.8
X149.86Y-78.74
X149.86Y-93.98
X149.86Y-96.52
X152.4Y-78.74
X154.94Y-30.48
X154.94Y-33.02
X154.94Y-35.56
X154.94Y-38.1
X154.94Y-40.64
X154.94Y-43.18
X154.94Y-45.72
X154.94Y-48.26
X154.94Y-78.74
X154.94Y-96.52
X154.94Y-99.06
X154.94Y-101.6
X154.94Y-104.14
X154.94Y-106.68
X154.94Y-109.22
X154.94Y-111.76
X154.94Y-114.3
X160.02Y-30.48
X160.02Y-33.02
X160.02Y-35.56
X160.02Y-38.1
X160.02Y-40.64
X160.02Y-43.18
X160.02Y-45.72
X160.02Y-48.26
X160.02Y-96.52
X160.02Y-99.06
X160.02Y-101.6
X160.02Y-104.14
X160.02Y-106.68
X160.02Y-109.22
X160.02Y-111.76
X160.02Y-114.3
X162.56Y-68.58
X162.56Y-71.12
X162.56Y-73.66
X162.56Y-76.2
X165.1Y-48.26
X165.1Y-50.8
X165.1Y-93.98
X165.1Y-96.52
X167.64Y-27.94
X167.64Y-48.26
X167.64Y-50.8
X167.64Y-93.98
X167.64Y-96.52
X167.64Y-116.84
X170.18Y-27.94
X170.18Y-48.26
X170.18Y-50.8
X170.18Y-93.98
X170.18Y-96.52
X170.18Y-116.84
X172.72Y-48.26
X172.72Y-50.8
X172.72Y-93.98
X172.72Y-96.52
X177.8Y-30.48
X177.8Y-33.02
X177.8Y-35.56
X177.8Y-38.1
X177.8Y-40.64
X177.8Y-43.18
X177.8Y-45.72
X177.8Y-48.26
X177.8Y-96.52
X177.8Y-99.06
X177.8Y-101.6
X177.8Y-104.14
X177.8Y-106.68
X177.8Y-109.22
X177.8Y-111.76
X177.8Y-114.3
X182.88Y-30.48
X182.88Y-33.02
X182.88Y-35.56
X182.88Y-38.1
X182.88Y-40.64
X182.88Y-43.18
X182.88Y-45.72
X182.88Y-48.26
X182.88Y-96.52
X182.88Y-99.06
X182.88Y-101.6
X182.88Y-104.14
X182.88Y-106.68
X182.88Y-109.22
X182.88Y-111.76
X182.88Y-114.3
X187.96Y-48.26
X187.96Y-50.8
X187.96Y-93.98
X187.96Y-96.52
X190.5Y-27.94
X190.5Y-48.26
X190.5Y-50.8
X190.5Y-93.98
X190.5Y-96.52
X190.5Y-116.84
X193.04Y-27.94
X193.04Y-48.26
X193.04Y-50.8
X193.04Y-93.98
X193.04Y-96.52
X193.04Y-116.84
X195.58Y-48.26
X195.58Y-50.8
X195.58Y-93.98
X195.58Y-96.52
X198.12Y-22.86
X198.12Y-25.4
X198.12Y-68.58
X198.12Y-71.12
X198.12Y-73.66
X198.12Y-76.2
X198.12Y-119.38
X198.12Y-121.92
X200.66Y-30.48
X200.66Y-33.02
X200.66Y-35.56
X200.66Y-38.1
X200.66Y-40.64
X200.66Y-43.18
X200.66Y-45.72
X200.66Y-48.26
X200.66Y-96.52
X200.66Y-99.06
X200.66Y-101.6
X200.66Y-104.14
X200.66Y-106.68
X200.66Y-109.22
X200.66Y-111.76
X200.66Y-114.3
T5
X119.38Y-111.76
X127.0Y-33.02
X154.94Y-53.34
X160.02Y-91.44
X187.96Y-111.76
X195.58Y-33.02
M30
